<svg width="52" height="52" viewBox="0 0 52 52" fill="none" xmlns="http://www.w3.org/2000/svg">
<g clip-path="url(#clip0_135_4052)">
<path d="M26 34.6667C24.2859 34.6667 22.6103 34.1584 21.1851 33.2061C19.7598 32.2538 18.649 30.9002 17.993 29.3166C17.3371 27.733 17.1655 25.9904 17.4999 24.3092C17.8343 22.6281 18.6597 21.0838 19.8717 19.8717C21.0838 18.6597 22.628 17.8343 24.3092 17.4999C25.9904 17.1655 27.733 17.3371 29.3166 17.993C30.9002 18.649 32.2538 19.7598 33.2061 21.1851C34.1584 22.6103 34.6667 24.2859 34.6667 26C34.6667 28.2985 33.7536 30.5029 32.1283 32.1283C30.5029 33.7536 28.2985 34.6667 26 34.6667ZM26 21.6667C25.1429 21.6667 24.3051 21.9208 23.5925 22.397C22.8799 22.8731 22.3245 23.5499 21.9965 24.3417C21.6685 25.1335 21.5827 26.0048 21.7499 26.8454C21.9171 27.686 22.3298 28.4581 22.9359 29.0641C23.5419 29.6702 24.314 30.0829 25.1546 30.2501C25.9952 30.4173 26.8665 30.3315 27.6583 30.0035C28.4501 29.6755 29.1269 29.1201 29.603 28.4075C30.0792 27.6949 30.3333 26.8571 30.3333 26C30.3333 24.8507 29.8768 23.7485 29.0641 22.9359C28.2515 22.1232 27.1493 21.6667 26 21.6667ZM39 49.8333C39 46.3855 37.6304 43.0789 35.1924 40.6409C32.7544 38.203 29.4478 36.8333 26 36.8333C22.5522 36.8333 19.2456 38.203 16.8076 40.6409C14.3696 43.0789 13 46.3855 13 49.8333C13 50.408 13.2283 50.9591 13.6346 51.3654C14.0409 51.7717 14.592 52 15.1667 52C15.7413 52 16.2924 51.7717 16.6987 51.3654C17.1051 50.9591 17.3333 50.408 17.3333 49.8333C17.3333 47.5348 18.2464 45.3304 19.8717 43.7051C21.4971 42.0798 23.7015 41.1667 26 41.1667C28.2985 41.1667 30.5029 42.0798 32.1283 43.7051C33.7536 45.3304 34.6667 47.5348 34.6667 49.8333C34.6667 50.408 34.8949 50.9591 35.3013 51.3654C35.7076 51.7717 36.2587 52 36.8333 52C37.408 52 37.9591 51.7717 38.3654 51.3654C38.7717 50.9591 39 50.408 39 49.8333ZM39 17.3333C37.2859 17.3333 35.6103 16.825 34.1851 15.8727C32.7598 14.9204 31.649 13.5669 30.993 11.9833C30.3371 10.3996 30.1655 8.65706 30.4999 6.97589C30.8343 5.29472 31.6597 3.75047 32.8717 2.53841C34.0838 1.32636 35.6281 0.500937 37.3092 0.166531C38.9904 -0.167874 40.733 0.0037551 42.3166 0.659715C43.9002 1.31567 45.2538 2.4265 46.2061 3.85173C47.1584 5.27695 47.6667 6.95257 47.6667 8.66667C47.6667 10.9652 46.7536 13.1696 45.1283 14.7949C43.5029 16.4202 41.2985 17.3333 39 17.3333ZM39 4.33334C38.1429 4.33334 37.3051 4.58748 36.5925 5.06364C35.8799 5.53979 35.3245 6.21656 34.9965 7.00838C34.6685 7.80019 34.5827 8.67148 34.7499 9.51206C34.9171 10.3526 35.3298 11.1248 35.9359 11.7308C36.5419 12.3368 37.314 12.7495 38.1546 12.9167C38.9952 13.0839 39.8665 12.9981 40.6583 12.6701C41.4501 12.3422 42.1269 11.7868 42.603 11.0741C43.0792 10.3615 43.3333 9.52372 43.3333 8.66667C43.3333 7.5174 42.8768 6.4152 42.0641 5.60254C41.2515 4.78988 40.1493 4.33334 39 4.33334ZM52 32.5C51.9966 29.0532 50.6258 25.7486 48.1886 23.3114C45.7514 20.8742 42.4468 19.5034 39 19.5C38.4254 19.5 37.8743 19.7283 37.4679 20.1346C37.0616 20.5409 36.8333 21.092 36.8333 21.6667C36.8333 22.2413 37.0616 22.7924 37.4679 23.1987C37.8743 23.6051 38.4254 23.8333 39 23.8333C41.2985 23.8333 43.5029 24.7464 45.1283 26.3717C46.7536 27.9971 47.6667 30.2015 47.6667 32.5C47.6667 33.0746 47.8949 33.6257 48.3013 34.0321C48.7076 34.4384 49.2587 34.6667 49.8333 34.6667C50.408 34.6667 50.9591 34.4384 51.3654 34.0321C51.7717 33.6257 52 33.0746 52 32.5ZM13 17.3333C11.2859 17.3333 9.61028 16.825 8.18506 15.8727C6.75983 14.9204 5.649 13.5669 4.99304 11.9833C4.33708 10.3996 4.16546 8.65706 4.49986 6.97589C4.83427 5.29472 5.65969 3.75047 6.87174 2.53841C8.0838 1.32636 9.62805 0.500937 11.3092 0.166531C12.9904 -0.167874 14.733 0.0037551 16.3166 0.659715C17.9002 1.31567 19.2538 2.4265 20.2061 3.85173C21.1584 5.27695 21.6667 6.95257 21.6667 8.66667C21.6667 10.9652 20.7536 13.1696 19.1283 14.7949C17.5029 16.4202 15.2985 17.3333 13 17.3333ZM13 4.33334C12.1429 4.33334 11.3051 4.58748 10.5925 5.06364C9.87992 5.53979 9.3245 6.21656 8.99652 7.00838C8.66854 7.80019 8.58273 8.67148 8.74993 9.51206C8.91713 10.3526 9.32984 11.1248 9.93587 11.7308C10.5419 12.3368 11.314 12.7495 12.1546 12.9167C12.9952 13.0839 13.8665 12.9981 14.6583 12.6701C15.4501 12.3422 16.1269 11.7868 16.603 11.0741C17.0792 10.3615 17.3333 9.52372 17.3333 8.66667C17.3333 7.5174 16.8768 6.4152 16.0641 5.60254C15.2515 4.78988 14.1493 4.33334 13 4.33334ZM4.33333 32.5C4.33333 30.2015 5.24643 27.9971 6.87174 26.3717C8.49706 24.7464 10.7015 23.8333 13 23.8333C13.5746 23.8333 14.1257 23.6051 14.5321 23.1987C14.9384 22.7924 15.1667 22.2413 15.1667 21.6667C15.1667 21.092 14.9384 20.5409 14.5321 20.1346C14.1257 19.7283 13.5746 19.5 13 19.5C9.55324 19.5034 6.24864 20.8742 3.81141 23.3114C1.37419 25.7486 0.0034416 29.0532 0 32.5C0 33.0746 0.228273 33.6257 0.634602 34.0321C1.04093 34.4384 1.59203 34.6667 2.16667 34.6667C2.7413 34.6667 3.2924 34.4384 3.69873 34.0321C4.10506 33.6257 4.33333 33.0746 4.33333 32.5Z" fill="#1E3A8A"/>
</g>
<defs>
<clipPath id="clip0_135_4052">
<rect width="52" height="52" fill="white"/>
</clipPath>
</defs>
</svg>
