<svg width="52" height="52" viewBox="0 0 52 52" fill="none" xmlns="http://www.w3.org/2000/svg">
<path d="M34.6666 13C35.2412 13 35.7923 13.2283 36.1987 13.6346C36.605 14.0409 36.8333 14.592 36.8333 15.1667C36.8333 15.7413 36.605 16.2924 36.1987 16.6987C35.7923 17.1051 35.2412 17.3333 34.6666 17.3333H17.3333C16.7586 17.3333 16.2075 17.1051 15.8012 16.6987C15.3949 16.2924 15.1666 15.7413 15.1666 15.1667C15.1666 14.592 15.3949 14.0409 15.8012 13.6346C16.2075 13.2283 16.7586 13 17.3333 13H34.6666ZM51.3651 51.3652C50.9588 51.7714 50.4078 51.9995 49.8333 51.9995C49.2587 51.9995 48.7077 51.7714 48.3014 51.3652L43.0863 46.15C41.5418 47.1357 39.7488 47.6618 37.9166 47.6667C35.9882 47.6667 34.1032 47.0948 32.4998 46.0235C30.8964 44.9522 29.6467 43.4294 28.9088 41.6478C28.1708 39.8662 27.9777 37.9059 28.3539 36.0145C28.7301 34.1232 29.6587 32.3859 31.0223 31.0224C32.3859 29.6588 34.1231 28.7302 36.0145 28.354C37.9058 27.9778 39.8662 28.1709 41.6477 28.9088C43.4293 29.6468 44.9521 30.8965 46.0234 32.4999C47.0948 34.1032 47.6666 35.9883 47.6666 37.9167C47.6617 39.7489 47.1357 41.5419 46.1499 43.0863L51.3651 48.3015C51.7713 48.7078 51.9995 49.2588 51.9995 49.8333C51.9995 50.4079 51.7713 50.9589 51.3651 51.3652ZM37.9166 43.3333C38.9879 43.3333 40.0352 43.0157 40.9259 42.4205C41.8167 41.8253 42.511 40.9793 42.9209 39.9895C43.3309 38.9998 43.4382 37.9107 43.2292 36.8599C43.0202 35.8092 42.5043 34.844 41.7467 34.0865C40.9892 33.329 40.0241 32.8131 38.9733 32.6041C37.9226 32.3951 36.8335 32.5023 35.8437 32.9123C34.854 33.3223 34.008 34.0166 33.4128 34.9073C32.8176 35.7981 32.4999 36.8454 32.4999 37.9167C32.4999 39.3533 33.0706 40.731 34.0864 41.7468C35.1022 42.7627 36.48 43.3333 37.9166 43.3333ZM28.1666 47.6667H15.1666C13.4427 47.6667 11.7894 46.9818 10.5704 45.7629C9.35141 44.5439 8.66659 42.8906 8.66659 41.1667V10.8333C8.66659 9.10943 9.35141 7.45613 10.5704 6.23714C11.7894 5.01815 13.4427 4.33333 15.1666 4.33333H41.1666C41.7412 4.33333 42.2923 4.56161 42.6987 4.96794C43.105 5.37426 43.3333 5.92536 43.3333 6.5V23.8333C43.3333 24.408 43.5615 24.9591 43.9679 25.3654C44.3742 25.7717 44.9253 26 45.4999 26C46.0746 26 46.6257 25.7717 47.032 25.3654C47.4383 24.9591 47.6666 24.408 47.6666 23.8333V6.5C47.6666 4.77609 46.9818 3.12279 45.7628 1.90381C44.5438 0.684819 42.8905 0 41.1666 0L15.1666 0C12.2945 0.00344036 9.54096 1.14591 7.51006 3.17681C5.47916 5.20771 4.33669 7.96121 4.33325 10.8333V41.1667C4.33669 44.0388 5.47916 46.7923 7.51006 48.8232C9.54096 50.8541 12.2945 51.9966 15.1666 52H28.1666C28.7412 52 29.2923 51.7717 29.6987 51.3654C30.105 50.9591 30.3333 50.408 30.3333 49.8333C30.3333 49.2587 30.105 48.7076 29.6987 48.3013C29.2923 47.8949 28.7412 47.6667 28.1666 47.6667Z" fill="#1E3A8A"/>
</svg>
