<svg width="52" height="52" viewBox="0 0 52 52" fill="none" xmlns="http://www.w3.org/2000/svg">
<path d="M21.6668 21.6667C21.6668 20.4707 22.6353 19.5 23.8335 19.5H28.1668V15.1667C28.1668 13.9707 29.1353 13 30.3335 13C31.5317 13 32.5002 13.9707 32.5002 15.1667V19.5H36.8335C38.0317 19.5 39.0002 20.4707 39.0002 21.6667C39.0002 22.8627 38.0317 23.8333 36.8335 23.8333H32.5002V28.1667C32.5002 29.3627 31.5317 30.3333 30.3335 30.3333C29.1353 30.3333 28.1668 29.3627 28.1668 28.1667V23.8333H23.8335C22.6353 23.8333 21.6668 22.8627 21.6668 21.6667ZM47.6668 10.8333V41.1667C47.6668 47.1402 42.807 52 36.8335 52H13.0002C8.2205 52 4.3335 48.113 4.3335 43.3333V10.8333C4.3335 4.85983 9.19333 0 15.1668 0H36.8335C42.807 0 47.6668 4.85983 47.6668 10.8333ZM36.8335 4.33333H17.3335V34.6667H43.3335V10.8333C43.3335 7.24967 40.4172 4.33333 36.8335 4.33333ZM8.66683 10.8333V35.8302C9.943 35.0913 11.4228 34.6667 13.0002 34.6667V4.706C10.4782 5.60083 8.66683 8.008 8.66683 10.8333ZM43.3335 41.1667V39H13.0002C10.6103 39 8.66683 40.9435 8.66683 43.3333C8.66683 45.7232 10.6103 47.6667 13.0002 47.6667H36.8335C40.4172 47.6667 43.3335 44.7503 43.3335 41.1667Z" fill="#1E3A8A"/>
</svg>
