<svg width="52" height="52" viewBox="0 0 52 52" fill="none" xmlns="http://www.w3.org/2000/svg">
<g clip-path="url(#clip0_137_69)">
<path d="M47.6752 9.74545C47.6774 7.87128 46.5377 6.25711 44.7719 5.63311L30.7644 0.690948C27.7571 -0.372886 24.4464 -0.375052 21.4412 0.677948L7.26472 5.63961C5.49239 6.25928 4.34839 7.87128 4.34839 9.74761C4.34839 11.6261 5.49456 13.2381 7.26689 13.8556L12.9999 15.8554V19.4998C12.9999 26.6693 18.8304 32.4998 25.9999 32.4998C33.1694 32.4998 38.9999 26.6693 38.9999 19.4998V15.8554L43.3332 14.3431V23.8309C43.3332 25.0269 44.3039 25.9976 45.4999 25.9976C46.6959 25.9976 47.6666 25.0269 47.6666 23.8309V9.79745C47.6666 9.77795 47.6752 9.76495 47.6752 9.74545ZM34.6666 19.4998C34.6666 24.2794 30.7796 28.1664 25.9999 28.1664C21.2202 28.1664 17.3332 24.2794 17.3332 19.4998V17.3678L21.3654 18.7739C22.8582 19.2939 24.4291 19.5561 25.9977 19.5561C27.5664 19.5561 29.1351 19.2939 30.6279 18.7739L34.6666 17.3656V19.4976V19.4998ZM29.2022 14.6833C27.1374 15.4048 24.8602 15.4048 22.7954 14.6833L8.69689 9.72811L22.8756 4.76645C23.9112 4.40461 24.9967 4.22261 26.0866 4.22261C27.1829 4.22261 28.2792 4.40678 29.3236 4.77511L43.3311 9.75411L29.2022 14.6833ZM43.2379 49.1896C43.5932 50.3314 42.9541 51.5469 41.8122 51.9023C41.5977 51.9694 41.3811 51.9998 41.1687 51.9998C40.2457 51.9998 39.3899 51.4039 39.0996 50.4744C37.3944 44.9928 32.0102 41.1643 26.0021 41.1643C19.9939 41.1643 14.6097 44.9928 12.9046 50.4744C12.5492 51.6184 11.3272 52.2533 10.1919 51.9001C9.05006 51.5448 8.41089 50.3293 8.76622 49.1874C11.0282 41.9118 18.1154 36.8309 26.0021 36.8309C33.8887 36.8309 40.9759 41.9139 43.2379 49.1896Z" fill="#1E3A8A"/>
</g>
<defs>
<clipPath id="clip0_137_69">
<rect width="52" height="52" fill="white"/>
</clipPath>
</defs>
</svg>
