<svg width="52" height="52" viewBox="0 0 52 52" fill="none" xmlns="http://www.w3.org/2000/svg">
<path d="M43.2228 11.9947L35.6742 4.44167C32.8077 1.57733 28.9987 0 24.9492 0H15.1667C9.19317 0 4.33333 4.85983 4.33333 10.8333V23.8333C4.33333 25.0293 5.30183 26 6.5 26C7.69817 26 8.66667 25.0293 8.66667 23.8333V10.8333C8.66667 7.24967 11.583 4.33333 15.1667 4.33333H24.9492C25.3023 4.33333 25.6533 4.35067 26 4.38317V15.1667C26 18.7503 28.9163 21.6667 32.5 21.6667H43.2835C43.316 22.0133 43.3333 22.3643 43.3333 22.7175V41.1667C43.3333 44.7503 40.417 47.6667 36.8333 47.6667H15.1667C11.583 47.6667 8.66667 44.7503 8.66667 41.1667C8.66667 39.9707 7.69817 39 6.5 39C5.30183 39 4.33333 39.9707 4.33333 41.1667C4.33333 47.1402 9.19317 52 15.1667 52H36.8333C42.8068 52 47.6667 47.1402 47.6667 41.1667V22.7175C47.6667 18.6637 46.0872 14.859 43.2228 11.9947ZM32.5 17.3333C31.304 17.3333 30.3333 16.3605 30.3333 15.1667V5.76117C31.1567 6.2335 31.9215 6.81633 32.6105 7.50533L40.1592 15.0583C40.8482 15.7452 41.431 16.51 41.9033 17.3333H32.4978H32.5ZM22.529 34.6667H2.16667C0.9685 34.6667 0 33.696 0 32.5C0 31.304 0.9685 30.3333 2.16667 30.3333H22.529L19.7275 27.5318C18.8803 26.6847 18.8803 25.3132 19.7275 24.4682C20.5747 23.621 21.944 23.621 22.7912 24.4682L26.286 27.9652C28.7863 30.4655 28.7863 34.5345 26.286 37.037L22.7912 40.534C22.3687 40.9565 21.814 41.1688 21.2593 41.1688C20.7047 41.1688 20.15 40.9565 19.7275 40.534C18.8803 39.689 18.8803 38.3175 19.7275 37.4703L22.529 34.6667Z" fill="#1E3A8A"/>
</svg>
