<svg width="52" height="52" viewBox="0 0 52 52" fill="none" xmlns="http://www.w3.org/2000/svg">
<g clip-path="url(#clip0_135_4138)">
<path d="M52.0001 49.8332C52.0001 50.4078 51.7718 50.959 51.3655 51.3653C50.9591 51.7716 50.408 51.9999 49.8334 51.9999H2.16674C1.5921 51.9999 1.041 51.7716 0.634676 51.3653C0.228347 50.959 7.36965e-05 50.4078 7.36965e-05 49.8332C7.36965e-05 49.2586 0.228347 48.7075 0.634676 48.3011C1.041 47.8948 1.5921 47.6665 2.16674 47.6665H49.8334C50.408 47.6665 50.9591 47.8948 51.3655 48.3011C51.7718 48.7075 52.0001 49.2586 52.0001 49.8332ZM0.630574 18.5292C0.163705 17.6632 -0.0525879 16.6843 0.00596796 15.7023C0.0645238 14.7202 0.395611 13.7739 0.962074 12.9695C1.8878 11.6113 3.12754 10.4964 4.57607 9.71954L20.8282 1.26088C22.4256 0.430243 24.1996 -0.00341797 26.0001 -0.00341797C27.8005 -0.00341797 29.5745 0.430243 31.1719 1.26088L47.4219 9.72604C48.8704 10.5029 50.1102 11.6178 51.0359 12.976C51.6024 13.7804 51.9335 14.7267 51.992 15.7088C52.0506 16.6908 51.8343 17.6697 51.3674 18.5357C50.8648 19.4865 50.1109 20.2812 49.1879 20.8332C48.2649 21.3853 47.2082 21.6735 46.1327 21.6665H45.5001V38.9999H47.6667C48.2414 38.9999 48.7925 39.2281 49.1988 39.6345C49.6051 40.0408 49.8334 40.5919 49.8334 41.1665C49.8334 41.7412 49.6051 42.2923 49.1988 42.6986C48.7925 43.1049 48.2414 43.3332 47.6667 43.3332H4.33341C3.75877 43.3332 3.20767 43.1049 2.80134 42.6986C2.39501 42.2923 2.16674 41.7412 2.16674 41.1665C2.16674 40.5919 2.39501 40.0408 2.80134 39.6345C3.20767 39.2281 3.75877 38.9999 4.33341 38.9999H6.50007V21.6665H5.86741C4.79092 21.6733 3.73325 21.3842 2.80978 20.831C1.88631 20.2778 1.1325 19.4815 0.630574 18.5292ZM10.8334 38.9999H17.3334V21.6665H10.8334V38.9999ZM21.6667 21.6665V38.9999H30.3334V21.6665H21.6667ZM41.1667 21.6665H34.6667V38.9999H41.1667V21.6665ZM4.46991 16.5207C4.60585 16.7713 4.80815 16.9797 5.05465 17.1231C5.30115 17.2664 5.58234 17.3391 5.86741 17.3332H46.1327C46.4178 17.3391 46.699 17.2664 46.9455 17.1231C47.192 16.9797 47.3943 16.7713 47.5302 16.5207C47.6293 16.3551 47.6772 16.1639 47.6679 15.9712C47.6587 15.7785 47.5927 15.5927 47.4782 15.4374C46.9533 14.6572 46.248 14.015 45.4221 13.5654L29.1721 5.10021C28.1928 4.59196 27.1056 4.32665 26.0022 4.32665C24.8989 4.32665 23.8117 4.59196 22.8324 5.10021L6.58241 13.5654C5.75687 14.0165 5.05172 14.6592 4.52624 15.4395C4.4116 15.5943 4.34511 15.7793 4.33509 15.9716C4.32507 16.1639 4.37197 16.3549 4.46991 16.5207Z" fill="#1E3A8A"/>
</g>
<defs>
<clipPath id="clip0_135_4138">
<rect width="52" height="52" fill="white"/>
</clipPath>
</defs>
</svg>
