<svg width="52" height="52" viewBox="0 0 52 52" fill="none" xmlns="http://www.w3.org/2000/svg">
<g clip-path="url(#clip0_135_4150)">
<path d="M32.4913 28.2512L37.401 27.7745C38.532 30.5413 41.2468 32.5 44.4167 32.5C48.5983 32.5 52 29.0983 52 24.9167C52 20.735 48.5983 17.3333 44.4167 17.3333C40.7333 17.3333 37.661 19.9745 36.9807 23.4628L31.655 23.9785C31.1588 22.7998 30.4395 21.7468 29.5815 20.8238L33.566 14.8092C34.2637 15.0215 34.9873 15.1688 35.7522 15.1688C39.9338 15.1688 43.3355 11.7672 43.3355 7.5855C43.3355 3.40383 39.9317 0 35.75 0C31.5683 0 28.1667 3.40167 28.1667 7.58333C28.1667 9.42717 28.8535 11.0955 29.952 12.4128L26.0628 18.2867C24.7152 17.6843 23.2353 17.3333 21.6667 17.3333C20.098 17.3333 18.6182 17.6843 17.2705 18.2867L13.3813 12.4128C14.4798 11.0977 15.1667 9.42717 15.1667 7.58333C15.1667 3.40383 11.765 0 7.58333 0C3.40167 0 0 3.40383 0 7.5855C0 11.7672 3.40167 15.1688 7.58333 15.1688C8.34817 15.1688 9.07183 15.0215 9.7695 14.8092L13.754 20.8238C11.9578 22.7587 10.8355 25.3262 10.8355 28.1688C10.8355 30.6172 11.6827 32.851 13.0563 34.6667L10.647 37.492C9.70883 37.076 8.6775 36.8355 7.58767 36.8355C3.406 36.8355 0.00433333 40.2372 0.00433333 44.4188C0.00433333 48.6005 3.406 52.0022 7.58767 52.0022C11.7693 52.0022 15.171 48.6005 15.171 44.4188C15.171 42.9022 14.7117 41.4938 13.9425 40.3087L16.3128 37.5288C17.8988 38.441 19.7123 39.0043 21.671 39.0043C24.0673 39.0043 26.2622 38.1983 28.0583 36.8767L33.1868 41.3162C32.7578 42.2673 32.5043 43.3138 32.5043 44.4232C32.5043 48.6048 35.906 52.0065 40.0877 52.0065C44.2693 52.0065 47.671 48.6048 47.671 44.4232C47.671 40.2415 44.2693 36.8398 40.0877 36.8398C38.5905 36.8398 37.2017 37.2905 36.0252 38.0423L30.9595 33.6592C31.9042 32.0667 32.4805 30.2337 32.4957 28.2577L32.4913 28.2512ZM44.4167 21.6688C46.2085 21.6688 47.6667 23.127 47.6667 24.9188C47.6667 26.7107 46.2085 28.1688 44.4167 28.1688C42.6248 28.1688 41.1667 26.7107 41.1667 24.9188C41.1667 23.127 42.6248 21.6688 44.4167 21.6688ZM35.75 4.3355C37.5418 4.3355 39 5.79367 39 7.5855C39 9.37733 37.5418 10.8355 35.75 10.8355C33.9582 10.8355 32.5 9.37733 32.5 7.5855C32.5 5.79367 33.9582 4.3355 35.75 4.3355ZM4.33333 7.5855C4.33333 5.79367 5.7915 4.3355 7.58333 4.3355C9.37517 4.3355 10.8333 5.79367 10.8333 7.5855C10.8333 9.37733 9.37517 10.8355 7.58333 10.8355C5.7915 10.8355 4.33333 9.37733 4.33333 7.5855ZM7.58333 47.6688C5.7915 47.6688 4.33333 46.2107 4.33333 44.4188C4.33333 42.627 5.7915 41.1688 7.58333 41.1688C9.37517 41.1688 10.8333 42.627 10.8333 44.4188C10.8333 46.2107 9.37517 47.6688 7.58333 47.6688ZM15.1667 28.1688C15.1667 24.5852 18.083 21.6688 21.6667 21.6688C25.2503 21.6688 28.1667 24.5852 28.1667 28.1688C28.1667 31.7525 25.2503 34.6688 21.6667 34.6688C18.083 34.6688 15.1667 31.7525 15.1667 28.1688ZM43.3333 44.4188C43.3333 46.2107 41.8752 47.6688 40.0833 47.6688C38.2915 47.6688 36.8333 46.2107 36.8333 44.4188C36.8333 42.627 38.2915 41.1688 40.0833 41.1688C41.8752 41.1688 43.3333 42.627 43.3333 44.4188Z" fill="#1E3A8A"/>
</g>
<defs>
<clipPath id="clip0_135_4150">
<rect width="52" height="52" fill="white"/>
</clipPath>
</defs>
</svg>
