<svg width="47" height="47" viewBox="0 0 47 47" fill="none" xmlns="http://www.w3.org/2000/svg">
<path d="M21.5482 6.55667C19.6246 7.33188 14.4352 9.44045 14.0641 9.60169C13.3776 9.89317 13.4456 10.2901 14.2188 10.5816C14.4043 10.6498 15.2579 10.9909 16.1052 11.3382C16.9588 11.6854 18.8329 12.442 20.2802 13.025C22.9027 14.0793 22.9027 14.0793 23.4037 14.0793L23.8985 14.0855L28.1353 12.38C30.4671 11.4436 32.5268 10.625 32.7123 10.5505C33.3865 10.2963 33.4298 9.90557 32.8113 9.6327C32.2794 9.39704 28.1106 7.70398 25.8716 6.81714C23.2243 5.76906 23.4655 5.78147 21.5482 6.55667Z" fill="#284EB8"/>
<path d="M12.3076 11.1893C12.1777 11.3506 12.1777 11.4064 12.1777 14.9537V18.5507L12.3323 18.8174C12.4189 18.96 12.5735 19.1336 12.6849 19.2019C12.889 19.3259 21.5296 22.8608 22.0863 23.0469C22.3213 23.1275 22.4017 23.1275 22.5563 23.0655C22.9398 22.9043 22.9398 22.9229 22.9398 19.2019C22.9398 17.0189 22.9151 15.7537 22.8718 15.5987C22.7357 15.1088 22.4883 14.9289 21.2203 14.4204C20.206 14.0111 17.3484 12.8452 13.9714 11.4684C12.7529 10.9723 12.5117 10.9351 12.3076 11.1893Z" fill="#284EB8"/>
<path d="M33.702 11.1273C33.5844 11.1831 32.8484 11.4808 32.0629 11.8033C31.2836 12.1196 30.2506 12.5413 29.7744 12.7335C29.2981 12.9258 27.9374 13.4777 26.7437 13.9553C24.517 14.8483 24.2944 14.9723 24.0779 15.3816C24.0037 15.5181 23.9913 16.163 23.9913 19.1398C23.9913 22.6438 23.9913 22.7368 24.115 22.8918C24.3748 23.2205 24.2944 23.2453 28.6982 21.4593C30.9557 20.5414 33.0834 19.6856 33.4174 19.5553C34.0978 19.2949 34.4071 19.0592 34.5741 18.6871C34.6792 18.4577 34.6916 18.191 34.6916 14.9847C34.6916 13.0374 34.6668 11.4684 34.6359 11.3816C34.4998 11.0219 34.1535 10.9288 33.702 11.1273Z" fill="#284EB8"/>
<path d="M11.0025 20.2251C10.8479 20.2748 9.32014 20.8825 7.60067 21.5833C1.37223 24.126 1.66293 23.9957 1.56397 24.188C1.39079 24.5291 1.56397 24.6779 2.68348 25.1245C3.15974 25.3167 4.02566 25.664 4.60088 25.8997C11.1448 28.5726 11.0582 28.5416 11.5592 28.5416C12.0787 28.5354 11.2808 28.8392 18.5236 25.8935C19.9957 25.2919 21.276 24.7648 21.3812 24.7089C21.5976 24.5973 21.6657 24.3989 21.5605 24.1756C21.4987 24.0516 21.2389 23.9213 20.0946 23.4562C19.3277 23.1461 17.8989 22.5632 16.9093 22.1601C12.2828 20.281 12.054 20.1941 11.6581 20.1693C11.4478 20.1569 11.1571 20.1817 11.0025 20.2251Z" fill="#284EB8"/>
<path d="M34.9081 20.2003C34.6421 20.2686 28.024 22.9539 26.187 23.7353C25.4015 24.064 25.2469 24.2252 25.4139 24.5291C25.519 24.7151 25.5747 24.74 32.3289 27.4749C34.84 28.492 34.9575 28.5292 35.3905 28.5354C35.8296 28.5416 35.8729 28.5292 38.4645 27.4811C44.0188 25.2361 45.2311 24.7276 45.3424 24.6283C45.4846 24.4981 45.4846 24.2252 45.3424 24.095C45.2372 24.002 44.2291 23.5802 38.5016 21.2484C36.2317 20.3244 35.8668 20.1941 35.5018 20.1755C35.2792 20.1631 35.0132 20.1693 34.9081 20.2003Z" fill="#284EB8"/>
<path d="M0.141391 25.6082C0.0300588 25.7322 0.0238737 25.8997 0.00531826 29.5462C-0.00705202 33.1928 -0.00705201 33.3603 0.110466 33.5835C0.326945 34.0114 0.0919104 33.8998 4.78643 35.8037C6.07912 36.3247 7.78622 37.0192 8.57792 37.3479C10.0685 37.9619 10.3407 38.0425 10.6005 37.9805C10.9406 37.8937 10.9406 37.8937 10.9406 33.9432C10.9406 29.9804 10.9468 30.061 10.5819 29.6765C10.3592 29.4408 10.3098 29.416 8.63977 28.7276C7.84807 28.4051 6.90793 28.0144 6.5492 27.8656C2.25052 26.0795 0.722794 25.478 0.500129 25.478C0.333131 25.478 0.221798 25.5152 0.141391 25.6082Z" fill="#284EB8"/>
<path d="M21.7028 25.7322C21.1832 25.9555 20.039 26.4268 14.2002 28.8268C12.6416 29.4718 12.4374 29.5958 12.2333 30.0362C12.1282 30.2656 12.1158 30.5137 12.1158 33.8502C12.1158 36.027 12.1406 37.503 12.1777 37.6394C12.2581 37.9185 12.4622 38.0363 12.7776 37.9805C12.9075 37.9619 13.6683 37.6766 14.4662 37.3541C15.2641 37.0254 16.699 36.4425 17.6515 36.0518C18.604 35.6673 19.705 35.2208 20.0946 35.0595C20.4843 34.8983 21.1832 34.613 21.6409 34.4269C22.0986 34.2409 22.544 34.0238 22.6182 33.9556C22.9707 33.6331 22.9584 33.7572 22.946 29.8191C22.946 27.8222 22.9398 26.0857 22.9398 25.9555C22.9398 25.664 22.7666 25.4779 22.4945 25.4779C22.3831 25.4841 22.0244 25.5958 21.7028 25.7322Z" fill="#284EB8"/>
<path d="M24.115 25.6144C23.9913 25.7446 23.9913 25.8128 23.9913 29.6145C23.9913 33.7758 23.9851 33.6517 24.3129 33.9556C24.3871 34.0238 25.0428 34.3215 25.754 34.613C26.4715 34.9045 27.9869 35.5184 29.1249 35.9774C30.263 36.4425 31.8526 37.0875 32.6505 37.41C34.3452 38.1045 34.5864 38.1417 34.7843 37.751C34.8648 37.6022 34.8771 37.0068 34.8771 33.9246V30.2718L34.7349 30.0052C34.4689 29.4966 34.5926 29.5586 30.0775 27.723C29.1621 27.3509 27.758 26.7741 26.9601 26.4392C24.7397 25.5152 24.6531 25.4842 24.4428 25.4779C24.3129 25.4779 24.1954 25.5276 24.115 25.6144Z" fill="#284EB8"/>
<path d="M44.8971 26.0299C44.1672 26.3276 42.0519 27.1958 40.1963 27.9586C38.3408 28.7152 36.7265 29.4036 36.6028 29.4842C36.4853 29.5648 36.3183 29.7509 36.2317 29.8997L36.0832 30.1602L36.0647 33.7448C36.0523 36.1634 36.0709 37.4038 36.1142 37.5712C36.2007 37.8875 36.411 38.0363 36.7017 37.9867C36.8254 37.9681 37.444 37.7386 38.081 37.4782C38.7181 37.2115 40.6417 36.4301 42.3611 35.7293C44.0806 35.0347 45.7259 34.3649 46.0227 34.2409C46.3196 34.1231 46.6165 33.9618 46.6846 33.8874C47 33.5525 47 33.5649 47 29.6207C47 26.2408 46.9938 25.9245 46.8887 25.726C46.7959 25.5338 46.7526 25.509 46.5052 25.4966C46.2763 25.4842 45.9918 25.5772 44.8971 26.0299Z" fill="#284EB8"/>
</svg>
