<svg width="52" height="52" viewBox="0 0 52 52" fill="none" xmlns="http://www.w3.org/2000/svg">
<g clip-path="url(#clip0_135_4130)">
<path d="M50.0955 1.9045C47.5605 -0.6305 43.4395 -0.6305 40.9045 1.9045L26.3727 16.4363C24.7347 18.0722 23.8333 20.2497 23.8333 22.5637V26C23.8333 27.196 24.8018 28.1667 26 28.1667H29.4363C31.7503 28.1667 33.9278 27.2632 35.5637 25.6273L50.0955 11.0955C52.6175 8.67533 52.6175 4.32467 50.0955 1.9045ZM47.0318 8.03183L32.5 22.5637C31.681 23.3827 30.5933 23.8333 29.4363 23.8333H28.1667V22.5637C28.1667 21.424 28.6303 20.306 29.4363 19.5L43.9682 4.96817C44.8153 4.12317 46.1847 4.12317 47.0318 4.96817C47.8725 5.77417 47.8725 7.22583 47.0318 8.03183ZM26 39C24.8018 39 23.8333 38.0315 23.8333 36.8333C23.8333 35.6352 24.8018 34.6667 26 34.6667H32.5C33.6982 34.6667 34.6667 35.6352 34.6667 36.8333C34.6667 38.0315 33.6982 39 32.5 39H26ZM43.3333 30.3333V41.1667C43.3333 47.1402 38.4735 52 32.5 52H10.8333C4.85983 52 0 47.1402 0 41.1667V10.8333C0 4.85983 4.85983 0 10.8333 0H30.3333C31.5315 0 32.5 0.970667 32.5 2.16667C32.5 3.36267 31.5315 4.33333 30.3333 4.33333H10.8333C7.24967 4.33333 4.33333 7.24967 4.33333 10.8333V41.1667C4.33333 44.7503 7.24967 47.6667 10.8333 47.6667H32.5C36.0837 47.6667 39 44.7503 39 41.1667V30.3333C39 29.1352 39.9685 28.1667 41.1667 28.1667C42.3648 28.1667 43.3333 29.1352 43.3333 30.3333ZM19.8618 25.2785L16.2067 28.9337C15.2728 29.8675 14.0508 30.3377 12.8245 30.3377C11.6697 30.3377 10.5148 29.9195 9.594 29.0767L8.1445 27.8222C7.241 27.0378 7.1435 25.6685 7.92567 24.765C8.71217 23.8572 10.0793 23.7662 10.9828 24.5462L12.4757 25.8418C12.6988 26.0433 12.9697 26.0412 13.1408 25.87L16.796 22.2148C17.6432 21.3677 19.0125 21.3677 19.8597 22.2148C20.7068 23.062 20.709 24.4313 19.8618 25.2785ZM19.8618 14.5318L16.2067 18.187C15.2728 19.1208 14.0508 19.591 12.8245 19.591C11.6697 19.591 10.5148 19.1728 9.594 18.33L8.1445 17.0755C7.241 16.2912 7.1435 14.9218 7.92567 14.0183C8.71217 13.1127 10.0793 13.0195 10.9828 13.7995L12.4757 15.0952C12.6988 15.2988 12.9697 15.2945 13.1408 15.1233L16.796 11.4682C17.6432 10.621 19.0125 10.621 19.8597 11.4682C20.7068 12.3153 20.709 13.6847 19.8618 14.5318ZM19.8618 33.0482C20.709 33.8953 20.709 35.2647 19.8618 36.1118L16.2067 39.767C15.2728 40.7008 14.0508 41.171 12.8245 41.171C11.6697 41.171 10.5148 40.7528 9.594 39.91L8.1445 38.6555C7.241 37.8712 7.1435 36.504 7.92567 35.5983C8.71217 34.6948 10.0793 34.5973 10.9828 35.3795L12.4757 36.6752C12.6988 36.8767 12.9697 36.8745 13.1408 36.7033L16.796 33.0482C17.6432 32.201 19.0147 32.201 19.8618 33.0482Z" fill="#1E3A8A"/>
</g>
<defs>
<clipPath id="clip0_135_4130">
<rect width="52" height="52" fill="white"/>
</clipPath>
</defs>
</svg>
