<svg width="52" height="52" viewBox="0 0 52 52" fill="none" xmlns="http://www.w3.org/2000/svg">
<g clip-path="url(#clip0_135_4142)">
<path d="M6.5 36.8334C7.69817 36.8334 8.66667 35.8649 8.66667 34.6667C8.66667 33.4686 9.63733 32.5001 10.8333 32.5001H23.8333V34.6667C23.8333 35.8649 24.8018 36.8334 26 36.8334C27.1982 36.8334 28.1667 35.8649 28.1667 34.6667V32.5001H41.1667C42.3627 32.5001 43.3333 33.4707 43.3333 34.6667C43.3333 35.8627 44.3018 36.8334 45.5 36.8334C46.6982 36.8334 47.6667 35.8649 47.6667 34.6667C47.6667 31.0831 44.7503 28.1667 41.1667 28.1667H28.1667V25.7812C30.5067 25.3046 32.5758 24.0696 34.1033 22.3471L36.1747 23.5431C36.5148 23.7402 36.8875 23.8334 37.2558 23.8334C38.0055 23.8334 38.7335 23.4456 39.1343 22.7501C39.7323 21.7122 39.377 20.3884 38.3413 19.7904L36.2765 18.5987C36.6383 17.5197 36.8333 16.3671 36.8333 15.1689C36.8333 13.9707 36.6362 12.8159 36.2765 11.7391L38.3413 10.5474C39.3792 9.9494 39.7345 8.62339 39.1343 7.58773C38.5342 6.54989 37.206 6.19456 36.1747 6.79473L34.1033 7.99073C32.5737 6.26823 30.5067 5.03323 28.1667 4.55656V2.17106C28.1667 0.975061 27.1982 0.00439453 26 0.00439453C24.8018 0.00439453 23.8333 0.975061 23.8333 2.17106V4.55656C21.4933 5.03323 19.4242 6.26823 17.8967 7.99073L15.8253 6.79473C14.7875 6.19456 13.4637 6.54989 12.8657 7.58773C12.2677 8.62556 12.623 9.9494 13.6587 10.5474L15.7235 11.7391C15.3617 12.8181 15.1667 13.9707 15.1667 15.1689C15.1667 16.3671 15.3638 17.5219 15.7235 18.5987L13.6587 19.7904C12.6208 20.3884 12.2655 21.7144 12.8657 22.7501C13.2687 23.4456 13.9945 23.8334 14.7442 23.8334C15.1125 23.8334 15.4852 23.7402 15.8253 23.5431L17.8967 22.3471C19.4263 24.0696 21.4933 25.3046 23.8333 25.7812V28.1667H10.8333C7.24967 28.1667 4.33333 31.0831 4.33333 34.6667C4.33333 35.8649 5.30183 36.8334 6.5 36.8334ZM19.5 15.1667C19.5 11.5831 22.4163 8.66673 26 8.66673C29.5837 8.66673 32.5 11.5831 32.5 15.1667C32.5 18.7504 29.5837 21.6667 26 21.6667C22.4163 21.6667 19.5 18.7504 19.5 15.1667ZM28.1667 39.0001H23.8333C21.4435 39.0001 19.5 40.9436 19.5 43.3334V47.6667C19.5 50.0566 21.4435 52.0001 23.8333 52.0001H28.1667C30.5565 52.0001 32.5 50.0566 32.5 47.6667V43.3334C32.5 40.9436 30.5565 39.0001 28.1667 39.0001ZM28.1667 47.6667H23.8333V43.3334H28.1667V47.6667ZM47.6667 39.0001H43.3333C40.9435 39.0001 39 40.9436 39 43.3334V47.6667C39 50.0566 40.9435 52.0001 43.3333 52.0001H47.6667C50.0565 52.0001 52 50.0566 52 47.6667V43.3334C52 40.9436 50.0565 39.0001 47.6667 39.0001ZM47.6667 47.6667H43.3333V43.3334H47.6667V47.6667ZM8.66667 39.0001H4.33333C1.9435 39.0001 0 40.9436 0 43.3334V47.6667C0 50.0566 1.9435 52.0001 4.33333 52.0001H8.66667C11.0565 52.0001 13 50.0566 13 47.6667V43.3334C13 40.9436 11.0565 39.0001 8.66667 39.0001ZM8.66667 47.6667H4.33333V43.3334H8.66667V47.6667Z" fill="#1E3A8A"/>
</g>
<defs>
<clipPath id="clip0_135_4142">
<rect width="52" height="52" fill="white"/>
</clipPath>
</defs>
</svg>
