<svg width="52" height="52" viewBox="0 0 52 52" fill="none" xmlns="http://www.w3.org/2000/svg">
<g clip-path="url(#clip0_135_72)">
<path d="M51.9998 2.16667V49.8333C51.9998 51.0315 51.0313 52 49.8332 52C48.635 52 47.6665 51.0315 47.6665 49.8333V26.026C47.647 27.1115 47.231 28.1927 46.4033 29.0203L39.4722 36.1747C39.0497 36.6145 38.482 36.8355 37.9165 36.8355C37.3727 36.8355 36.8288 36.6318 36.4107 36.2245C35.5505 35.3925 35.5288 34.021 36.363 33.163L41.199 28.1688H10.8223L15.6388 33.163C16.473 34.021 16.4513 35.3925 15.5912 36.2245C15.173 36.6318 14.6292 36.8355 14.0853 36.8355C13.5198 36.8355 12.9543 36.6145 12.5297 36.1747L5.57467 28.9965C4.76217 28.1862 4.35267 27.1158 4.33533 26.0368V49.8355C4.33533 51.0337 3.36683 52.0022 2.16867 52.0022C0.970501 52.0022 0.00200062 51.0337 0.00200062 49.8355V2.16667C-0.000166044 0.9685 0.968334 0 2.1665 0C3.36467 0 4.33317 0.9685 4.33317 2.16667V25.8743C4.35483 24.7932 4.77083 23.7163 5.59633 22.893L12.5362 15.8167C13.3725 14.963 14.7483 14.9478 15.5998 15.7863C16.4557 16.6248 16.4665 17.9963 15.6302 18.85L10.7422 23.8333H41.225L36.3695 18.85C35.531 17.9942 35.544 16.6248 36.3998 15.7863C37.2513 14.9457 38.6228 14.963 39.4635 15.8167L46.4185 22.906C47.2375 23.725 47.6513 24.8018 47.6665 25.8873V2.16667C47.6665 0.9685 48.635 0 49.8332 0C51.0313 0 51.9998 0.9685 51.9998 2.16667Z" fill="#1E3A8A"/>
</g>
<defs>
<clipPath id="clip0_135_72">
<rect width="52" height="52" fill="white"/>
</clipPath>
</defs>
</svg>
