<svg width="24" height="24" viewBox="0 0 24 24" fill="none" xmlns="http://www.w3.org/2000/svg">
<g clip-path="url(#clip0_135_110)">
<path d="M16.232 8.68085L12.997 12.1569C12.446 12.7099 11.746 12.9999 11 12.9999C10.254 12.9999 9.55501 12.7099 9.02801 12.1829L7.55201 10.7069C7.16102 10.3159 7.16102 9.68385 7.55201 9.29285C7.94301 8.90185 8.57501 8.90185 8.96601 9.29285L10.442 10.7689C10.74 11.0669 11.26 11.0669 11.557 10.7689L14.768 7.31885C15.145 6.91385 15.778 6.89285 16.181 7.26785C16.585 7.64385 16.608 8.27685 16.232 8.68085ZM23.925 20.1309C23.699 20.6739 23.196 21.0109 22.609 21.0109H21.047V22.5729C21.047 23.4659 20.318 23.9999 19.612 23.9999C19.235 23.9999 18.89 23.8549 18.615 23.5799L14.249 19.2139C14.249 19.2139 14.246 19.2079 14.243 19.2049C14.076 19.3389 13.912 19.4759 13.718 19.5839C13.196 19.8739 12.61 20.0189 12.025 20.0189C11.44 20.0189 10.854 19.8739 10.331 19.5839C10.134 19.4749 9.96601 19.3358 9.79601 19.1989C9.79201 19.2038 9.79001 19.2099 9.78601 19.2149L5.42001 23.5809C5.14601 23.8559 4.80101 24.0009 4.42301 24.0009C3.71801 24.0009 2.98901 23.4669 2.98901 22.5739V21.0119H1.42701C0.840015 21.0119 0.336015 20.6759 0.111015 20.1339C-0.113985 19.5899 0.00501475 18.9959 0.420015 18.5809L3.96101 15.0409C3.90501 14.6189 3.91801 14.1979 4.01201 13.7849C4.07701 13.4999 3.94001 13.1929 3.67201 13.0199C3.17301 12.6979 2.76901 12.2609 2.47001 11.7229C2.18501 11.2079 2.03501 10.6179 2.03801 10.0139C2.03501 9.41885 2.18401 8.82785 2.47001 8.31285C2.76801 7.77385 3.17301 7.33685 3.67201 7.01585C3.94001 6.84285 4.07701 6.53585 4.01201 6.25185C3.87801 5.65885 3.89801 5.05185 4.07101 4.44685C4.40101 3.29885 5.31802 2.38185 6.46601 2.05185C7.07001 1.87885 7.67701 1.85885 8.26901 1.99285C8.55601 2.05585 8.86101 1.91985 9.03401 1.65185C9.35501 1.15385 9.79202 0.749852 10.331 0.450852C11.375 -0.128148 12.673 -0.128148 13.718 0.450852C14.257 0.749852 14.693 1.15385 15.014 1.65285C15.187 1.92085 15.497 2.05885 15.779 1.99285C16.37 1.85785 16.978 1.87885 17.583 2.05185C18.731 2.38185 19.649 3.29885 19.979 4.44685C20.152 5.05285 20.172 5.66085 20.038 6.25285C19.974 6.53685 20.11 6.84385 20.378 7.01685C20.877 7.33885 21.282 7.77485 21.58 8.31385C21.865 8.82885 22.015 9.41885 22.012 10.0229C22.015 10.6179 21.866 11.2089 21.58 11.7239C21.282 12.2619 20.877 12.6989 20.379 13.0209C20.11 13.1939 19.973 13.5009 20.038 13.7859C20.133 14.2029 20.147 14.6279 20.088 15.0549L23.616 18.5829C24.031 18.9979 24.149 19.5919 23.925 20.1339V20.1309ZM8.10401 18.0679C7.56501 18.1639 7.01501 18.1389 6.46601 17.9829C5.84001 17.8039 5.29401 17.4379 4.86301 16.9659L2.81801 19.0109H3.99001C4.54201 19.0109 4.99001 19.4589 4.99001 20.0109V21.1819L8.10501 18.0669L8.10401 18.0679ZM16.222 16.0909C16.481 16.1499 16.754 16.1389 17.033 16.0599C17.516 15.9219 17.918 15.5199 18.057 15.0369C18.136 14.7589 18.147 14.4859 18.088 14.2259C17.838 13.1249 18.323 11.9649 19.295 11.3379C19.514 11.1959 19.695 10.9989 19.832 10.7519C19.951 10.5369 20.014 10.2839 20.013 10.0209C20.014 9.74985 19.951 9.49685 19.832 9.28085C19.695 9.03285 19.515 8.83585 19.295 8.69485C18.323 8.06785 17.839 6.90785 18.088 5.80785C18.147 5.54785 18.137 5.27485 18.057 4.99585C17.919 4.51385 17.516 4.11185 17.033 3.97285C16.756 3.89285 16.483 3.88385 16.222 3.94185C15.125 4.19385 13.963 3.70785 13.335 2.73585C13.194 2.51685 12.997 2.33585 12.75 2.19885C12.31 1.95485 11.741 1.95585 11.302 2.19885C11.054 2.33685 10.857 2.51685 10.716 2.73585C10.09 3.70685 8.93102 4.19385 7.82801 3.94285C7.56701 3.88385 7.29601 3.89385 7.01801 3.97385C6.53502 4.11285 6.13201 4.51385 5.99401 4.99685C5.91401 5.27485 5.90401 5.54785 5.96301 5.80885C6.21301 6.90785 5.72801 8.06885 4.75601 8.69585C4.53701 8.83685 4.35701 9.03385 4.22001 9.28185C4.10001 9.49785 4.03701 9.75085 4.03901 10.0129C4.03801 10.2839 4.10101 10.5369 4.22001 10.7529C4.35801 11.0009 4.53801 11.1979 4.75801 11.3399C5.72901 11.9659 6.21402 13.1269 5.96402 14.2269C5.90501 14.4859 5.91601 14.7599 5.99601 15.0389C6.13501 15.5209 6.53602 15.9229 7.01901 16.0609C7.29601 16.1409 7.56902 16.1509 7.82801 16.0919C8.02102 16.0489 8.21601 16.0269 8.40901 16.0269C9.31901 16.0269 10.2 16.4969 10.717 17.2979C10.859 17.5169 11.056 17.6968 11.303 17.8349C11.742 18.0788 12.31 18.0788 12.751 17.8349C12.998 17.6979 13.195 17.5169 13.336 17.2979C13.964 16.3269 15.127 15.8409 16.224 16.0909H16.222ZM21.219 19.0109L19.181 16.9729C18.751 17.4419 18.207 17.8039 17.583 17.9819C17.028 18.1399 16.473 18.1639 15.93 18.0649L19.047 21.1819V20.0109C19.047 19.4589 19.495 19.0109 20.047 19.0109H21.219Z" fill="#3B82F6"/>
</g>
<defs>
<clipPath id="clip0_135_110">
<rect width="24" height="24" fill="white"/>
</clipPath>
</defs>
</svg>
