<svg width="56" height="56" viewBox="0 0 56 56" fill="none" xmlns="http://www.w3.org/2000/svg">
<path d="M27.1016 11.461C25.2969 12.5782 11.0547 21.7188 10.8984 21.8594C10.5156 22.2032 10.5 22.3282 10.5 25.3204C10.5 27.9766 10.5078 28.125 10.6641 28.4375C10.7812 28.6797 10.9141 28.8125 11.1562 28.9297C11.6016 29.1485 11.8125 29.1329 12.3047 28.8672C12.5391 28.75 16.0781 26.5 20.1797 23.8672C27.3125 19.3047 27.6562 19.0938 28 19.0938C28.3516 19.0938 28.7031 19.3125 36.125 24.0547C41 27.1719 43.9766 29.0313 44.1484 29.0625C44.5781 29.1407 45.1016 28.8907 45.3203 28.5079C45.4922 28.2032 45.5 28.1563 45.5 25.3047C45.5 22.0782 45.5078 22.1563 44.9375 21.7266C44.6875 21.5391 29.6406 11.9063 28.7891 11.3828C28.1641 11.0078 27.8047 11.0235 27.1016 11.461Z" fill="url(#paint0_linear_314_732)"/>
<path d="M27.4921 27.0547C26.8593 27.3594 10.8515 37.6719 10.6953 37.875C10.5468 38.0781 10.539 38.2109 10.5156 41.0312C10.4999 43.7187 10.5078 44 10.6328 44.25C10.9453 44.8594 11.7031 45.0547 12.3359 44.6953C12.5078 44.5937 15.9921 42.375 20.0703 39.7578C24.1562 37.1484 27.6093 34.9687 27.7499 34.9297C27.914 34.875 28.0859 34.875 28.2578 34.9297C28.3984 34.9687 31.5468 36.9531 35.2656 39.3281C44.7812 45.4141 43.8906 44.875 44.3281 44.875C44.7734 44.875 45.164 44.6406 45.3671 44.25C45.4921 44 45.4999 43.7187 45.4843 41.0312C45.4609 38.1797 45.4531 38.0859 45.2968 37.8672C45.1406 37.6562 29.1562 27.3594 28.5078 27.0547C28.1171 26.8672 27.8828 26.875 27.4921 27.0547Z" fill="url(#paint1_linear_314_732)"/>
<defs>
<linearGradient id="paint0_linear_314_732" x1="28" y1="11.1162" x2="28" y2="29.0813" gradientUnits="userSpaceOnUse">
<stop stop-color="#3B82F6"/>
<stop offset="1" stop-color="#0950C3"/>
</linearGradient>
<linearGradient id="paint1_linear_314_732" x1="27.9999" y1="26.917" x2="27.9999" y2="44.8872" gradientUnits="userSpaceOnUse">
<stop stop-color="#3B82F6"/>
<stop offset="1" stop-color="#0950C3"/>
</linearGradient>
</defs>
</svg>
