<svg width="96" height="96" viewBox="0 0 96 96" fill="none" xmlns="http://www.w3.org/2000/svg">
<path d="M96 72H71.9931V95.9998H96V72Z" fill="#1E3A8A"/>
<path d="M24.0068 56.7257C24.0068 50.1803 26.165 47.9985 32.7124 47.9985H47.9652L47.9894 24.0229H24.0068V39.2713C24.0068 45.8167 21.8002 48.0227 15.2528 48.0227H0V95.998H47.9894L48.0379 71.974L25.8013 71.9982C24.8313 71.9982 24.0311 71.2225 24.0311 70.2528L24.0068 56.7257Z" fill="#1E3A8A"/>
<path d="M19.3754 23.9998H4.60756C2.06138 23.9998 0.000183105 21.9392 0.000183105 19.3938V4.60602C0.000183105 2.06059 2.06138 0 4.60756 0H19.3754C21.9216 0 23.9828 2.06059 23.9828 4.60602V19.3938C23.9828 21.9392 21.9216 23.9998 19.3754 23.9998Z" fill="#1E3A8A"/>
<path d="M95.9804 24C95.9804 8.67891 87.0809 -0.0482834 71.9008 0.000200948L47.9667 0.0486853V24.0485L67.6087 24.0242C69.7911 24.0242 71.9735 26.206 71.9735 28.3878C71.9735 30.5696 71.9735 32.7514 71.9735 39.2968C71.9735 45.8422 69.7911 48.024 63.2438 48.024C63.2195 48.024 54.514 48.024 54.514 48.024C50.1491 48.024 47.991 50.2058 47.991 54.5694L47.9667 65.4784C47.9667 69.842 50.1491 72.0238 54.514 72.0238H65.4262C69.7911 72.0238 71.9735 69.842 71.9735 65.4784V56.7512C71.9735 50.2058 74.156 48.024 80.7033 48.024L95.9561 48.0482V24H95.9804Z" fill="#1E3A8A"/>
</svg>
