<svg width="304" height="34" viewBox="0 0 304 34" fill="none" xmlns="http://www.w3.org/2000/svg">
<path d="M21.5482 1.55663C19.6246 2.33184 14.4353 4.4404 14.0642 4.60165C13.3776 4.89312 13.4457 5.29003 14.2188 5.58151C14.4044 5.64973 15.2579 5.99082 16.1053 6.33811C16.9588 6.68541 18.8329 7.44201 20.2803 8.02496C22.9028 9.07925 22.9028 9.07925 23.4038 9.07925L23.8986 9.08545L28.1354 7.37999C30.4672 6.44354 32.5268 5.62492 32.7124 5.5505C33.3866 5.29623 33.4299 4.90553 32.8113 4.63265C32.2794 4.39699 28.1106 2.70394 25.8716 1.8171C23.2244 0.769018 23.4656 0.781422 21.5482 1.55663Z" fill="#FEFEFE"/>
<path d="M12.3075 6.18926C12.1776 6.3505 12.1776 6.40632 12.1776 9.95367V13.5506L12.3322 13.8173C12.4188 13.9599 12.5735 14.1336 12.6848 14.2018C12.8889 14.3258 21.5295 17.8608 22.0862 18.0468C22.3212 18.1275 22.4016 18.1275 22.5563 18.0654C22.9398 17.9042 22.9398 17.9228 22.9398 14.2018C22.9398 12.0188 22.915 10.7537 22.8717 10.5986C22.7356 10.1087 22.4882 9.92886 21.2203 9.42033C20.2059 9.01102 17.3484 7.84511 13.9713 6.46834C12.7528 5.9722 12.5116 5.93499 12.3075 6.18926Z" fill="#FEFEFE"/>
<path d="M33.702 6.12719C33.5845 6.183 32.8485 6.48068 32.0629 6.80317C31.2836 7.11945 30.2507 7.54117 29.7744 7.73342C29.2982 7.92567 27.9375 8.47762 26.7437 8.95515C24.5171 9.84819 24.2944 9.97222 24.0779 10.3815C24.0037 10.518 23.9913 11.1629 23.9913 14.1397C23.9913 17.6437 23.9913 17.7367 24.115 17.8917C24.3748 18.2204 24.2944 18.2452 28.6982 16.4592C30.9558 15.5413 33.0835 14.6855 33.4175 14.5552C34.0978 14.2948 34.4071 14.0591 34.5741 13.687C34.6793 13.4576 34.6916 13.1909 34.6916 9.98462C34.6916 8.0373 34.6669 6.46828 34.636 6.38146C34.4999 6.02176 34.1535 5.92873 33.702 6.12719Z" fill="#FEFEFE"/>
<path d="M11.0025 15.2247C10.8478 15.2743 9.32012 15.882 7.60065 16.5828C1.37221 19.1255 1.66292 18.9953 1.56395 19.1875C1.39077 19.5286 1.56395 19.6775 2.68346 20.124C3.15972 20.3162 4.02564 20.6635 4.60086 20.8992C11.1447 23.5721 11.0581 23.5411 11.5591 23.5411C12.0787 23.5349 11.2808 23.8388 18.5236 20.893C19.9957 20.2914 21.276 19.7643 21.3811 19.7085C21.5976 19.5968 21.6657 19.3984 21.5605 19.1751C21.4987 19.0511 21.2389 18.9209 20.0946 18.4557C19.3277 18.1456 17.8989 17.5627 16.9093 17.1596C12.2828 15.2805 12.0539 15.1937 11.6581 15.1688C11.4478 15.1564 11.1571 15.1813 11.0025 15.2247Z" fill="#FEFEFE"/>
<path d="M34.908 15.1999C34.6421 15.2681 28.024 17.9534 26.187 18.7349C25.4015 19.0635 25.2468 19.2248 25.4138 19.5287C25.519 19.7147 25.5746 19.7395 32.3288 22.4745C34.84 23.4915 34.9575 23.5287 35.3905 23.5349C35.8296 23.5411 35.8729 23.5287 38.4645 22.4807C44.0187 20.2357 45.231 19.7271 45.3423 19.6279C45.4846 19.4977 45.4846 19.2248 45.3423 19.0946C45.2372 19.0015 44.229 18.5798 38.5016 16.248C36.2316 15.3239 35.8667 15.1937 35.5018 15.1751C35.2791 15.1627 35.0132 15.1689 34.908 15.1999Z" fill="#FEFEFE"/>
<path d="M0.141391 20.6079C0.0300588 20.7319 0.0238737 20.8994 0.00531827 24.5459C-0.00705201 28.1925 -0.00705201 28.36 0.110466 28.5832C0.326945 29.0111 0.0919103 28.8995 4.78643 30.8034C6.07912 31.3244 7.78622 32.0189 8.57792 32.3476C10.0685 32.9616 10.3407 33.0422 10.6005 32.9802C10.9406 32.8934 10.9406 32.8934 10.9406 28.9429C10.9406 24.9801 10.9468 25.0607 10.5819 24.6762C10.3592 24.4405 10.3098 24.4157 8.63977 23.7273C7.84807 23.4048 6.90793 23.0141 6.54919 22.8653C2.25052 21.0792 0.722794 20.4776 0.500129 20.4776C0.333131 20.4776 0.221798 20.5149 0.141391 20.6079Z" fill="#FEFEFE"/>
<path d="M21.7028 20.7319C21.1833 20.9551 20.039 21.4264 14.2002 23.8265C12.6416 24.4715 12.4375 24.5955 12.2334 25.0358C12.1282 25.2653 12.1158 25.5133 12.1158 28.8498C12.1158 31.0266 12.1406 32.5026 12.1777 32.6391C12.2581 32.9181 12.4622 33.036 12.7777 32.9801C12.9075 32.9615 13.6683 32.6763 14.4662 32.3538C15.2641 32.0251 16.699 31.4421 17.6515 31.0514C18.6041 30.6669 19.705 30.2204 20.0947 30.0592C20.4843 29.8979 21.1833 29.6126 21.641 29.4266C22.0987 29.2405 22.544 29.0235 22.6182 28.9553C22.9708 28.6328 22.9584 28.7568 22.946 24.8188C22.946 22.8218 22.9398 21.0854 22.9398 20.9551C22.9398 20.6636 22.7667 20.4776 22.4945 20.4776C22.3832 20.4838 22.0244 20.5954 21.7028 20.7319Z" fill="#FEFEFE"/>
<path d="M24.115 20.6144C23.9913 20.7446 23.9913 20.8128 23.9913 24.6145C23.9913 28.7758 23.9852 28.6517 24.313 28.9556C24.3872 29.0238 25.0428 29.3215 25.7541 29.613C26.4716 29.9045 27.9869 30.5184 29.125 30.9774C30.2631 31.4425 31.8527 32.0875 32.6505 32.41C34.3453 33.1045 34.5865 33.1417 34.7844 32.751C34.8648 32.6022 34.8772 32.0068 34.8772 28.9246V25.2718L34.7349 25.0052C34.469 24.4966 34.5927 24.5586 30.0775 22.723C29.1621 22.3509 27.7581 21.7741 26.9602 21.4392C24.7397 20.5152 24.6532 20.4842 24.4429 20.4779C24.313 20.4779 24.1955 20.5276 24.115 20.6144Z" fill="#FEFEFE"/>
<path d="M44.8971 21.0294C44.1672 21.3271 42.0519 22.1953 40.1963 22.9582C38.3408 23.7148 36.7265 24.4031 36.6028 24.4838C36.4853 24.5644 36.3183 24.7504 36.2317 24.8993L36.0832 25.1597L36.0647 28.7443C36.0523 31.163 36.0709 32.4033 36.1142 32.5707C36.2007 32.887 36.411 33.0359 36.7017 32.9862C36.8254 32.9676 37.444 32.7382 38.081 32.4777C38.7181 32.211 40.6417 31.4296 42.3611 30.7288C44.0806 30.0342 45.7259 29.3645 46.0227 29.2404C46.3196 29.1226 46.6165 28.9614 46.6846 28.8869C47 28.5521 47 28.5645 47 24.6202C47 21.2403 46.9938 20.924 46.8887 20.7256C46.7959 20.5333 46.7526 20.5085 46.5052 20.4961C46.2763 20.4837 45.9918 20.5767 44.8971 21.0294Z" fill="#FEFEFE"/>
<path d="M67.0511 15L63.3125 10.0398H62.4716V15H60.0114V3.36364H62.4716V8.01136H62.9659L66.8295 3.36364H69.892L65.3523 8.76136L70.1023 15H67.0511ZM81.5364 9.18182C81.5364 10.4508 81.2959 11.5303 80.8148 12.4205C80.3376 13.3106 79.686 13.9905 78.8603 14.4602C78.0383 14.9261 77.1141 15.1591 76.0876 15.1591C75.0535 15.1591 74.1254 14.9242 73.3035 14.4545C72.4815 13.9848 71.8319 13.3049 71.3546 12.4148C70.8773 11.5246 70.6387 10.447 70.6387 9.18182C70.6387 7.91288 70.8773 6.83333 71.3546 5.94318C71.8319 5.05303 72.4815 4.375 73.3035 3.90909C74.1254 3.43939 75.0535 3.20455 76.0876 3.20455C77.1141 3.20455 78.0383 3.43939 78.8603 3.90909C79.686 4.375 80.3376 5.05303 80.8148 5.94318C81.2959 6.83333 81.5364 7.91288 81.5364 9.18182ZM79.0421 9.18182C79.0421 8.35985 78.919 7.66667 78.6728 7.10227C78.4304 6.53788 78.0876 6.10985 77.6444 5.81818C77.2012 5.52652 76.6823 5.38068 76.0876 5.38068C75.4929 5.38068 74.9739 5.52652 74.5307 5.81818C74.0876 6.10985 73.7429 6.53788 73.4966 7.10227C73.2542 7.66667 73.133 8.35985 73.133 9.18182C73.133 10.0038 73.2542 10.697 73.4966 11.2614C73.7429 11.8258 74.0876 12.2538 74.5307 12.5455C74.9739 12.8371 75.4929 12.983 76.0876 12.983C76.6823 12.983 77.2012 12.8371 77.6444 12.5455C78.0876 12.2538 78.4304 11.8258 78.6728 11.2614C78.919 10.697 79.0421 10.0038 79.0421 9.18182ZM83.5189 15V3.36364H85.9791V8.16477H90.9734V3.36364H93.428V15H90.9734V10.1932H85.9791V15H83.5189ZM102.656 15L98.9175 10.0398H98.0766V15H95.6164V3.36364H98.0766V8.01136H98.5709L102.435 3.36364H105.497L100.957 8.76136L105.707 15H102.656ZM108.36 15.1591V13.1591H108.991C109.305 13.1591 109.559 13.1212 109.752 13.0455C109.945 12.9659 110.099 12.8504 110.212 12.6989C110.33 12.5436 110.428 12.3504 110.508 12.1193L110.65 11.7386L106.423 3.36364H108.968L111.707 9.09091L113.997 3.36364H116.508L112.497 12.7159C112.303 13.1477 112.074 13.5492 111.809 13.9205C111.548 14.2917 111.212 14.5909 110.803 14.8182C110.394 15.0455 109.872 15.1591 109.235 15.1591H108.36ZM117.999 15V3.36364H122.59C123.472 3.36364 124.224 3.5322 124.845 3.86932C125.467 4.20265 125.94 4.66667 126.266 5.26136C126.595 5.85227 126.76 6.53409 126.76 7.30682C126.76 8.07955 126.594 8.76136 126.26 9.35227C125.927 9.94318 125.444 10.4034 124.811 10.733C124.183 11.0625 123.421 11.2273 122.527 11.2273H119.601V9.25568H122.13C122.603 9.25568 122.993 9.17424 123.3 9.01136C123.611 8.8447 123.842 8.61553 123.993 8.32386C124.148 8.02841 124.226 7.68939 124.226 7.30682C124.226 6.92045 124.148 6.58333 123.993 6.29545C123.842 6.00379 123.611 5.77841 123.3 5.61932C122.989 5.45644 122.595 5.375 122.118 5.375H120.459V15H117.999ZM138.785 7.4375H136.297C136.251 7.11553 136.158 6.82955 136.018 6.57955C135.878 6.32576 135.698 6.10985 135.478 5.93182C135.259 5.75379 135.005 5.61742 134.717 5.52273C134.433 5.42803 134.124 5.38068 133.791 5.38068C133.189 5.38068 132.664 5.5303 132.217 5.82955C131.77 6.125 131.424 6.55682 131.177 7.125C130.931 7.68939 130.808 8.375 130.808 9.18182C130.808 10.0114 130.931 10.7083 131.177 11.2727C131.427 11.8371 131.776 12.2633 132.223 12.5511C132.67 12.839 133.187 12.983 133.774 12.983C134.103 12.983 134.408 12.9394 134.689 12.8523C134.973 12.7652 135.225 12.6383 135.444 12.4716C135.664 12.3011 135.846 12.0947 135.99 11.8523C136.138 11.6098 136.24 11.3333 136.297 11.0227L138.785 11.0341C138.721 11.5682 138.56 12.0833 138.302 12.5795C138.049 13.072 137.706 13.5133 137.274 13.9034C136.846 14.2898 136.335 14.5966 135.74 14.8239C135.149 15.0473 134.48 15.1591 133.734 15.1591C132.696 15.1591 131.768 14.9242 130.95 14.4545C130.136 13.9848 129.492 13.3049 129.018 12.4148C128.549 11.5246 128.314 10.447 128.314 9.18182C128.314 7.91288 128.552 6.83333 129.03 5.94318C129.507 5.05303 130.155 4.375 130.973 3.90909C131.791 3.43939 132.711 3.20455 133.734 3.20455C134.408 3.20455 135.033 3.29924 135.609 3.48864C136.189 3.67803 136.702 3.95455 137.149 4.31818C137.596 4.67803 137.96 5.11932 138.24 5.64205C138.524 6.16477 138.706 6.76326 138.785 7.4375ZM143.942 15V13.0227L144.271 12.9943C144.696 12.9602 145.039 12.7992 145.3 12.5114C145.561 12.2197 145.756 11.7557 145.885 11.1193C146.018 10.4792 146.103 9.61932 146.141 8.53977L146.334 3.36364H154.232V15H151.84V5.33523H148.618L148.436 9.38636C148.376 10.6894 148.22 11.7538 147.97 12.5795C147.724 13.4053 147.33 14.0152 146.789 14.4091C146.251 14.803 145.514 15 144.578 15H143.942ZM157.676 15.1591V13.1591H158.306C158.621 13.1591 158.875 13.1212 159.068 13.0455C159.261 12.9659 159.414 12.8504 159.528 12.6989C159.645 12.5436 159.744 12.3504 159.824 12.1193L159.966 11.7386L155.738 3.36364H158.284L161.022 9.09091L163.312 3.36364H165.824L161.812 12.7159C161.619 13.1477 161.39 13.5492 161.125 13.9205C160.863 14.2917 160.528 14.5909 160.119 14.8182C159.71 15.0455 159.187 15.1591 158.551 15.1591H157.676ZM167.786 3.36364H170.178V7.11364C170.178 7.56061 170.256 7.92045 170.411 8.19318C170.566 8.46212 170.807 8.6572 171.133 8.77841C171.462 8.89583 171.885 8.95455 172.4 8.95455C172.582 8.95455 172.796 8.94886 173.042 8.9375C173.288 8.92235 173.542 8.90152 173.803 8.875C174.068 8.84848 174.318 8.81629 174.553 8.77841C174.788 8.74053 174.983 8.69697 175.138 8.64773V10.5909C174.979 10.6439 174.78 10.6913 174.542 10.733C174.307 10.7708 174.059 10.8049 173.797 10.8352C173.536 10.8617 173.282 10.8826 173.036 10.8977C172.79 10.9129 172.578 10.9205 172.4 10.9205C171.464 10.9205 170.65 10.7879 169.957 10.5227C169.263 10.2538 168.727 9.83902 168.349 9.27841C167.974 8.7178 167.786 7.99621 167.786 7.11364V3.36364ZM174.712 3.36364H177.116V15H174.712V3.36364ZM180.175 3.36364H182.578V13.0227H185.919V3.36364H188.311V13.0227H191.612V3.36364H194.004V15H180.175V3.36364ZM196.65 3.36364H199.105V10.6818H199.201L204.23 3.36364H206.383V15H203.923V7.67614H203.838L198.781 15H196.65V3.36364ZM210.883 3.36364L213.229 7.32955H213.32L215.678 3.36364H218.456L214.905 9.18182L218.536 15H215.706L213.32 11.0284H213.229L210.843 15H208.025L211.667 9.18182L208.093 3.36364H210.883ZM233.928 3.36364V15H231.497V5.36364H226.792V15H224.36V3.36364H233.928ZM236.431 15V3.36364H241.022C241.904 3.36364 242.656 3.5322 243.277 3.86932C243.899 4.20265 244.372 4.66667 244.698 5.26136C245.027 5.85227 245.192 6.53409 245.192 7.30682C245.192 8.07955 245.025 8.76136 244.692 9.35227C244.359 9.94318 243.876 10.4034 243.243 10.733C242.614 11.0625 241.853 11.2273 240.959 11.2273H238.033V9.25568H240.561C241.035 9.25568 241.425 9.17424 241.732 9.01136C242.042 8.8447 242.274 8.61553 242.425 8.32386C242.58 8.02841 242.658 7.68939 242.658 7.30682C242.658 6.92045 242.58 6.58333 242.425 6.29545C242.274 6.00379 242.042 5.77841 241.732 5.61932C241.421 5.45644 241.027 5.375 240.55 5.375H238.891V15H236.431ZM247.612 15H244.976L248.993 3.36364H252.163L256.175 15H253.538L250.623 6.02273H250.533L247.612 15ZM247.447 10.4261H253.675V12.3466H247.447V10.4261ZM264.775 15L261.036 10.0398H260.195V15H257.735V3.36364H260.195V8.01136H260.69L264.553 3.36364H267.616L263.076 8.76136L267.826 15H264.775ZM268.78 5.39205V3.36364H278.337V5.39205H274.774V15H272.343V5.39205H268.78ZM280.071 3.36364H282.525V10.6818H282.622L287.65 3.36364H289.804V15H287.343V7.67614H287.258L282.201 15H280.071V3.36364ZM299.036 15L295.298 10.0398H294.457V15H291.996V3.36364H294.457V8.01136H294.951L298.815 3.36364H301.877L297.337 8.76136L302.087 15H299.036Z" fill="#FEFEFE"/>
<path d="M60.0568 31V22.2727H63.108C63.7159 22.2727 64.2173 22.3778 64.6122 22.5881C65.0071 22.7955 65.3011 23.0753 65.4943 23.4276C65.6875 23.777 65.7841 24.1648 65.7841 24.5909C65.7841 24.9659 65.7173 25.2756 65.5838 25.5199C65.4531 25.7642 65.2798 25.9574 65.0639 26.0994C64.8509 26.2415 64.6193 26.3466 64.3693 26.4148V26.5C64.6364 26.517 64.9048 26.6108 65.1747 26.7812C65.4446 26.9517 65.6705 27.196 65.8523 27.5142C66.0341 27.8324 66.125 28.2216 66.125 28.6818C66.125 29.1193 66.0256 29.5128 65.8267 29.8622C65.6278 30.2116 65.3139 30.4886 64.8849 30.6932C64.456 30.8977 63.8977 31 63.2102 31H60.0568ZM61.1136 30.0625H63.2102C63.9006 30.0625 64.3906 29.929 64.6804 29.6619C64.973 29.392 65.1193 29.0653 65.1193 28.6818C65.1193 28.3864 65.044 28.1136 64.8935 27.8636C64.7429 27.6108 64.5284 27.4091 64.25 27.2585C63.9716 27.1051 63.642 27.0284 63.2614 27.0284H61.1136V30.0625ZM61.1136 26.108H63.0739C63.392 26.108 63.679 26.0455 63.9347 25.9205C64.1932 25.7955 64.3977 25.6193 64.5483 25.392C64.7017 25.1648 64.7784 24.8977 64.7784 24.5909C64.7784 24.2074 64.6449 23.8821 64.3778 23.6151C64.1108 23.3452 63.6875 23.2102 63.108 23.2102H61.1136V26.108ZM67.7415 31V22.2727H68.7983V26.1591H73.4517V22.2727H74.5086V31H73.4517V27.0966H68.7983V31H67.7415ZM76.5043 31V22.2727H81.7714V23.2102H77.5611V26.1591H81.4986V27.0966H77.5611V30.0625H81.8395V31H76.5043ZM82.8062 33.1136V30.0625H83.3687C83.5619 29.8864 83.7437 29.6378 83.9141 29.3168C84.0874 28.9929 84.2337 28.5611 84.3531 28.0213C84.4752 27.4787 84.5562 26.7898 84.596 25.9545L84.7835 22.2727H89.9653V30.0625H90.971V33.0966H89.9653V31H83.8119V33.1136H82.8062ZM84.6301 30.0625H88.9596V23.2102H85.738L85.6016 25.9545C85.5676 26.5909 85.5079 27.1676 85.4227 27.6847C85.3374 28.1989 85.2281 28.6548 85.0945 29.0526C84.961 29.4474 84.8062 29.7841 84.6301 30.0625ZM92.4479 31V22.2727H95.3968C96.0814 22.2727 96.6411 22.3963 97.0758 22.6435C97.5133 22.8878 97.8371 23.2188 98.0473 23.6364C98.2576 24.054 98.3627 24.5199 98.3627 25.0341C98.3627 25.5483 98.2576 26.0156 98.0473 26.4361C97.84 26.8565 97.5189 27.1918 97.0843 27.4418C96.6496 27.6889 96.0928 27.8125 95.4138 27.8125H93.3002V26.875H95.3797C95.8485 26.875 96.2249 26.794 96.509 26.6321C96.7931 26.4702 96.999 26.2514 97.1269 25.9759C97.2576 25.6974 97.3229 25.3835 97.3229 25.0341C97.3229 24.6847 97.2576 24.3722 97.1269 24.0966C96.999 23.821 96.7917 23.6051 96.5047 23.4489C96.2178 23.2898 95.8371 23.2102 95.3627 23.2102H93.5047V31H92.4479ZM99.9451 31V22.2727H105.212V23.2102H101.002V26.1591H104.939V27.0966H101.002V30.0625H105.28V31H99.9451ZM106.997 31V22.2727H108.054V26.1591H112.707V22.2727H113.764V31H112.707V27.0966H108.054V31H106.997ZM115.76 22.2727H116.8V29.142H116.885L121.658 22.2727H122.68V31H121.623V24.1477H121.538L116.783 31H115.76V22.2727ZM130.607 31H129.55V23.2102H127.692C127.22 23.2102 126.841 23.2827 126.554 23.4276C126.267 23.5696 126.058 23.7713 125.928 24.0327C125.797 24.294 125.732 24.5994 125.732 24.9489C125.732 25.2983 125.796 25.5994 125.924 25.8523C126.054 26.1023 126.262 26.2955 126.546 26.4318C126.833 26.5682 127.209 26.6364 127.675 26.6364H130.027V27.5909H127.641C126.965 27.5909 126.409 27.4787 125.975 27.2543C125.54 27.027 125.218 26.7145 125.007 26.3168C124.797 25.919 124.692 25.4631 124.692 24.9489C124.692 24.4347 124.797 23.9759 125.007 23.5724C125.218 23.169 125.541 22.8523 125.979 22.6222C126.416 22.3892 126.976 22.2727 127.658 22.2727H130.607V31ZM126.499 27.0795H127.692L125.578 31H124.351L126.499 27.0795ZM135.861 31V22.2727H141.128V23.2102H136.918V25.9375H139.133C139.758 25.9375 140.285 26.0398 140.714 26.2443C141.146 26.4489 141.473 26.7372 141.695 27.1094C141.919 27.4815 142.031 27.9205 142.031 28.4261C142.031 28.9318 141.919 29.3778 141.695 29.7642C141.473 30.1506 141.146 30.4531 140.714 30.6719C140.285 30.8906 139.758 31 139.133 31H135.861ZM136.918 30.0795H139.133C139.531 30.0795 139.868 30 140.143 29.8409C140.422 29.679 140.632 29.4716 140.774 29.2188C140.919 28.9631 140.991 28.6932 140.991 28.4091C140.991 27.9915 140.831 27.6321 140.51 27.331C140.189 27.027 139.73 26.875 139.133 26.875H136.918V30.0795ZM143.651 31V22.2727H148.918V23.2102H144.708V26.1591H148.645V27.0966H144.708V30.0625H148.986V31H143.651ZM150.703 31V22.2727H153.652C154.336 22.2727 154.896 22.3963 155.331 22.6435C155.768 22.8878 156.092 23.2188 156.302 23.6364C156.512 24.054 156.618 24.5199 156.618 25.0341C156.618 25.5483 156.512 26.0156 156.302 26.4361C156.095 26.8565 155.774 27.1918 155.339 27.4418C154.904 27.6889 154.348 27.8125 153.669 27.8125H151.555V26.875H153.635C154.103 26.875 154.48 26.794 154.764 26.6321C155.048 26.4702 155.254 26.2514 155.382 25.9759C155.512 25.6974 155.578 25.3835 155.578 25.0341C155.578 24.6847 155.512 24.3722 155.382 24.0966C155.254 23.821 155.047 23.6051 154.76 23.4489C154.473 23.2898 154.092 23.2102 153.618 23.2102H151.76V31H150.703ZM158.2 31V22.2727H163.467V23.2102H159.257V26.1591H163.194V27.0966H159.257V30.0625H163.535V31H158.2ZM170.417 22.2727V31H169.36V22.2727H170.417ZM164.519 31L167.348 26.4489L164.757 22.2727H166.036L168.303 26.142H171.49L173.757 22.2727H175.036L172.428 26.4659L175.257 31H174.047L171.678 27.1307H168.098L165.712 31H164.519ZM175.772 31V30.0284H176.028C176.392 30.0284 176.674 29.9119 176.876 29.679C177.078 29.446 177.223 29.0696 177.311 28.5497C177.402 28.0298 177.463 27.3409 177.494 26.483L177.647 22.2727H182.966V31H181.909V23.2102H178.653L178.517 26.6875C178.483 27.6023 178.399 28.3807 178.265 29.0227C178.132 29.6648 177.897 30.1548 177.562 30.4929C177.227 30.831 176.738 31 176.096 31H175.772ZM184.957 22.2727H185.997V29.142H186.082L190.855 22.2727H191.878V31H190.821V24.1477H190.736L185.98 31H184.957V22.2727ZM193.872 31V22.2727H196.923C197.531 22.2727 198.033 22.3778 198.428 22.5881C198.823 22.7955 199.117 23.0753 199.31 23.4276C199.503 23.777 199.6 24.1648 199.6 24.5909C199.6 24.9659 199.533 25.2756 199.399 25.5199C199.269 25.7642 199.095 25.9574 198.879 26.0994C198.666 26.2415 198.435 26.3466 198.185 26.4148V26.5C198.452 26.517 198.72 26.6108 198.99 26.7812C199.26 26.9517 199.486 27.196 199.668 27.5142C199.85 27.8324 199.94 28.2216 199.94 28.6818C199.94 29.1193 199.841 29.5128 199.642 29.8622C199.443 30.2116 199.129 30.4886 198.7 30.6932C198.271 30.8977 197.713 31 197.026 31H193.872ZM194.929 30.0625H197.026C197.716 30.0625 198.206 29.929 198.496 29.6619C198.788 29.392 198.935 29.0653 198.935 28.6818C198.935 28.3864 198.86 28.1136 198.709 27.8636C198.558 27.6108 198.344 27.4091 198.065 27.2585C197.787 27.1051 197.458 27.0284 197.077 27.0284H194.929V30.0625ZM194.929 26.108H196.889C197.208 26.108 197.494 26.0455 197.75 25.9205C198.009 25.7955 198.213 25.6193 198.364 25.392C198.517 25.1648 198.594 24.8977 198.594 24.5909C198.594 24.2074 198.46 23.8821 198.193 23.6151C197.926 23.3452 197.503 23.2102 196.923 23.2102H194.929V26.108ZM202.341 25.9375H204.83C205.455 25.9375 205.982 26.0398 206.411 26.2443C206.842 26.4489 207.169 26.7372 207.391 27.1094C207.615 27.4815 207.727 27.9205 207.727 28.4261C207.727 28.9318 207.615 29.3778 207.391 29.7642C207.169 30.1506 206.842 30.4531 206.411 30.6719C205.982 30.8906 205.455 31 204.83 31H201.557V22.2727H202.614V30.0795H204.83C205.227 30.0795 205.564 30 205.84 29.8409C206.118 29.679 206.328 29.4716 206.47 29.2188C206.615 28.9631 206.688 28.6932 206.688 28.4091C206.688 27.9915 206.527 27.6321 206.206 27.331C205.885 27.027 205.426 26.875 204.83 26.875H202.341V25.9375ZM209.637 22.2727V31H208.58V22.2727H209.637ZM212.144 22.2727L214.394 25.9034H214.462L216.712 22.2727H217.956L215.212 26.6364L217.956 31H216.712L214.462 27.4375H214.394L212.144 31H210.899L213.712 26.6364L210.899 22.2727H212.144ZM221.989 23.2102V22.2727H228.535V23.2102H225.79V31H224.734V23.2102H221.989ZM230.046 31V22.2727H235.313V23.2102H231.103V26.1591H235.04V27.0966H231.103V30.0625H235.381V31H230.046ZM237.609 22.2727L239.859 25.9034H239.927L242.177 22.2727H243.421L240.677 26.6364L243.421 31H242.177L239.927 27.4375H239.859L237.609 31H236.365L239.177 26.6364L236.365 22.2727H237.609ZM244.677 31V22.2727H245.734V26.1591H250.387V22.2727H251.444V31H250.387V27.0966H245.734V31H244.677ZM260.803 26.6364C260.803 27.5568 260.637 28.3523 260.305 29.0227C259.972 29.6932 259.516 30.2102 258.937 30.5739C258.357 30.9375 257.695 31.1193 256.951 31.1193C256.207 31.1193 255.545 30.9375 254.965 30.5739C254.386 30.2102 253.93 29.6932 253.597 29.0227C253.265 28.3523 253.099 27.5568 253.099 26.6364C253.099 25.7159 253.265 24.9205 253.597 24.25C253.93 23.5795 254.386 23.0625 254.965 22.6989C255.545 22.3352 256.207 22.1534 256.951 22.1534C257.695 22.1534 258.357 22.3352 258.937 22.6989C259.516 23.0625 259.972 23.5795 260.305 24.25C260.637 24.9205 260.803 25.7159 260.803 26.6364ZM259.781 26.6364C259.781 25.8807 259.654 25.2429 259.401 24.723C259.151 24.2031 258.812 23.8097 258.383 23.5426C257.957 23.2756 257.479 23.142 256.951 23.142C256.423 23.142 255.944 23.2756 255.515 23.5426C255.089 23.8097 254.749 24.2031 254.496 24.723C254.246 25.2429 254.121 25.8807 254.121 26.6364C254.121 27.392 254.246 28.0298 254.496 28.5497C254.749 29.0696 255.089 29.4631 255.515 29.7301C255.944 29.9972 256.423 30.1307 256.951 30.1307C257.479 30.1307 257.957 29.9972 258.383 29.7301C258.812 29.4631 259.151 29.0696 259.401 28.5497C259.654 28.0298 259.781 27.392 259.781 26.6364ZM261.71 31V30.0284H261.966C262.33 30.0284 262.612 29.9119 262.814 29.679C263.016 29.446 263.161 29.0696 263.249 28.5497C263.34 28.0298 263.401 27.3409 263.432 26.483L263.585 22.2727H268.903V31H267.847V23.2102H264.591L264.455 26.6875C264.42 27.6023 264.337 28.3807 264.203 29.0227C264.07 29.6648 263.835 30.1548 263.5 30.4929C263.165 30.831 262.676 31 262.034 31H261.71ZM278.259 26.6364C278.259 27.5568 278.092 28.3523 277.76 29.0227C277.428 29.6932 276.972 30.2102 276.392 30.5739C275.813 30.9375 275.151 31.1193 274.406 31.1193C273.662 31.1193 273 30.9375 272.421 30.5739C271.841 30.2102 271.385 29.6932 271.053 29.0227C270.72 28.3523 270.554 27.5568 270.554 26.6364C270.554 25.7159 270.72 24.9205 271.053 24.25C271.385 23.5795 271.841 23.0625 272.421 22.6989C273 22.3352 273.662 22.1534 274.406 22.1534C275.151 22.1534 275.813 22.3352 276.392 22.6989C276.972 23.0625 277.428 23.5795 277.76 24.25C278.092 24.9205 278.259 25.7159 278.259 26.6364ZM277.236 26.6364C277.236 25.8807 277.109 25.2429 276.857 24.723C276.607 24.2031 276.267 23.8097 275.838 23.5426C275.412 23.2756 274.935 23.142 274.406 23.142C273.878 23.142 273.399 23.2756 272.97 23.5426C272.544 23.8097 272.205 24.2031 271.952 24.723C271.702 25.2429 271.577 25.8807 271.577 26.6364C271.577 27.392 271.702 28.0298 271.952 28.5497C272.205 29.0696 272.544 29.4631 272.97 29.7301C273.399 29.9972 273.878 30.1307 274.406 30.1307C274.935 30.1307 275.412 29.9972 275.838 29.7301C276.267 29.4631 276.607 29.0696 276.857 28.5497C277.109 28.0298 277.236 27.392 277.236 26.6364ZM285.183 22.2727V23.2102H280.972V31H279.916V22.2727H285.183ZM286.698 22.2727H287.738V29.142H287.823L292.596 22.2727H293.618V31H292.562V24.1477H292.476L287.721 31H286.698V22.2727ZM295.613 22.2727H296.653V29.142H296.738L301.511 22.2727H302.534V31H301.477V24.1477H301.391L296.636 31H295.613V22.2727ZM299.909 20.0909H300.846C300.846 20.5511 300.687 20.9276 300.369 21.2202C300.051 21.5128 299.619 21.6591 299.073 21.6591C298.536 21.6591 298.109 21.5128 297.791 21.2202C297.475 20.9276 297.318 20.5511 297.318 20.0909H298.255C298.255 20.3125 298.316 20.5071 298.438 20.6747C298.563 20.8423 298.775 20.9261 299.073 20.9261C299.372 20.9261 299.585 20.8423 299.712 20.6747C299.843 20.5071 299.909 20.3125 299.909 20.0909Z" fill="#FEFEFE"/>
</svg>
