<svg width="52" height="52" viewBox="0 0 52 52" fill="none" xmlns="http://www.w3.org/2000/svg">
<g clip-path="url(#clip0_135_4061)">
<path d="M28.1666 2.16667C28.1666 0.970667 29.1351 0 30.3333 0H34.6666C39.4463 0 43.3333 3.887 43.3333 8.66667V12.9372L46.1348 10.1357C46.9819 9.2885 48.3513 9.2885 49.1984 10.1357C50.0456 10.9828 50.0456 12.3522 49.1984 13.1993L44.1154 18.2823C43.3029 19.0948 42.2348 19.5022 41.1666 19.5022C40.0984 19.5022 39.0303 19.0948 38.2178 18.2823L33.1348 13.1993C32.2876 12.3522 32.2876 10.9828 33.1348 10.1357C33.9819 9.2885 35.3513 9.2885 36.1984 10.1357L38.9999 12.9372V8.66667C38.9999 6.27683 37.0564 4.33333 34.6666 4.33333H30.3333C29.1351 4.33333 28.1666 3.36267 28.1666 2.16667ZM21.6666 47.6667H17.3333C14.9434 47.6667 12.9999 45.7232 12.9999 43.3333V39.0628L15.8014 41.8643C16.2239 42.2868 16.7786 42.4992 17.3333 42.4992C17.8879 42.4992 18.4426 42.2868 18.8651 41.8643C19.7122 41.0172 19.7122 39.6478 18.8651 38.8007L13.7821 33.7177C12.1571 32.0905 9.50725 32.0905 7.88225 33.7177L2.79925 38.8007C1.95208 39.6478 1.95208 41.0172 2.79925 41.8643C3.64642 42.7115 5.01575 42.7115 5.86292 41.8643L8.66442 39.0628V43.3333C8.66442 48.113 12.5514 52 17.3311 52H21.6644C22.8626 52 23.8311 51.0293 23.8311 49.8333C23.8311 48.6373 22.8626 47.6667 21.6644 47.6667H21.6666ZM23.8333 11.9167C23.8333 16.0312 21.7359 19.7947 18.2259 21.9852C17.6756 22.3275 17.3333 22.9992 17.3333 23.7337C17.3333 26.2232 15.3898 28.1667 12.9999 28.1667H10.8333C8.44342 28.1667 6.49992 26.2232 6.49992 23.8333C6.49992 22.997 6.16842 22.3318 5.63325 22.0003C1.57508 19.4827 -0.582917 14.7962 0.140749 10.0598C0.883916 5.2065 4.58242 1.274 9.34692 0.270833C12.9436 -0.485333 16.6139 0.3835 19.4176 2.6585C22.2234 4.9335 23.8311 8.307 23.8311 11.9167H23.8333ZM19.4999 11.9167C19.4999 9.62 18.4751 7.47283 16.6898 6.02333C15.3161 4.90967 13.6694 4.33117 11.9318 4.33117C11.3749 4.33117 10.8094 4.38967 10.2418 4.511C7.28208 5.135 4.88792 7.68517 4.42425 10.7142C3.95625 13.7778 5.29525 16.692 7.91692 18.3192C8.66875 18.7872 9.26675 19.448 9.74992 20.1912V14.937C8.88325 14.4777 8.15958 13.7843 7.72408 12.9025C7.25175 11.9492 8.03392 10.8355 9.09775 10.8355H14.7354C15.7993 10.8355 16.5814 11.9492 16.1091 12.9025C15.6736 13.7843 14.9499 14.4777 14.0833 14.937V20.2107C14.5686 19.4545 15.1731 18.785 15.9336 18.3105C18.1674 16.9173 19.4999 14.5253 19.4999 11.9167ZM51.9999 35.75C51.9999 39.8645 49.9026 43.628 46.3926 45.8185C45.8423 46.1608 45.4999 46.8325 45.4999 47.567C45.4999 50.0565 43.5564 52 41.1666 52H38.9999C36.6101 52 34.6666 50.0565 34.6666 47.6667C34.6666 46.8303 34.3351 46.1652 33.7999 45.8337C29.7418 43.316 27.5859 38.6295 28.3096 33.8932C29.0528 29.042 32.7513 25.1073 37.5158 24.1042C41.1124 23.3458 44.7827 24.2168 47.5864 26.4918C50.3923 28.7668 51.9999 32.1403 51.9999 35.75ZM47.6666 35.75C47.6666 33.4533 46.6418 31.3062 44.8564 29.8567C43.4827 28.743 41.8361 28.1645 40.0984 28.1645C39.5416 28.1645 38.9761 28.223 38.4084 28.3443C35.4487 28.9683 33.0546 31.5185 32.5909 34.5475C32.1229 37.6112 33.4619 40.5253 36.0836 42.1525C36.8354 42.6205 37.4334 43.2813 37.9166 44.0245V38.7703C37.0499 38.311 36.3263 37.6177 35.8908 36.7358C35.4184 35.7825 36.2006 34.6688 37.2644 34.6688H42.9021C43.9659 34.6688 44.7481 35.7825 44.2757 36.7358C43.8403 37.6177 43.1166 38.311 42.2499 38.7703V44.044C42.7353 43.2878 43.3398 42.6183 44.1003 42.1438C46.3341 40.7507 47.6666 38.3587 47.6666 35.75Z" fill="#1E3A8A"/>
</g>
<defs>
<clipPath id="clip0_135_4061">
<rect width="52" height="52" fill="white"/>
</clipPath>
</defs>
</svg>
