<svg width="52" height="52" viewBox="0 0 52 52" fill="none" xmlns="http://www.w3.org/2000/svg">
<g clip-path="url(#clip0_137_44)">
<path d="M10.8333 13C10.8333 11.8018 11.804 10.8333 13 10.8333H19.5C20.696 10.8333 21.6667 11.8018 21.6667 13C21.6667 14.1982 20.696 15.1667 19.5 15.1667H13C11.804 15.1667 10.8333 14.1982 10.8333 13ZM23.8333 19.5H13C11.804 19.5 10.8333 20.4685 10.8333 21.6667C10.8333 22.8648 11.804 23.8333 13 23.8333H23.8333C25.0293 23.8333 26 22.8648 26 21.6667C26 20.4685 25.0293 19.5 23.8333 19.5ZM23.8333 28.1667H13C11.804 28.1667 10.8333 29.1352 10.8333 30.3333C10.8333 31.5315 11.804 32.5 13 32.5H23.8333C25.0293 32.5 26 31.5315 26 30.3333C26 29.1352 25.0293 28.1667 23.8333 28.1667ZM51.8678 10.0902C51.5558 9.23433 50.7412 8.66667 49.8333 8.66667H43.3312L41.0302 2.21C40.7138 1.36283 39.9035 0.7995 39 0.7995C38.0965 0.7995 37.284 1.36283 36.9698 2.21L34.6688 8.66667H28.1667C27.2588 8.66667 26.4463 9.23433 26.1343 10.0858C25.8202 10.9395 26.0737 11.895 26.767 12.4843L31.9172 16.6768L29.8783 23.2115C29.6032 24.089 29.9108 25.0445 30.6453 25.597C31.0288 25.8852 31.486 26.0303 31.9453 26.0303C32.3657 26.0303 32.786 25.909 33.15 25.6642L39.0173 21.7382L44.9843 25.623C45.7535 26.1235 46.7588 26.0845 47.489 25.5233C48.2192 24.9622 48.5138 24.0002 48.2235 23.127L46.1023 16.6703L51.2287 12.4952C51.9242 11.908 52.1798 10.9503 51.8678 10.0945V10.0902ZM47.6667 43.3333V44.4167C47.6667 48.5983 44.265 52 40.0833 52H7.58117C3.40167 52 0 48.5983 0 44.4167V10.8333C0 4.85983 4.85983 0 10.8333 0H28.1667C29.3627 0 30.3333 0.9685 30.3333 2.16667C30.3333 3.36483 29.3627 4.33333 28.1667 4.33333H10.8333C7.24967 4.33333 4.33333 7.24967 4.33333 10.8333V44.4167C4.33333 46.2085 5.7915 47.6667 7.58333 47.6667C9.37517 47.6667 10.8333 46.2085 10.8333 44.4167V43.3333C10.8333 39.7497 13.7497 36.8333 17.3333 36.8333H36.8333V30.3333C36.8333 29.1352 37.804 28.1667 39 28.1667C40.196 28.1667 41.1667 29.1352 41.1667 30.3333V36.8333C44.7503 36.8333 47.6667 39.7497 47.6667 43.3333ZM43.3333 43.3333C43.3333 42.1373 42.3605 41.1667 41.1667 41.1667H17.3333C16.1395 41.1667 15.1667 42.1373 15.1667 43.3333V44.4167C15.1667 45.578 14.9023 46.6808 14.4343 47.6667H40.0833C41.8752 47.6667 43.3333 46.2085 43.3333 44.4167V43.3333Z" fill="#1E3A8A"/>
</g>
<defs>
<clipPath id="clip0_137_44">
<rect width="52" height="52" fill="white"/>
</clipPath>
</defs>
</svg>
