<svg width="52" height="52" viewBox="0 0 52 52" fill="none" xmlns="http://www.w3.org/2000/svg">
<g clip-path="url(#clip0_137_49)">
<path d="M34.6668 34.6667C34.6668 35.2414 34.4386 35.7925 34.0322 36.1988C33.6259 36.6051 33.0748 36.8334 32.5002 36.8334H28.1668V41.1667C28.1668 41.7414 27.9386 42.2925 27.5322 42.6988C27.1259 43.1051 26.5748 43.3334 26.0002 43.3334C25.4255 43.3334 24.8744 43.1051 24.4681 42.6988C24.0618 42.2925 23.8335 41.7414 23.8335 41.1667V36.8334H19.5002C18.9255 36.8334 18.3744 36.6051 17.9681 36.1988C17.5618 35.7925 17.3335 35.2414 17.3335 34.6667C17.3335 34.0921 17.5618 33.541 17.9681 33.1347C18.3744 32.7283 18.9255 32.5 19.5002 32.5H23.8335V28.1667C23.8335 27.5921 24.0618 27.041 24.4681 26.6347C24.8744 26.2283 25.4255 26.0001 26.0002 26.0001C26.5748 26.0001 27.1259 26.2283 27.5322 26.6347C27.9386 27.041 28.1668 27.5921 28.1668 28.1667V32.5H32.5002C33.0748 32.5 33.6259 32.7283 34.0322 33.1347C34.4386 33.541 34.6668 34.0921 34.6668 34.6667ZM47.6668 22.7176V41.1667C47.6634 44.0388 46.5209 46.7923 44.49 48.8232C42.4591 50.8541 39.7056 51.9966 36.8335 52.0001H15.1668C12.2947 51.9966 9.5412 50.8541 7.51031 48.8232C5.47941 46.7923 4.33694 44.0388 4.3335 41.1667V10.8334C4.33694 7.96126 5.47941 5.20776 7.51031 3.17686C9.5412 1.14596 12.2947 0.0034903 15.1668 4.99388e-05H24.9493C26.9418 -0.0050784 28.9156 0.384823 30.7565 1.14721C32.5974 1.9096 34.2689 3.02935 35.6743 4.44172L43.223 11.9947C44.6362 13.3992 45.7566 15.0702 46.5194 16.9108C47.2822 18.7514 47.6722 20.7251 47.6668 22.7176ZM32.6107 7.50538C31.9288 6.8449 31.1632 6.27672 30.3335 5.81538V15.1667C30.3335 15.7414 30.5618 16.2925 30.9681 16.6988C31.3744 17.1051 31.9255 17.3334 32.5002 17.3334H41.8515C41.3899 16.504 40.8209 15.739 40.1593 15.0584L32.6107 7.50538ZM43.3335 22.7176C43.3335 22.3601 43.2642 22.0177 43.2317 21.6667H32.5002C30.7763 21.6667 29.123 20.9819 27.904 19.7629C26.685 18.5439 26.0002 16.8906 26.0002 15.1667V4.43522C25.6492 4.40272 25.3047 4.33338 24.9493 4.33338H15.1668C13.4429 4.33338 11.7896 5.0182 10.5706 6.23719C9.35165 7.45618 8.66683 9.10948 8.66683 10.8334V41.1667C8.66683 42.8906 9.35165 44.5439 10.5706 45.7629C11.7896 46.9819 13.4429 47.6667 15.1668 47.6667H36.8335C38.5574 47.6667 40.2107 46.9819 41.4297 45.7629C42.6487 44.5439 43.3335 42.8906 43.3335 41.1667V22.7176Z" fill="#1E3A8A"/>
</g>
<defs>
<clipPath id="clip0_137_49">
<rect width="52" height="52" fill="white"/>
</clipPath>
</defs>
</svg>
