<svg width="52" height="52" viewBox="0 0 52 52" fill="none" xmlns="http://www.w3.org/2000/svg">
<path d="M43.223 11.9947L35.6743 4.44167C32.8078 1.57733 28.9988 0 24.9493 0H15.1668C9.19333 0 4.3335 4.85983 4.3335 10.8333V41.1667C4.3335 47.1402 9.19333 52 15.1668 52H36.8335C42.807 52 47.6668 47.1402 47.6668 41.1667V22.7175C47.6668 18.6637 46.0873 14.859 43.223 11.9947ZM40.1593 15.0605C40.8418 15.743 41.3813 16.5208 41.8515 17.3355H32.5002C31.3042 17.3355 30.3335 16.3627 30.3335 15.1688V5.81533C31.1482 6.2855 31.926 6.825 32.6107 7.5075L40.1593 15.0605ZM43.3335 41.1688C43.3335 44.7525 40.4172 47.6688 36.8335 47.6688H15.1668C11.5832 47.6688 8.66683 44.7525 8.66683 41.1688V10.8333C8.66683 7.24967 11.5832 4.33333 15.1668 4.33333H24.9493C25.3068 4.33333 25.6492 4.40267 26.0002 4.43517V15.1667C26.0002 18.7503 28.9165 21.6667 32.5002 21.6667H43.2317C43.2663 22.0177 43.3335 22.36 43.3335 22.7175V41.1688ZM39.0002 39.0022C39.0002 40.1982 38.0317 41.1688 36.8335 41.1688H15.1668C13.9687 41.1688 13.0002 40.1982 13.0002 39.0022C13.0002 37.8062 13.9687 36.8355 15.1668 36.8355H36.8335C38.0317 36.8355 39.0002 37.8062 39.0002 39.0022ZM15.1668 19.5C15.1668 17.1058 17.106 15.1667 19.5002 15.1667C21.8943 15.1667 23.8335 17.1058 23.8335 19.5C23.8335 21.8942 21.8943 23.8333 19.5002 23.8333C17.106 23.8333 15.1668 21.8942 15.1668 19.5ZM13.9557 32.0537C13.0067 31.3278 12.8268 29.9672 13.5527 29.016C13.7888 28.7062 15.9642 26 19.5543 26C23.1445 26 25.3155 28.7083 25.5538 29.016C26.2818 29.965 26.102 31.3257 25.1508 32.0537C24.7565 32.3548 24.2928 32.5 23.8357 32.5C23.1835 32.5 22.54 32.2075 22.1132 31.6507C22.1132 31.6507 21.0363 30.3333 19.5543 30.3333C18.0723 30.3333 17.0042 31.6377 16.9933 31.6507C16.2653 32.6018 14.909 32.7838 13.9557 32.0537Z" fill="#1E3A8A"/>
</svg>
