<svg width="52" height="52" viewBox="0 0 52 52" fill="none" xmlns="http://www.w3.org/2000/svg">
<path d="M43.2252 11.9945L35.6743 4.44362C32.81 1.57929 29.001 0.00195385 24.9493 0.00195385H15.1668C9.19333 -0.000212818 4.3335 4.85962 4.3335 10.8331V41.1665C4.3335 47.14 9.19333 51.9998 15.1668 51.9998H36.8335C42.807 51.9998 47.6668 47.14 47.6668 41.1665V22.7173C47.6668 18.6656 46.0895 14.861 43.2252 11.9945ZM40.1615 15.0581C40.844 15.7406 41.3835 16.5185 41.8537 17.3331H32.5002C31.3063 17.3331 30.3335 16.3603 30.3335 15.1665V5.81295C31.1482 6.28312 31.926 6.82262 32.6085 7.50512L40.1593 15.056L40.1615 15.0581ZM43.3335 41.1665C43.3335 44.7501 40.4172 47.6665 36.8335 47.6665H15.1668C11.5832 47.6665 8.66683 44.7501 8.66683 41.1665V10.8331C8.66683 7.24945 11.5832 4.33312 15.1668 4.33312H24.9493C25.3068 4.33312 25.6492 4.40245 26.0002 4.43495V15.1665C26.0002 18.7501 28.9165 21.6665 32.5002 21.6665H43.2317C43.2663 22.0175 43.3335 22.3598 43.3335 22.7173V41.1665ZM35.4793 28.6388L32.5002 30.8726V28.1643C32.5002 26.9683 31.5295 25.9976 30.3335 25.9976H15.1668C13.9708 25.9976 13.0002 26.9683 13.0002 28.1643V41.1643C13.0002 42.3603 13.9708 43.331 15.1668 43.331H30.3335C31.5295 43.331 32.5002 42.3603 32.5002 41.1643V38.456L35.4793 40.6898C36.9288 41.7775 39.0002 40.7418 39.0002 38.9305V30.3981C39.0002 28.5846 36.931 27.5511 35.4793 28.6388ZM28.1668 38.9998H17.3335V30.3331H28.1668V38.9998Z" fill="#1E3A8A"/>
</svg>
