<svg width="52" height="52" viewBox="0 0 52 52" fill="none" xmlns="http://www.w3.org/2000/svg">
<g clip-path="url(#clip0_137_29)">
<path d="M45.5 36.8332H43.3333V28.1665C43.3333 26.9705 42.3648 25.9999 41.1667 25.9999C39.9685 25.9999 39 26.9705 39 28.1665V36.8332H28.1667C24.583 36.8332 21.6667 39.7495 21.6667 43.3332V44.4165C21.6667 46.2084 20.2085 47.6665 18.4167 47.6665C16.6248 47.6665 15.1667 46.2084 15.1667 44.4165V7.5832C15.1667 6.41537 14.8785 5.3212 14.4062 4.3332H26C27.1982 4.3332 28.1667 3.36253 28.1667 2.16653C28.1667 0.970535 27.1982 -0.000131897 26 -0.000131897H7.58333C3.40167 -0.000131897 0 3.40153 0 7.5832V8.66654C0 12.2502 2.91633 15.1665 6.5 15.1665H10.8333V44.4165C10.8333 48.596 14.2328 51.9977 18.4123 51.9999H44.4167C48.5983 51.9999 52 48.5982 52 44.4165V43.3332C52 39.7495 49.0837 36.8332 45.5 36.8332ZM10.8333 10.8332H6.5C5.304 10.8332 4.33333 9.86037 4.33333 8.66654V7.5832C4.33333 5.79137 5.7915 4.3332 7.58333 4.3332C9.37517 4.3332 10.8333 5.79137 10.8333 7.5832V10.8332ZM47.6667 44.4165C47.6667 46.2084 46.2085 47.6665 44.4167 47.6665H25.2677C25.7378 46.6807 26 45.58 26 44.4165V43.3332C26 42.1394 26.9707 41.1665 28.1667 41.1665H45.5C46.696 41.1665 47.6667 42.1394 47.6667 43.3332V44.4165ZM21.4803 27.7202C21.1142 29.0354 22.1152 30.3332 23.4802 30.3332C24.4097 30.3332 25.2243 29.7135 25.4692 28.8165C25.7812 27.679 26.143 26.5394 26.5785 25.4019C32.5238 24.559 37.4335 22.544 41.5415 19.2247C45.8662 15.7299 49.9438 10.4302 51.6858 6.03837C52.2665 4.57587 52.0368 2.95953 51.0748 1.71153C50.115 0.467868 48.5983 -0.160465 47.0578 0.0302014C44.902 0.294535 37.4422 1.4927 32.0082 5.88237C25.9328 10.7877 23.7402 19.164 23.0512 22.7499C22.5138 24.1127 21.8487 26.3899 21.4782 27.718L21.4803 27.7202ZM34.7317 9.25587C38.3413 6.34387 43.7363 4.80337 47.6602 4.44587C46.4598 7.47054 43.1817 12.3347 38.8223 15.8577C36.7012 17.5694 34.2918 18.8585 31.5835 19.7859C33.9712 17.1425 36.7662 14.0399 38.8722 11.663C39.2383 11.2492 38.7508 10.6339 38.2677 10.9004C34.7642 12.8244 31.7742 14.9975 29.2587 17.0754C30.4222 14.2869 32.1512 11.3402 34.7317 9.25587Z" fill="#1E3A8A"/>
</g>
<defs>
<clipPath id="clip0_137_29">
<rect width="52" height="52" fill="white"/>
</clipPath>
</defs>
</svg>
