<svg width="52" height="52" viewBox="0 0 52 52" fill="none" xmlns="http://www.w3.org/2000/svg">
<path d="M43.2252 11.9945L35.6743 4.44362C32.81 1.57929 29.001 0.00195385 24.9493 0.00195385H15.1668C9.19333 -0.000212818 4.3335 4.85962 4.3335 10.8331V41.1665C4.3335 47.14 9.19333 51.9998 15.1668 51.9998H36.8335C42.807 51.9998 47.6668 47.14 47.6668 41.1665V22.7173C47.6668 18.6656 46.0895 14.861 43.2252 11.9945ZM40.1615 15.0581C40.8505 15.7471 41.4333 16.512 41.9057 17.3331H32.5002C31.3063 17.3331 30.3335 16.3603 30.3335 15.1665V5.76095C31.1547 6.23329 31.9217 6.81612 32.6085 7.50512L40.1593 15.056L40.1615 15.0581ZM43.3335 41.1665C43.3335 44.7501 40.4172 47.6665 36.8335 47.6665H15.1668C11.5832 47.6665 8.66683 44.7501 8.66683 41.1665V10.8331C8.66683 7.24945 11.5832 4.33312 15.1668 4.33312H24.9493C25.3025 4.33312 25.6535 4.35045 26.0002 4.38295V15.1665C26.0002 18.7501 28.9165 21.6665 32.5002 21.6665H43.2837C43.3162 22.0131 43.3335 22.3641 43.3335 22.7173V41.1665ZM33.5835 28.1665H18.4168C15.4312 28.1665 13.0002 30.5975 13.0002 33.5831V37.9165C13.0002 40.9021 15.4312 43.3331 18.4168 43.3331H33.5835C36.5692 43.3331 39.0002 40.9021 39.0002 37.9165V33.5831C39.0002 30.5975 36.5692 28.1665 33.5835 28.1665ZM34.6668 37.9165C34.6668 38.5145 34.1815 38.9998 33.5835 38.9998H18.4168C17.8188 38.9998 17.3335 38.5145 17.3335 37.9165V33.5831C17.3335 32.9851 17.8188 32.4998 18.4168 32.4998H33.5835C34.1815 32.4998 34.6668 32.9851 34.6668 33.5831V37.9165ZM13.0002 21.6665C13.0002 20.4705 13.9708 19.4998 15.1668 19.4998H19.5002C20.6962 19.4998 21.6668 20.4705 21.6668 21.6665C21.6668 22.8625 20.6962 23.8331 19.5002 23.8331H15.1668C13.9708 23.8331 13.0002 22.8625 13.0002 21.6665ZM13.0002 12.9998C13.0002 11.8038 13.9708 10.8331 15.1668 10.8331H19.5002C20.6962 10.8331 21.6668 11.8038 21.6668 12.9998C21.6668 14.1958 20.6962 15.1665 19.5002 15.1665H15.1668C13.9708 15.1665 13.0002 14.1958 13.0002 12.9998Z" fill="#1E3A8A"/>
</svg>
