<svg width="52" height="52" viewBox="0 0 52 52" fill="none" xmlns="http://www.w3.org/2000/svg">
<g clip-path="url(#clip0_137_59)">
<path d="M26 26C33.1695 26 39 20.1695 39 13C39 5.8305 33.1695 0 26 0C18.8305 0 13 5.8305 13 13C13 20.1695 18.8305 26 26 26ZM26 4.33333C30.7797 4.33333 34.6667 8.22033 34.6667 13C34.6667 17.7797 30.7797 21.6667 26 21.6667C21.2203 21.6667 17.3333 17.7797 17.3333 13C17.3333 8.22033 21.2203 4.33333 26 4.33333ZM45.5 49.8333C45.5 51.0293 44.5315 52 43.3333 52C42.1352 52 41.1667 51.0293 41.1667 49.8333C41.1667 43.2922 36.9958 37.7217 31.1805 35.5983L27.8937 40.5297L30.2618 49.1747C30.6583 50.6177 29.3843 52.0022 27.6597 52.0022H24.3403C22.6157 52.0022 21.3438 50.6177 21.7382 49.1747L24.1063 40.5297L20.8195 35.5983C15.0042 37.7217 10.8333 43.2922 10.8333 49.8355C10.8333 51.0315 9.86267 52.0022 8.66667 52.0022C7.47067 52.0022 6.5 51.0315 6.5 49.8355C6.5 39.0845 15.249 30.3355 26 30.3355C36.751 30.3355 45.5 39.0823 45.5 49.8333Z" fill="#1E3A8A"/>
</g>
<defs>
<clipPath id="clip0_137_59">
<rect width="52" height="52" fill="white"/>
</clipPath>
</defs>
</svg>
