<svg width="52" height="52" viewBox="0 0 52 52" fill="none" xmlns="http://www.w3.org/2000/svg">
<g clip-path="url(#clip0_137_64)">
<path d="M35.75 5.41667C35.75 2.4245 38.1745 0 41.1667 0C44.1588 0 46.5833 2.4245 46.5833 5.41667C46.5833 8.40883 44.1588 10.8333 41.1667 10.8333C38.1745 10.8333 35.75 8.40883 35.75 5.41667ZM51.9502 36.0273L50.0522 20.8433C49.4932 16.3735 45.6733 13 41.1667 13C39.0845 13 37.0543 13.7323 35.4488 15.0627C34.528 15.8275 34.4023 17.1925 35.165 18.1133C35.932 19.0363 37.2948 19.162 38.2157 18.3972C39.0433 17.7125 40.0898 17.3333 41.1645 17.3333C43.4893 17.3333 45.461 19.0732 45.7492 21.3807L47.6472 36.5647C47.7252 37.1908 47.5388 37.7932 47.1207 38.2677C46.7047 38.74 46.1283 39 45.4957 39H38.9957C37.7997 39 36.829 39.9685 36.829 41.1667C36.829 42.3648 37.7997 43.3333 38.9957 43.3333H43.329V49.8333C43.329 51.0315 44.2997 52 45.4957 52C46.6917 52 47.6623 51.0315 47.6623 49.8333V42.9238C48.6893 42.5577 49.6318 41.9683 50.3685 41.1342C51.6013 39.7345 52.1755 37.8755 51.9458 36.0273H51.9502ZM10.8333 10.8333C13.8255 10.8333 16.25 8.40883 16.25 5.41667C16.25 2.4245 13.8255 0 10.8333 0C7.84117 0 5.41667 2.4245 5.41667 5.41667C5.41667 8.40883 7.84117 10.8333 10.8333 10.8333ZM15.8882 13.494C14.9608 13.169 13.988 13 13 13H8.66667C3.887 13 0 16.887 0 21.6667V28.1667C0 31.3603 1.755 34.125 4.33333 35.6287V49.8333C4.33333 51.0315 5.304 52 6.5 52C7.696 52 8.66667 51.0315 8.66667 49.8333V36.8333H10.8333C12.0293 36.8333 13 35.8648 13 34.6667C13 33.4685 12.0293 32.5 10.8333 32.5H8.66667C6.27683 32.5 4.33333 30.5565 4.33333 28.1667V21.6667C4.33333 19.2768 6.27683 17.3333 8.66667 17.3333H13C13.4962 17.3333 13.9815 17.4157 14.4452 17.5803C15.5762 17.9725 16.8112 17.3832 17.2098 16.2587C17.6085 15.1298 17.017 13.8927 15.8882 13.494ZM26 21.6667C28.9922 21.6667 31.4167 19.2422 31.4167 16.25C31.4167 13.2578 28.9922 10.8333 26 10.8333C23.0078 10.8333 20.5833 13.2578 20.5833 16.25C20.5833 19.2422 23.0078 21.6667 26 21.6667ZM34.6667 30.3333V36.8333C34.6667 38.7465 33.8195 40.4517 32.5 41.6433V49.8333C32.5 51.0315 31.5293 52 30.3333 52C29.1373 52 28.1667 51.0315 28.1667 49.8333V43.3333H23.8333V49.8333C23.8333 51.0315 22.8627 52 21.6667 52C20.4707 52 19.5 51.0315 19.5 49.8333V41.6433C18.1805 40.4538 17.3333 38.7465 17.3333 36.8333V30.3333C17.3333 26.7497 20.2497 23.8333 23.8333 23.8333H28.1667C31.7503 23.8333 34.6667 26.7497 34.6667 30.3333ZM28.1667 39C29.3605 39 30.3333 38.0293 30.3333 36.8333V30.3333C30.3333 29.1373 29.3605 28.1667 28.1667 28.1667H23.8333C22.6395 28.1667 21.6667 29.1373 21.6667 30.3333V36.8333C21.6667 38.0293 22.6395 39 23.8333 39H28.1667Z" fill="#1E3A8A"/>
</g>
<defs>
<clipPath id="clip0_137_64">
<rect width="52" height="52" fill="white"/>
</clipPath>
</defs>
</svg>
