<svg width="52" height="52" viewBox="0 0 52 52" fill="none" xmlns="http://www.w3.org/2000/svg">
<path d="M15.0384 2.0922C14.2568 2.6241 14.2243 2.73265 14.1917 4.95795L14.1591 6.95529L9.1875 9.45196C4.60665 11.7424 4.17245 11.9812 3.60798 12.5457C2.42478 13.7397 1.8386 15.4982 2.09912 17.0722C2.28366 18.1577 2.85898 19.3084 3.60798 20.0574C4.12903 20.5784 4.53066 20.8064 6.69083 21.8593C8.68817 22.8363 9.17665 23.1185 9.17665 23.2922C9.17665 23.5093 7.21187 35.5368 7.16845 35.591C7.14674 35.6127 6.85366 35.5476 6.51715 35.4391C5.65959 35.2002 4.15074 35.2762 3.28233 35.6019C1.90373 36.1338 0.666251 37.4255 0.221192 38.815C-0.0718958 39.6834 -0.0718958 41.1923 0.210337 42.0172C0.611975 43.2004 1.46953 44.2642 2.55504 44.9156C3.0001 45.1869 8.38422 47.1191 10.4358 47.7487C13.7358 48.7691 16.7752 49.377 20.9544 49.8546C22.8432 50.0717 29.5517 50.0392 31.5924 49.8003C36.944 49.1599 39.8531 48.4435 46.1925 46.1747C49.829 44.8721 50.274 44.6116 51.1207 43.3199C51.7829 42.3212 52 41.6265 52 40.4433C52 38.739 51.327 37.3496 50.0244 36.3509C48.9606 35.5476 48.331 35.3522 46.8113 35.3414C46.1165 35.3414 45.5412 35.3305 45.5412 35.3197C45.5412 35.0266 43.6307 25.1267 43.4679 24.5948C42.5344 21.4903 40.0594 19.0696 36.7812 18.0601C35.8368 17.767 35.8042 17.767 31.9072 17.7235L27.9994 17.6801L27.8691 16.041C27.5326 11.7858 26.1757 8.64868 23.5054 5.97833C21.8011 4.27408 19.8798 3.09087 17.4374 2.24417C16.1239 1.78826 15.5486 1.7557 15.0384 2.0922ZM18.7183 6.62963C21.7686 8.45329 23.6031 11.1671 24.211 14.7167C24.3629 15.6177 24.3738 16.0736 24.3304 19.4386C24.3195 20.1768 24.6234 20.6653 25.2856 20.9692C25.6981 21.1538 26.078 21.1755 30.2898 21.1755C35.294 21.1755 35.6197 21.208 36.9331 21.8376C37.7798 22.2393 38.9956 23.3573 39.5058 24.204C40.092 25.1593 40.2656 25.8757 41.2535 31.2164C41.7528 33.9628 42.187 36.2966 42.2196 36.3943C42.2521 36.5354 42.0025 36.6657 40.9929 37.0239C39.2018 37.6644 37.3022 38.2288 36.868 38.2505L36.4989 38.2722L35.9453 36.9153C35.0118 34.6466 33.9914 33.2355 32.3848 32.0197C30.6155 30.6845 28.705 30.0007 26.4905 29.8921C23.5705 29.7618 20.9327 30.7497 18.8051 32.7796C17.3831 34.1364 16.5364 35.515 15.9502 37.4038C15.7874 37.9466 15.6463 38.3916 15.6354 38.4025C15.5703 38.511 10.6421 36.9696 10.5444 36.8285C10.5227 36.7851 11.0329 33.5503 11.6842 29.6424C12.3246 25.7346 12.8674 22.3152 12.8674 22.0439C12.8674 21.5011 12.596 20.9584 12.1944 20.6978C12.0532 20.611 10.6964 19.938 9.17665 19.2107C7.53753 18.4291 6.26748 17.7561 6.05038 17.5607C5.37736 16.9094 5.33394 15.813 5.96354 15.1292C6.22406 14.8361 7.65693 14.0654 11.7276 12.0138L17.1551 9.28913L17.4048 8.80066C17.6002 8.39901 17.6436 8.14935 17.6436 7.20496C17.6436 6.58622 17.687 6.08688 17.7305 6.08688C17.7847 6.08688 18.2298 6.32569 18.7183 6.62963ZM28.3576 33.7457C28.8461 33.9302 29.5082 34.245 29.8339 34.4621C30.5612 34.9397 31.625 36.0469 32.0158 36.72C32.4608 37.4907 33.0796 38.9995 32.9819 39.0972C32.8408 39.2275 30.1704 39.5206 28.0645 39.6291C26.7076 39.7051 25.3942 39.7051 23.9939 39.6291C22.1593 39.5314 19.5433 39.2709 19.1959 39.1406C19.0114 39.0755 19.2827 38.1963 19.7929 37.1325C20.3682 35.9492 21.6166 34.7226 22.8541 34.1039C24.0915 33.496 24.9057 33.3223 26.3277 33.3766C27.2612 33.4092 27.6303 33.4743 28.3576 33.7457ZM8.10199 39.6725C9.5023 40.1719 11.2065 40.7581 11.8904 40.986C18.2624 43.0376 25.3616 43.6672 32.1243 42.7662C36.0539 42.2452 38.6699 41.5613 44.0649 39.6183C46.9307 38.587 47.354 38.5436 48.0705 39.2492C48.7001 39.8896 48.7218 40.8775 48.1139 41.5396C47.8099 41.8761 47.3866 42.0607 44.6185 43.0485C39.1041 45.0133 36.0756 45.7623 31.321 46.305C29.2477 46.5438 24.9274 46.6307 22.6912 46.4787C19.2068 46.2399 15.4617 45.5886 12.2703 44.6767C9.77367 43.9495 4.43297 42.0281 4.04219 41.7024C3.66226 41.3876 3.42344 40.8666 3.42344 40.3781C3.42344 39.9005 3.87936 39.1515 4.31356 38.9453C4.96487 38.6196 5.42078 38.7173 8.10199 39.6725Z" fill="#1E3A8A"/>
</svg>
