<svg width="52" height="52" viewBox="0 0 52 52" fill="none" xmlns="http://www.w3.org/2000/svg">
<g clip-path="url(#clip0_135_4160)">
<path d="M41.1667 13.0001H31.0288C30.1652 12.3846 29.1946 11.935 28.1667 11.6741V10.8335L35.815 7.25414C36.1285 7.05983 36.3873 6.78869 36.5667 6.4664C36.7461 6.14411 36.8403 5.78135 36.8403 5.41248C36.8403 5.04361 36.7461 4.68085 36.5667 4.35856C36.3873 4.03627 36.1285 3.76512 35.815 3.57081L28.8817 0.320811C28.3403 0.0678568 27.7439 -0.0442366 27.1476 -0.0050645C26.5514 0.0341076 25.9747 0.223275 25.4711 0.54488C24.9675 0.866485 24.5534 1.3101 24.267 1.83455C23.9807 2.35901 23.8315 2.94729 23.8333 3.54481V11.6741C22.8059 11.9346 21.836 12.3843 20.9733 13.0001H10.8333C7.96121 13.0036 5.20771 14.1461 3.17681 16.177C1.14591 18.2079 0.00344036 20.9614 0 23.8335L0 45.5001C0 47.2241 0.684819 48.8774 1.90381 50.0963C3.12279 51.3153 4.77609 52.0001 6.5 52.0001H45.5C47.2239 52.0001 48.8772 51.3153 50.0962 50.0963C51.3152 48.8774 52 47.2241 52 45.5001V23.8335C51.9966 20.9614 50.8541 18.2079 48.8232 16.177C46.7923 14.1461 44.0388 13.0036 41.1667 13.0001ZM47.268 21.6668H42.5902C40.8672 21.6624 39.2156 20.978 37.9947 19.7623L35.5637 17.3335H41.1667C42.5062 17.339 43.8114 17.7583 44.9035 18.534C45.9957 19.3097 46.8215 20.4038 47.268 21.6668ZM10.8333 17.3335H16.4363L14.0053 19.7623C12.7844 20.978 11.1328 21.6624 9.40983 21.6668H4.732C5.17851 20.4038 6.00434 19.3097 7.09649 18.534C8.18864 17.7583 9.49377 17.339 10.8333 17.3335ZM28.1667 47.6668H23.8333V41.1668C23.8333 40.5922 24.0616 40.0411 24.4679 39.6347C24.8743 39.2284 25.4254 39.0001 26 39.0001C26.5746 39.0001 27.1257 39.2284 27.5321 39.6347C27.9384 40.0411 28.1667 40.5922 28.1667 41.1668V47.6668ZM45.5 47.6668H32.5V41.1668C32.5 39.4429 31.8152 37.7896 30.5962 36.5706C29.3772 35.3516 27.7239 34.6668 26 34.6668C24.2761 34.6668 22.6228 35.3516 21.4038 36.5706C20.1848 37.7896 19.5 39.4429 19.5 41.1668V47.6668H6.5C5.92536 47.6668 5.37426 47.4385 4.96794 47.0322C4.56161 46.6259 4.33333 46.0748 4.33333 45.5001V26.0001H9.40983C10.8329 26.0036 12.2426 25.7249 13.5573 25.1801C14.872 24.6352 16.0656 23.8351 17.069 22.826L22.9363 16.9608C23.749 16.1484 24.851 15.6921 26 15.6921C27.149 15.6921 28.251 16.1484 29.0637 16.9608L34.931 22.826C35.9344 23.8351 37.128 24.6352 38.4427 25.1801C39.7574 25.7249 41.1671 26.0036 42.5902 26.0001H47.6667V45.5001C47.6667 46.0748 47.4384 46.6259 47.0321 47.0322C46.6257 47.4385 46.0746 47.6668 45.5 47.6668ZM15.1667 32.5001C15.1667 33.0748 14.9384 33.6259 14.5321 34.0322C14.1257 34.4385 13.5746 34.6668 13 34.6668H10.8333C10.2587 34.6668 9.7076 34.4385 9.30127 34.0322C8.89494 33.6259 8.66667 33.0748 8.66667 32.5001C8.66667 31.9255 8.89494 31.3744 9.30127 30.9681C9.7076 30.5618 10.2587 30.3335 10.8333 30.3335H13C13.5746 30.3335 14.1257 30.5618 14.5321 30.9681C14.9384 31.3744 15.1667 31.9255 15.1667 32.5001ZM15.1667 41.1668C15.1667 41.7414 14.9384 42.2925 14.5321 42.6989C14.1257 43.1052 13.5746 43.3335 13 43.3335H10.8333C10.2587 43.3335 9.7076 43.1052 9.30127 42.6989C8.89494 42.2925 8.66667 41.7414 8.66667 41.1668C8.66667 40.5922 8.89494 40.0411 9.30127 39.6347C9.7076 39.2284 10.2587 39.0001 10.8333 39.0001H13C13.5746 39.0001 14.1257 39.2284 14.5321 39.6347C14.9384 40.0411 15.1667 40.5922 15.1667 41.1668ZM43.3333 32.5001C43.3333 33.0748 43.1051 33.6259 42.6987 34.0322C42.2924 34.4385 41.7413 34.6668 41.1667 34.6668H39C38.4254 34.6668 37.8743 34.4385 37.4679 34.0322C37.0616 33.6259 36.8333 33.0748 36.8333 32.5001C36.8333 31.9255 37.0616 31.3744 37.4679 30.9681C37.8743 30.5618 38.4254 30.3335 39 30.3335H41.1667C41.7413 30.3335 42.2924 30.5618 42.6987 30.9681C43.1051 31.3744 43.3333 31.9255 43.3333 32.5001ZM43.3333 41.1668C43.3333 41.7414 43.1051 42.2925 42.6987 42.6989C42.2924 43.1052 41.7413 43.3335 41.1667 43.3335H39C38.4254 43.3335 37.8743 43.1052 37.4679 42.6989C37.0616 42.2925 36.8333 41.7414 36.8333 41.1668C36.8333 40.5922 37.0616 40.0411 37.4679 39.6347C37.8743 39.2284 38.4254 39.0001 39 39.0001H41.1667C41.7413 39.0001 42.2924 39.2284 42.6987 39.6347C43.1051 40.0411 43.3333 40.5922 43.3333 41.1668ZM30.3333 26.0001C30.3333 26.8572 30.0792 27.695 29.603 28.4076C29.1269 29.1202 28.4501 29.6756 27.6583 30.0036C26.8665 30.3316 25.9952 30.4174 25.1546 30.2502C24.314 30.083 23.5419 29.6703 22.9359 29.0643C22.3298 28.4582 21.9171 27.6861 21.7499 26.8455C21.5827 26.005 21.6685 25.1337 21.9965 24.3419C22.3245 23.55 22.8799 22.8733 23.5925 22.3971C24.3051 21.921 25.1429 21.6668 26 21.6668C27.1493 21.6668 28.2515 22.1234 29.0641 22.936C29.8768 23.7487 30.3333 24.8509 30.3333 26.0001Z" fill="#1E3A8A"/>
</g>
<defs>
<clipPath id="clip0_135_4160">
<rect width="52" height="52" fill="white"/>
</clipPath>
</defs>
</svg>
