<svg width="52" height="52" viewBox="0 0 52 52" fill="none" xmlns="http://www.w3.org/2000/svg">
<g clip-path="url(#clip0_137_12)">
<path d="M47.7901 11.3318L31.8131 3.72028C28.2962 1.61956 23.9188 1.58229 20.3666 3.62278L4.20981 11.3318C4.14917 11.3621 4.08631 11.3946 4.02781 11.4293C0.193618 13.6216 -1.13746 18.5071 1.05487 22.3413C1.798 23.6411 2.89112 24.706 4.20981 25.4151L8.66667 27.5385V38.1551C8.66931 42.9025 11.7583 47.0966 16.2912 48.5075C19.4456 49.4201 22.7164 49.8668 26 49.8335C29.2831 49.8703 32.554 49.4273 35.7089 48.5184C40.2417 47.1076 43.3308 42.9133 43.3334 38.166V27.5341L47.6668 25.4628V43.3334C47.6668 44.53 48.6368 45.5 49.8334 45.5C51.03 45.5 52 44.53 52 43.3334V17.3334C52.0145 14.7892 50.0056 12.4388 47.7901 11.3318ZM38.9999 38.166C39.0011 41.0056 37.1587 43.5173 34.4499 44.3691C31.7031 45.154 28.8566 45.535 25.9999 45.5001C23.1433 45.535 20.2968 45.154 17.5499 44.3691C14.8412 43.5172 12.9988 41.0056 12.9999 38.166V29.6034L20.1868 33.0267C21.9601 34.0797 23.9853 34.6331 26.0477 34.6279C28.0107 34.6418 29.9407 34.1221 31.6312 33.1242L38.9999 29.6033V38.166ZM45.9333 21.5043L29.5923 29.3043C27.3139 30.631 24.4897 30.5934 22.2473 29.2068L6.25944 21.6018C4.47732 20.6408 3.81168 18.4171 4.77266 16.6351C5.09766 16.0324 5.58496 15.5328 6.17931 15.1928L22.4184 7.43615C24.6976 6.11238 27.5202 6.14986 29.7634 7.53365L45.7404 15.1451C46.9154 15.7976 47.6505 17.0296 47.6666 18.3735C47.6687 19.6465 47.0132 20.8303 45.9333 21.5043Z" fill="#1E3A8A"/>
</g>
<defs>
<clipPath id="clip0_137_12">
<rect width="52" height="52" fill="white"/>
</clipPath>
</defs>
</svg>
