<svg width="332" height="32" viewBox="0 0 332 32" fill="none" xmlns="http://www.w3.org/2000/svg">
<path d="M21.5482 0.55663C19.6246 1.33184 14.4353 3.4404 14.0642 3.60165C13.3776 3.89312 13.4457 4.29003 14.2188 4.58151C14.4044 4.64973 15.2579 4.99082 16.1053 5.33811C16.9588 5.68541 18.8329 6.44201 20.2803 7.02496C22.9028 8.07925 22.9028 8.07925 23.4038 8.07925L23.8986 8.08545L28.1354 6.37999C30.4672 5.44354 32.5268 4.62492 32.7124 4.5505C33.3866 4.29623 33.4299 3.90553 32.8113 3.63265C32.2794 3.39699 28.1106 1.70394 25.8716 0.8171C23.2244 -0.230982 23.4656 -0.218578 21.5482 0.55663Z" fill="#FEFEFE"/>
<path d="M12.3075 5.18926C12.1776 5.3505 12.1776 5.40632 12.1776 8.95367V12.5506L12.3322 12.8173C12.4188 12.9599 12.5735 13.1336 12.6848 13.2018C12.8889 13.3258 21.5295 16.8608 22.0862 17.0468C22.3212 17.1275 22.4016 17.1275 22.5563 17.0654C22.9398 16.9042 22.9398 16.9228 22.9398 13.2018C22.9398 11.0188 22.915 9.75369 22.8717 9.59864C22.7356 9.10871 22.4882 8.92886 21.2203 8.42033C20.2059 8.01102 17.3484 6.84511 13.9713 5.46834C12.7528 4.9722 12.5116 4.93499 12.3075 5.18926Z" fill="#FEFEFE"/>
<path d="M33.702 5.12719C33.5845 5.183 32.8485 5.48068 32.0629 5.80317C31.2836 6.11945 30.2507 6.54117 29.7744 6.73342C29.2982 6.92567 27.9375 7.47762 26.7437 7.95515C24.5171 8.84819 24.2944 8.97222 24.0779 9.38153C24.0037 9.51797 23.9913 10.1629 23.9913 13.1397C23.9913 16.6437 23.9913 16.7367 24.115 16.8917C24.3748 17.2204 24.2944 17.2452 28.6982 15.4592C30.9558 14.5413 33.0835 13.6855 33.4175 13.5552C34.0978 13.2948 34.4071 13.0591 34.5741 12.687C34.6793 12.4576 34.6916 12.1909 34.6916 8.98462C34.6916 7.0373 34.6669 5.46828 34.636 5.38146C34.4999 5.02176 34.1535 4.92873 33.702 5.12719Z" fill="#FEFEFE"/>
<path d="M11.0025 14.2247C10.8478 14.2743 9.32012 14.882 7.60065 15.5828C1.37221 18.1255 1.66292 17.9953 1.56395 18.1875C1.39077 18.5286 1.56395 18.6775 2.68346 19.124C3.15972 19.3162 4.02564 19.6635 4.60086 19.8992C11.1447 22.5721 11.0581 22.5411 11.5591 22.5411C12.0787 22.5349 11.2808 22.8388 18.5236 19.893C19.9957 19.2914 21.276 18.7643 21.3811 18.7085C21.5976 18.5968 21.6657 18.3984 21.5605 18.1751C21.4987 18.0511 21.2389 17.9209 20.0946 17.4557C19.3277 17.1456 17.8989 16.5627 16.9093 16.1596C12.2828 14.2805 12.0539 14.1937 11.6581 14.1688C11.4478 14.1564 11.1571 14.1813 11.0025 14.2247Z" fill="#FEFEFE"/>
<path d="M34.908 14.1999C34.6421 14.2681 28.024 16.9534 26.187 17.7349C25.4015 18.0635 25.2468 18.2248 25.4138 18.5287C25.519 18.7147 25.5746 18.7395 32.3288 21.4745C34.84 22.4915 34.9575 22.5287 35.3905 22.5349C35.8296 22.5411 35.8729 22.5287 38.4645 21.4807C44.0187 19.2357 45.231 18.7271 45.3423 18.6279C45.4846 18.4977 45.4846 18.2248 45.3423 18.0946C45.2372 18.0015 44.229 17.5798 38.5016 15.248C36.2316 14.3239 35.8667 14.1937 35.5018 14.1751C35.2791 14.1627 35.0132 14.1689 34.908 14.1999Z" fill="#FEFEFE"/>
<path d="M0.141391 19.6079C0.0300588 19.7319 0.0238737 19.8994 0.00531827 23.5459C-0.00705201 27.1925 -0.00705201 27.36 0.110466 27.5832C0.326945 28.0111 0.0919103 27.8995 4.78643 29.8034C6.07912 30.3244 7.78622 31.0189 8.57792 31.3476C10.0685 31.9616 10.3407 32.0422 10.6005 31.9802C10.9406 31.8934 10.9406 31.8934 10.9406 27.9429C10.9406 23.9801 10.9468 24.0607 10.5819 23.6762C10.3592 23.4405 10.3098 23.4157 8.63977 22.7273C7.84807 22.4048 6.90793 22.0141 6.54919 21.8653C2.25052 20.0792 0.722794 19.4776 0.500129 19.4776C0.333131 19.4776 0.221798 19.5149 0.141391 19.6079Z" fill="#FEFEFE"/>
<path d="M21.7028 19.7319C21.1833 19.9551 20.039 20.4264 14.2002 22.8265C12.6416 23.4715 12.4375 23.5955 12.2334 24.0358C12.1282 24.2653 12.1158 24.5133 12.1158 27.8498C12.1158 30.0266 12.1406 31.5026 12.1777 31.6391C12.2581 31.9181 12.4622 32.036 12.7777 31.9801C12.9075 31.9615 13.6683 31.6763 14.4662 31.3538C15.2641 31.0251 16.699 30.4421 17.6515 30.0514C18.6041 29.6669 19.705 29.2204 20.0947 29.0592C20.4843 28.8979 21.1833 28.6126 21.641 28.4266C22.0987 28.2405 22.544 28.0235 22.6182 27.9553C22.9708 27.6328 22.9584 27.7568 22.946 23.8188C22.946 21.8218 22.9398 20.0854 22.9398 19.9551C22.9398 19.6636 22.7667 19.4776 22.4945 19.4776C22.3832 19.4838 22.0244 19.5954 21.7028 19.7319Z" fill="#FEFEFE"/>
<path d="M24.115 19.6144C23.9913 19.7446 23.9913 19.8128 23.9913 23.6145C23.9913 27.7758 23.9852 27.6517 24.313 27.9556C24.3872 28.0238 25.0428 28.3215 25.7541 28.613C26.4716 28.9045 27.9869 29.5184 29.125 29.9774C30.2631 30.4425 31.8527 31.0875 32.6505 31.41C34.3453 32.1045 34.5865 32.1417 34.7844 31.751C34.8648 31.6022 34.8772 31.0068 34.8772 27.9246V24.2718L34.7349 24.0052C34.469 23.4966 34.5927 23.5586 30.0775 21.723C29.1621 21.3509 27.7581 20.7741 26.9602 20.4392C24.7397 19.5152 24.6532 19.4842 24.4429 19.4779C24.313 19.4779 24.1955 19.5276 24.115 19.6144Z" fill="#FEFEFE"/>
<path d="M44.8971 20.0294C44.1672 20.3271 42.0519 21.1953 40.1963 21.9582C38.3408 22.7148 36.7265 23.4031 36.6028 23.4838C36.4853 23.5644 36.3183 23.7504 36.2317 23.8993L36.0832 24.1597L36.0647 27.7443C36.0523 30.163 36.0709 31.4033 36.1142 31.5707C36.2007 31.887 36.411 32.0359 36.7017 31.9862C36.8254 31.9676 37.444 31.7382 38.081 31.4777C38.7181 31.211 40.6417 30.4296 42.3611 29.7288C44.0806 29.0342 45.7259 28.3645 46.0227 28.2404C46.3196 28.1226 46.6165 27.9614 46.6846 27.8869C47 27.5521 47 27.5645 47 23.6202C47 20.2403 46.9938 19.924 46.8887 19.7256C46.7959 19.5333 46.7526 19.5085 46.5052 19.4961C46.2763 19.4837 45.9918 19.5767 44.8971 20.0294Z" fill="#FEFEFE"/>
<path d="M67.0511 21.5L63.3125 16.5398H62.4716V21.5H60.0114V9.86364H62.4716V14.5114H62.9659L66.8295 9.86364H69.892L65.3523 15.2614L70.1023 21.5H67.0511ZM74.5966 21.6705C73.714 21.6705 72.9508 21.483 72.3068 21.108C71.6667 20.7292 71.1723 20.2027 70.8239 19.5284C70.4754 18.8504 70.3011 18.0644 70.3011 17.1705C70.3011 16.2689 70.4754 15.4811 70.8239 14.8068C71.1723 14.1288 71.6667 13.6023 72.3068 13.2273C72.9508 12.8485 73.714 12.6591 74.5966 12.6591C75.4792 12.6591 76.2405 12.8485 76.8807 13.2273C77.5246 13.6023 78.0208 14.1288 78.3693 14.8068C78.7178 15.4811 78.892 16.2689 78.892 17.1705C78.892 18.0644 78.7178 18.8504 78.3693 19.5284C78.0208 20.2027 77.5246 20.7292 76.8807 21.108C76.2405 21.483 75.4792 21.6705 74.5966 21.6705ZM74.608 19.7955C75.0095 19.7955 75.3447 19.6818 75.6136 19.4545C75.8826 19.2235 76.0852 18.9091 76.2216 18.5114C76.3617 18.1136 76.4318 17.661 76.4318 17.1534C76.4318 16.6458 76.3617 16.1932 76.2216 15.7955C76.0852 15.3977 75.8826 15.0833 75.6136 14.8523C75.3447 14.6212 75.0095 14.5057 74.608 14.5057C74.2027 14.5057 73.8617 14.6212 73.5852 14.8523C73.3125 15.0833 73.1061 15.3977 72.9659 15.7955C72.8295 16.1932 72.7614 16.6458 72.7614 17.1534C72.7614 17.661 72.8295 18.1136 72.9659 18.5114C73.1061 18.9091 73.3125 19.2235 73.5852 19.4545C73.8617 19.6818 74.2027 19.7955 74.608 19.7955ZM86.5398 16.1705V18.0739H81.983V16.1705H86.5398ZM82.7784 12.7727V21.5H80.4659V12.7727H82.7784ZM88.0568 12.7727V21.5H85.7614V12.7727H88.0568ZM89.9347 21.5V12.7727H92.3551V16.1591H93.0369L95.4119 12.7727H98.2528L95.1676 17.1023L98.2869 21.5H95.4119L93.2585 18.4034H92.3551V21.5H89.9347ZM100.945 24.7727C100.638 24.7727 100.35 24.7481 100.081 24.6989C99.8158 24.6534 99.5961 24.5947 99.4219 24.5227L99.9673 22.7159C100.251 22.803 100.507 22.8504 100.734 22.858C100.965 22.8655 101.164 22.8125 101.331 22.6989C101.501 22.5852 101.64 22.392 101.746 22.1193L101.888 21.75L98.7571 12.7727H101.303L103.109 19.1818H103.2L105.024 12.7727H107.587L104.195 22.4432C104.032 22.9129 103.81 23.322 103.53 23.6705C103.253 24.0227 102.903 24.2936 102.479 24.483C102.054 24.6761 101.543 24.7727 100.945 24.7727ZM108.825 24.7727V12.7727H111.212V14.2386H111.32C111.426 14.0038 111.579 13.7652 111.78 13.5227C111.984 13.2765 112.25 13.072 112.575 12.9091C112.905 12.7424 113.314 12.6591 113.803 12.6591C114.439 12.6591 115.026 12.8258 115.564 13.1591C116.102 13.4886 116.532 13.9867 116.854 14.6534C117.176 15.3163 117.337 16.1477 117.337 17.1477C117.337 18.1212 117.179 18.9432 116.865 19.6136C116.554 20.2803 116.13 20.786 115.592 21.1307C115.058 21.4716 114.46 21.642 113.797 21.642C113.327 21.642 112.928 21.5644 112.598 21.4091C112.272 21.2538 112.005 21.0587 111.797 20.8239C111.589 20.5852 111.429 20.3447 111.32 20.1023H111.246V24.7727H108.825ZM111.195 17.1364C111.195 17.6553 111.267 18.108 111.411 18.4943C111.554 18.8807 111.763 19.1818 112.036 19.3977C112.308 19.6098 112.64 19.7159 113.03 19.7159C113.424 19.7159 113.757 19.608 114.03 19.392C114.303 19.1723 114.509 18.8693 114.649 18.483C114.793 18.0928 114.865 17.6439 114.865 17.1364C114.865 16.6326 114.795 16.1894 114.655 15.8068C114.515 15.4242 114.308 15.125 114.036 14.9091C113.763 14.6932 113.428 14.5852 113.03 14.5852C112.636 14.5852 112.303 14.6894 112.03 14.8977C111.761 15.1061 111.554 15.4015 111.411 15.7841C111.267 16.1667 111.195 16.6174 111.195 17.1364ZM122.893 21.6705C122 21.6705 121.231 21.4811 120.587 21.1023C119.946 20.7197 119.454 20.1894 119.109 19.5114C118.768 18.8333 118.598 18.053 118.598 17.1705C118.598 16.2765 118.77 15.4924 119.115 14.8182C119.464 14.1402 119.958 13.6117 120.598 13.233C121.238 12.8504 122 12.6591 122.882 12.6591C123.643 12.6591 124.31 12.7973 124.882 13.0739C125.454 13.3504 125.907 13.7386 126.24 14.2386C126.573 14.7386 126.757 15.3258 126.791 16H124.507C124.443 15.5644 124.272 15.214 123.996 14.9489C123.723 14.6799 123.365 14.5455 122.922 14.5455C122.547 14.5455 122.219 14.6477 121.939 14.8523C121.662 15.053 121.446 15.3466 121.291 15.733C121.136 16.1193 121.058 16.5871 121.058 17.1364C121.058 17.6932 121.134 18.1667 121.286 18.5568C121.441 18.947 121.659 19.2443 121.939 19.4489C122.219 19.6534 122.547 19.7557 122.922 19.7557C123.198 19.7557 123.446 19.6989 123.666 19.5852C123.89 19.4716 124.073 19.3068 124.217 19.0909C124.365 18.8712 124.462 18.608 124.507 18.3011H126.791C126.753 18.9678 126.571 19.5549 126.246 20.0625C125.924 20.5663 125.479 20.9602 124.911 21.2443C124.342 21.5284 123.67 21.6705 122.893 21.6705ZM139.3 9.56818L140.038 11.1477C139.792 11.3523 139.519 11.5038 139.22 11.6023C138.921 11.697 138.563 11.7595 138.146 11.7898C137.733 11.8201 137.23 11.8409 136.635 11.8523C135.961 11.8598 135.411 11.9678 134.987 12.1761C134.563 12.3845 134.241 12.7121 134.021 13.1591C133.802 13.6023 133.658 14.1818 133.589 14.8977H133.675C133.936 14.3636 134.304 13.9508 134.777 13.6591C135.254 13.3674 135.843 13.2216 136.544 13.2216C137.286 13.2216 137.936 13.3845 138.493 13.7102C139.054 14.036 139.489 14.5038 139.8 15.1136C140.11 15.7235 140.266 16.4545 140.266 17.3068C140.266 18.1932 140.091 18.964 139.743 19.6193C139.398 20.2708 138.908 20.7765 138.271 21.1364C137.635 21.4924 136.877 21.6705 135.999 21.6705C135.116 21.6705 134.355 21.4848 133.714 21.1136C133.078 20.7424 132.586 20.1951 132.237 19.4716C131.893 18.7481 131.72 17.858 131.72 16.8011V16.0852C131.72 13.983 132.129 12.4242 132.947 11.4091C133.766 10.3939 134.968 9.87879 136.555 9.86364C136.987 9.85606 137.377 9.85417 137.726 9.85795C138.074 9.86174 138.379 9.8447 138.641 9.80682C138.906 9.76894 139.125 9.68939 139.3 9.56818ZM136.01 19.7955C136.381 19.7955 136.699 19.6989 136.964 19.5057C137.233 19.3125 137.44 19.036 137.584 18.6761C137.732 18.3163 137.805 17.8864 137.805 17.3864C137.805 16.8902 137.732 16.4697 137.584 16.125C137.44 15.7765 137.233 15.5114 136.964 15.3295C136.696 15.1477 136.374 15.0568 135.999 15.0568C135.718 15.0568 135.466 15.108 135.243 15.2102C135.019 15.3125 134.828 15.464 134.669 15.6648C134.514 15.8617 134.393 16.1061 134.305 16.3977C134.222 16.6856 134.18 17.0152 134.18 17.3864C134.18 18.1326 134.341 18.7216 134.663 19.1534C134.989 19.5814 135.438 19.7955 136.01 19.7955ZM145.849 21.6705C144.952 21.6705 144.179 21.4886 143.531 21.125C142.887 20.7576 142.391 20.2386 142.043 19.5682C141.694 18.8939 141.52 18.0966 141.52 17.1761C141.52 16.2784 141.694 15.4905 142.043 14.8125C142.391 14.1345 142.882 13.6061 143.514 13.2273C144.151 12.8485 144.897 12.6591 145.753 12.6591C146.329 12.6591 146.865 12.7519 147.361 12.9375C147.861 13.1193 148.296 13.3939 148.668 13.7614C149.043 14.1288 149.334 14.5909 149.543 15.1477C149.751 15.7008 149.855 16.3485 149.855 17.0909V17.7557H142.486V16.2557H147.577C147.577 15.9072 147.501 15.5985 147.349 15.3295C147.198 15.0606 146.988 14.8504 146.719 14.6989C146.454 14.5436 146.145 14.4659 145.793 14.4659C145.425 14.4659 145.099 14.5511 144.815 14.7216C144.535 14.8883 144.315 15.1136 144.156 15.3977C143.997 15.678 143.916 15.9905 143.912 16.3352V17.7614C143.912 18.1932 143.991 18.5663 144.151 18.8807C144.313 19.1951 144.543 19.4375 144.838 19.608C145.134 19.7784 145.484 19.8636 145.889 19.8636C146.158 19.8636 146.404 19.8258 146.628 19.75C146.851 19.6742 147.043 19.5606 147.202 19.4091C147.361 19.2576 147.482 19.072 147.565 18.8523L149.804 19C149.69 19.5379 149.457 20.0076 149.105 20.4091C148.757 20.8068 148.306 21.1174 147.753 21.3409C147.204 21.5606 146.569 21.6705 145.849 21.6705ZM151.435 24.7727V12.7727H153.821V14.2386H153.929C154.035 14.0038 154.188 13.7652 154.389 13.5227C154.594 13.2765 154.859 13.072 155.185 12.9091C155.514 12.7424 155.923 12.6591 156.412 12.6591C157.048 12.6591 157.635 12.8258 158.173 13.1591C158.711 13.4886 159.141 13.9867 159.463 14.6534C159.785 15.3163 159.946 16.1477 159.946 17.1477C159.946 18.1212 159.789 18.9432 159.474 19.6136C159.164 20.2803 158.74 20.786 158.202 21.1307C157.668 21.4716 157.069 21.642 156.406 21.642C155.937 21.642 155.537 21.5644 155.207 21.4091C154.882 21.2538 154.615 21.0587 154.406 20.8239C154.198 20.5852 154.039 20.3447 153.929 20.1023H153.855V24.7727H151.435ZM153.804 17.1364C153.804 17.6553 153.876 18.108 154.02 18.4943C154.164 18.8807 154.372 19.1818 154.645 19.3977C154.918 19.6098 155.249 19.7159 155.639 19.7159C156.033 19.7159 156.366 19.608 156.639 19.392C156.912 19.1723 157.118 18.8693 157.259 18.483C157.402 18.0928 157.474 17.6439 157.474 17.1364C157.474 16.6326 157.404 16.1894 157.264 15.8068C157.124 15.4242 156.918 15.125 156.645 14.9091C156.372 14.6932 156.037 14.5852 155.639 14.5852C155.245 14.5852 154.912 14.6894 154.639 14.8977C154.37 15.1061 154.164 15.4015 154.02 15.7841C153.876 16.1667 153.804 16.6174 153.804 17.1364ZM165.537 21.6705C164.639 21.6705 163.866 21.4886 163.219 21.125C162.575 20.7576 162.079 20.2386 161.73 19.5682C161.382 18.8939 161.207 18.0966 161.207 17.1761C161.207 16.2784 161.382 15.4905 161.73 14.8125C162.079 14.1345 162.569 13.6061 163.202 13.2273C163.838 12.8485 164.584 12.6591 165.44 12.6591C166.016 12.6591 166.552 12.7519 167.048 12.9375C167.548 13.1193 167.984 13.3939 168.355 13.7614C168.73 14.1288 169.022 14.5909 169.23 15.1477C169.438 15.7008 169.543 16.3485 169.543 17.0909V17.7557H162.173V16.2557H167.264C167.264 15.9072 167.188 15.5985 167.037 15.3295C166.885 15.0606 166.675 14.8504 166.406 14.6989C166.141 14.5436 165.832 14.4659 165.48 14.4659C165.113 14.4659 164.787 14.5511 164.503 14.7216C164.223 14.8883 164.003 15.1136 163.844 15.3977C163.685 15.678 163.603 15.9905 163.599 16.3352V17.7614C163.599 18.1932 163.679 18.5663 163.838 18.8807C164.001 19.1951 164.23 19.4375 164.526 19.608C164.821 19.7784 165.171 19.8636 165.577 19.8636C165.846 19.8636 166.092 19.8258 166.315 19.75C166.539 19.6742 166.73 19.5606 166.889 19.4091C167.048 19.2576 167.17 19.072 167.253 18.8523L169.491 19C169.378 19.5379 169.145 20.0076 168.793 20.4091C168.444 20.8068 167.993 21.1174 167.44 21.3409C166.891 21.5606 166.257 21.6705 165.537 21.6705ZM170.398 21.5L173.449 16.9602L170.415 12.7727H173.176L175.443 16.1875H175.818V12.7727H178.239V16.1875H178.602L180.869 12.7727H183.631L180.602 16.9602L183.648 21.5H180.824L178.58 18.0909H178.239V21.5H175.818V18.0909H175.477L173.222 21.5H170.398ZM184.501 21.5L184.49 19.5795H184.78C184.984 19.5795 185.161 19.5303 185.308 19.4318C185.46 19.3295 185.585 19.1648 185.683 18.9375C185.782 18.7102 185.859 18.4091 185.916 18.0341C185.973 17.6553 186.011 17.1894 186.03 16.6364L186.172 12.7727H192.808V21.5H190.501V14.6761H188.348L188.212 17.3409C188.178 18.072 188.089 18.7008 187.945 19.2273C187.804 19.7538 187.609 20.1856 187.359 20.5227C187.109 20.8561 186.808 21.1023 186.456 21.2614C186.104 21.4205 185.695 21.5 185.229 21.5H184.501ZM196.997 18.3068L200.139 12.7727H202.526V21.5H200.219V15.9489L197.088 21.5H194.685V12.7727H196.997V18.3068ZM204.466 21.5V12.7727H208.188C209.263 12.7727 210.114 12.9773 210.739 13.3864C211.364 13.7955 211.676 14.3769 211.676 15.1307C211.676 15.6042 211.5 15.9981 211.148 16.3125C210.795 16.6269 210.307 16.839 209.682 16.9489C210.205 16.9867 210.65 17.1061 211.017 17.3068C211.388 17.5038 211.67 17.7595 211.864 18.0739C212.061 18.3883 212.159 18.7367 212.159 19.1193C212.159 19.6155 212.027 20.0417 211.761 20.3977C211.5 20.7538 211.116 21.0265 210.608 21.2159C210.104 21.4053 209.489 21.5 208.761 21.5H204.466ZM206.722 19.6875H208.761C209.098 19.6875 209.362 19.608 209.551 19.4489C209.744 19.286 209.841 19.0644 209.841 18.7841C209.841 18.4735 209.744 18.2292 209.551 18.0511C209.362 17.8731 209.098 17.7841 208.761 17.7841H206.722V19.6875ZM206.722 16.3636H208.239C208.481 16.3636 208.688 16.3295 208.858 16.2614C209.032 16.1894 209.165 16.0871 209.256 15.9545C209.35 15.822 209.398 15.6648 209.398 15.483C209.398 15.214 209.29 15.0038 209.074 14.8523C208.858 14.7008 208.562 14.625 208.188 14.625H206.722V16.3636ZM215.202 15.4545H217.81C218.965 15.4545 219.866 15.7311 220.514 16.2841C221.162 16.8333 221.486 17.5682 221.486 18.4886C221.486 19.0871 221.34 19.6136 221.048 20.0682C220.757 20.5189 220.336 20.8712 219.787 21.125C219.238 21.375 218.579 21.5 217.81 21.5H213.685V12.7727H215.997V19.5966H217.81C218.215 19.5966 218.548 19.4943 218.81 19.2898C219.071 19.0852 219.204 18.8239 219.207 18.5057C219.204 18.1686 219.071 17.8939 218.81 17.6818C218.548 17.4659 218.215 17.358 217.81 17.358H215.202V15.4545ZM222.423 21.5V12.7727H224.844V21.5H222.423ZM228.801 12.7727L230.403 15.8239L232.045 12.7727H234.528L232 17.1364L234.597 21.5H232.125L230.403 18.483L228.71 21.5H226.21L228.801 17.1364L226.301 12.7727H228.801ZM239.214 14.6761V12.7727H247.124V14.6761H244.311V21.5H242.004V14.6761H239.214ZM252.256 21.6705C251.358 21.6705 250.585 21.4886 249.938 21.125C249.294 20.7576 248.797 20.2386 248.449 19.5682C248.1 18.8939 247.926 18.0966 247.926 17.1761C247.926 16.2784 248.1 15.4905 248.449 14.8125C248.797 14.1345 249.288 13.6061 249.92 13.2273C250.557 12.8485 251.303 12.6591 252.159 12.6591C252.735 12.6591 253.271 12.7519 253.767 12.9375C254.267 13.1193 254.703 13.3939 255.074 13.7614C255.449 14.1288 255.741 14.5909 255.949 15.1477C256.157 15.7008 256.261 16.3485 256.261 17.0909V17.7557H248.892V16.2557H253.983C253.983 15.9072 253.907 15.5985 253.756 15.3295C253.604 15.0606 253.394 14.8504 253.125 14.6989C252.86 14.5436 252.551 14.4659 252.199 14.4659C251.831 14.4659 251.506 14.5511 251.222 14.7216C250.941 14.8883 250.722 15.1136 250.562 15.3977C250.403 15.678 250.322 15.9905 250.318 16.3352V17.7614C250.318 18.1932 250.398 18.5663 250.557 18.8807C250.72 19.1951 250.949 19.4375 251.244 19.608C251.54 19.7784 251.89 19.8636 252.295 19.8636C252.564 19.8636 252.811 19.8258 253.034 19.75C253.258 19.6742 253.449 19.5606 253.608 19.4091C253.767 19.2576 253.888 19.072 253.972 18.8523L256.21 19C256.097 19.5379 255.864 20.0076 255.511 20.4091C255.163 20.8068 254.712 21.1174 254.159 21.3409C253.61 21.5606 252.975 21.6705 252.256 21.6705ZM259.707 12.7727L261.31 15.8239L262.952 12.7727H265.435L262.906 17.1364L265.503 21.5H263.031L261.31 18.483L259.616 21.5H257.116L259.707 17.1364L257.207 12.7727H259.707ZM272.946 16.1705V18.0739H268.389V16.1705H272.946ZM269.185 12.7727V21.5H266.872V12.7727H269.185ZM274.463 12.7727V21.5H272.168V12.7727H274.463ZM280.284 21.6705C279.402 21.6705 278.638 21.483 277.994 21.108C277.354 20.7292 276.86 20.2027 276.511 19.5284C276.163 18.8504 275.989 18.0644 275.989 17.1705C275.989 16.2689 276.163 15.4811 276.511 14.8068C276.86 14.1288 277.354 13.6023 277.994 13.2273C278.638 12.8485 279.402 12.6591 280.284 12.6591C281.167 12.6591 281.928 12.8485 282.568 13.2273C283.212 13.6023 283.708 14.1288 284.057 14.8068C284.405 15.4811 284.58 16.2689 284.58 17.1705C284.58 18.0644 284.405 18.8504 284.057 19.5284C283.708 20.2027 283.212 20.7292 282.568 21.108C281.928 21.483 281.167 21.6705 280.284 21.6705ZM280.295 19.7955C280.697 19.7955 281.032 19.6818 281.301 19.4545C281.57 19.2235 281.773 18.9091 281.909 18.5114C282.049 18.1136 282.119 17.661 282.119 17.1534C282.119 16.6458 282.049 16.1932 281.909 15.7955C281.773 15.3977 281.57 15.0833 281.301 14.8523C281.032 14.6212 280.697 14.5057 280.295 14.5057C279.89 14.5057 279.549 14.6212 279.273 14.8523C279 15.0833 278.794 15.3977 278.653 15.7955C278.517 16.1932 278.449 16.6458 278.449 17.1534C278.449 17.661 278.517 18.1136 278.653 18.5114C278.794 18.9091 279 19.2235 279.273 19.4545C279.549 19.6818 279.89 19.7955 280.295 19.7955ZM285.642 21.5L285.631 19.5795H285.92C286.125 19.5795 286.301 19.5303 286.449 19.4318C286.6 19.3295 286.725 19.1648 286.824 18.9375C286.922 18.7102 287 18.4091 287.057 18.0341C287.114 17.6553 287.152 17.1894 287.17 16.6364L287.312 12.7727H293.949V21.5H291.642V14.6761H289.489L289.352 17.3409C289.318 18.072 289.229 18.7008 289.085 19.2273C288.945 19.7538 288.75 20.1856 288.5 20.5227C288.25 20.8561 287.949 21.1023 287.597 21.2614C287.244 21.4205 286.835 21.5 286.369 21.5H285.642ZM299.768 21.6705C298.886 21.6705 298.123 21.483 297.479 21.108C296.839 20.7292 296.344 20.2027 295.996 19.5284C295.647 18.8504 295.473 18.0644 295.473 17.1705C295.473 16.2689 295.647 15.4811 295.996 14.8068C296.344 14.1288 296.839 13.6023 297.479 13.2273C298.123 12.8485 298.886 12.6591 299.768 12.6591C300.651 12.6591 301.412 12.8485 302.053 13.2273C302.696 13.6023 303.193 14.1288 303.541 14.8068C303.89 15.4811 304.064 16.2689 304.064 17.1705C304.064 18.0644 303.89 18.8504 303.541 19.5284C303.193 20.2027 302.696 20.7292 302.053 21.108C301.412 21.483 300.651 21.6705 299.768 21.6705ZM299.78 19.7955C300.181 19.7955 300.517 19.6818 300.786 19.4545C301.054 19.2235 301.257 18.9091 301.393 18.5114C301.534 18.1136 301.604 17.661 301.604 17.1534C301.604 16.6458 301.534 16.1932 301.393 15.7955C301.257 15.3977 301.054 15.0833 300.786 14.8523C300.517 14.6212 300.181 14.5057 299.78 14.5057C299.375 14.5057 299.034 14.6212 298.757 14.8523C298.484 15.0833 298.278 15.3977 298.138 15.7955C298.001 16.1932 297.933 16.6458 297.933 17.1534C297.933 17.661 298.001 18.1136 298.138 18.5114C298.278 18.9091 298.484 19.2235 298.757 19.4545C299.034 19.6818 299.375 19.7955 299.78 19.7955ZM311.615 12.7727V14.6761H307.99V21.5H305.638V12.7727H311.615ZM315.403 18.3068L318.545 12.7727H320.932V21.5H318.625V15.9489L315.494 21.5H313.091V12.7727H315.403V18.3068ZM325.185 18.3068L328.327 12.7727H330.713V21.5H328.406V15.9489L325.276 21.5H322.872V12.7727H325.185V18.3068ZM327.912 9.72727H329.599C329.596 10.4167 329.34 10.9716 328.832 11.392C328.329 11.8125 327.647 12.0227 326.787 12.0227C325.923 12.0227 325.24 11.8125 324.736 11.392C324.232 10.9716 323.98 10.4167 323.98 9.72727H325.656C325.652 9.98864 325.736 10.2235 325.906 10.4318C326.08 10.6402 326.374 10.7443 326.787 10.7443C327.188 10.7443 327.476 10.642 327.651 10.4375C327.825 10.233 327.912 9.99621 327.912 9.72727Z" fill="#FEFEFE"/>
</svg>
