<svg width="120" height="120" viewBox="0 0 120 120" fill="none" xmlns="http://www.w3.org/2000/svg">
<rect width="120" height="120" rx="12" fill="#F4F6FF"/>
<g clip-path="url(#clip0_135_129)">
<path d="M44.6584 15.9505C45.7493 15.9505 46.6336 15.0661 46.6336 13.9752C46.6336 12.8843 45.7493 12 44.6584 12C43.5675 12 42.6832 12.8843 42.6832 13.9752C42.6832 15.0661 43.5675 15.9505 44.6584 15.9505Z" fill="#111827"/>
<path d="M60 15.9505C61.0909 15.9505 61.9752 15.0661 61.9752 13.9752C61.9752 12.8843 61.0909 12 60 12C58.9091 12 58.0248 12.8843 58.0248 13.9752C58.0248 15.0661 58.9091 15.9505 60 15.9505Z" fill="#111827"/>
<path d="M63.8354 15.9505C64.9263 15.9505 65.8106 15.0661 65.8106 13.9752C65.8106 12.8843 64.9263 12 63.8354 12C62.7445 12 61.8602 12.8843 61.8602 13.9752C61.8602 15.0661 62.7445 15.9505 63.8354 15.9505Z" fill="#111827"/>
<path d="M71.5062 15.9505C72.5971 15.9505 73.4815 15.0661 73.4815 13.9752C73.4815 12.8843 72.5971 12 71.5062 12C70.4153 12 69.531 12.8843 69.531 13.9752C69.531 15.0661 70.4153 15.9505 71.5062 15.9505Z" fill="#111827"/>
<path d="M48.4938 19.7859C49.5847 19.7859 50.469 18.9016 50.469 17.8107C50.469 16.7198 49.5847 15.8354 48.4938 15.8354C47.4029 15.8354 46.5186 16.7198 46.5186 17.8107C46.5186 18.9016 47.4029 19.7859 48.4938 19.7859Z" fill="#111827"/>
<path d="M56.1646 19.7859C57.2555 19.7859 58.1399 18.9016 58.1399 17.8107C58.1399 16.7198 57.2555 15.8354 56.1646 15.8354C55.0737 15.8354 54.1894 16.7198 54.1894 17.8107C54.1894 18.9016 55.0737 19.7859 56.1646 19.7859Z" fill="#111827"/>
<path d="M60 19.7859C61.0909 19.7859 61.9752 18.9016 61.9752 17.8107C61.9752 16.7198 61.0909 15.8354 60 15.8354C58.9091 15.8354 58.0248 16.7198 58.0248 17.8107C58.0248 18.9016 58.9091 19.7859 60 19.7859Z" fill="#111827"/>
<path d="M63.8354 19.7859C64.9263 19.7859 65.8106 18.9016 65.8106 17.8107C65.8106 16.7198 64.9263 15.8354 63.8354 15.8354C62.7445 15.8354 61.8602 16.7198 61.8602 17.8107C61.8602 18.9016 62.7445 19.7859 63.8354 19.7859Z" fill="#111827"/>
<path d="M67.6708 19.7859C68.7617 19.7859 69.646 18.9016 69.646 17.8107C69.646 16.7198 68.7617 15.8354 67.6708 15.8354C66.5799 15.8354 65.6956 16.7198 65.6956 17.8107C65.6956 18.9016 66.5799 19.7859 67.6708 19.7859Z" fill="#111827"/>
<path d="M71.5062 19.7859C72.5971 19.7859 73.4815 18.9016 73.4815 17.8107C73.4815 16.7198 72.5971 15.8354 71.5062 15.8354C70.4153 15.8354 69.531 16.7198 69.531 17.8107C69.531 18.9016 70.4153 19.7859 71.5062 19.7859Z" fill="#111827"/>
<path d="M75.3416 19.7859C76.4325 19.7859 77.3168 18.9016 77.3168 17.8107C77.3168 16.7198 76.4325 15.8354 75.3416 15.8354C74.2507 15.8354 73.3663 16.7198 73.3663 17.8107C73.3663 18.9016 74.2507 19.7859 75.3416 19.7859Z" fill="#111827"/>
<path d="M56.1646 23.6214C57.2555 23.6214 58.1399 22.737 58.1399 21.6461C58.1399 20.5552 57.2555 19.6709 56.1646 19.6709C55.0737 19.6709 54.1894 20.5552 54.1894 21.6461C54.1894 22.737 55.0737 23.6214 56.1646 23.6214Z" fill="#111827"/>
<path d="M60 23.6214C61.0909 23.6214 61.9752 22.737 61.9752 21.6461C61.9752 20.5552 61.0909 19.6709 60 19.6709C58.9091 19.6709 58.0248 20.5552 58.0248 21.6461C58.0248 22.737 58.9091 23.6214 60 23.6214Z" fill="#111827"/>
<path d="M63.8354 23.6214C64.9263 23.6214 65.8106 22.737 65.8106 21.6461C65.8106 20.5552 64.9263 19.6709 63.8354 19.6709C62.7445 19.6709 61.8602 20.5552 61.8602 21.6461C61.8602 22.737 62.7445 23.6214 63.8354 23.6214Z" fill="#111827"/>
<path d="M75.3416 23.6214C76.4325 23.6214 77.3168 22.737 77.3168 21.6461C77.3168 20.5552 76.4325 19.6709 75.3416 19.6709C74.2507 19.6709 73.3663 20.5552 73.3663 21.6461C73.3663 22.737 74.2507 23.6214 75.3416 23.6214Z" fill="#111827"/>
<path d="M60 27.4563C61.0909 27.4563 61.9752 26.572 61.9752 25.4811C61.9752 24.3902 61.0909 23.5059 60 23.5059C58.9091 23.5059 58.0248 24.3902 58.0248 25.4811C58.0248 26.572 58.9091 27.4563 60 27.4563Z" fill="#111827"/>
<path d="M67.6708 27.4563C68.7617 27.4563 69.646 26.572 69.646 25.4811C69.646 24.3902 68.7617 23.5059 67.6708 23.5059C66.5799 23.5059 65.6956 24.3902 65.6956 25.4811C65.6956 26.572 66.5799 27.4563 67.6708 27.4563Z" fill="#111827"/>
<path d="M44.6584 31.2918C45.7493 31.2918 46.6336 30.4074 46.6336 29.3165C46.6336 28.2256 45.7493 27.3413 44.6584 27.3413C43.5675 27.3413 42.6832 28.2256 42.6832 29.3165C42.6832 30.4074 43.5675 31.2918 44.6584 31.2918Z" fill="#111827"/>
<path d="M52.3292 31.2918C53.4201 31.2918 54.3045 30.4074 54.3045 29.3165C54.3045 28.2256 53.4201 27.3413 52.3292 27.3413C51.2383 27.3413 50.354 28.2256 50.354 29.3165C50.354 30.4074 51.2383 31.2918 52.3292 31.2918Z" fill="#111827"/>
<path d="M60 31.2918C61.0909 31.2918 61.9752 30.4074 61.9752 29.3165C61.9752 28.2256 61.0909 27.3413 60 27.3413C58.9091 27.3413 58.0248 28.2256 58.0248 29.3165C58.0248 30.4074 58.9091 31.2918 60 31.2918Z" fill="#111827"/>
<path d="M44.6584 35.1272C45.7493 35.1272 46.6336 34.2429 46.6336 33.152C46.6336 32.0611 45.7493 31.1768 44.6584 31.1768C43.5675 31.1768 42.6832 32.0611 42.6832 33.152C42.6832 34.2429 43.5675 35.1272 44.6584 35.1272Z" fill="#111827"/>
<path d="M52.3292 35.1272C53.4201 35.1272 54.3045 34.2429 54.3045 33.152C54.3045 32.0611 53.4201 31.1768 52.3292 31.1768C51.2383 31.1768 50.354 32.0611 50.354 33.152C50.354 34.2429 51.2383 35.1272 52.3292 35.1272Z" fill="#111827"/>
<path d="M56.1646 35.1272C57.2555 35.1272 58.1399 34.2429 58.1399 33.152C58.1399 32.0611 57.2555 31.1768 56.1646 31.1768C55.0737 31.1768 54.1894 32.0611 54.1894 33.152C54.1894 34.2429 55.0737 35.1272 56.1646 35.1272Z" fill="#111827"/>
<path d="M60 35.1272C61.0909 35.1272 61.9752 34.2429 61.9752 33.152C61.9752 32.0611 61.0909 31.1768 60 31.1768C58.9091 31.1768 58.0248 32.0611 58.0248 33.152C58.0248 34.2429 58.9091 35.1272 60 35.1272Z" fill="#111827"/>
<path d="M71.5062 35.1272C72.5971 35.1272 73.4815 34.2429 73.4815 33.152C73.4815 32.0611 72.5971 31.1768 71.5062 31.1768C70.4153 31.1768 69.531 32.0611 69.531 33.152C69.531 34.2429 70.4153 35.1272 71.5062 35.1272Z" fill="#111827"/>
<path d="M75.3416 35.1272C76.4325 35.1272 77.3168 34.2429 77.3168 33.152C77.3168 32.0611 76.4325 31.1768 75.3416 31.1768C74.2507 31.1768 73.3663 32.0611 73.3663 33.152C73.3663 34.2429 74.2507 35.1272 75.3416 35.1272Z" fill="#111827"/>
<path d="M44.6584 38.9627C45.7493 38.9627 46.6336 38.0783 46.6336 36.9874C46.6336 35.8965 45.7493 35.0122 44.6584 35.0122C43.5675 35.0122 42.6832 35.8965 42.6832 36.9874C42.6832 38.0783 43.5675 38.9627 44.6584 38.9627Z" fill="#111827"/>
<path d="M52.3292 38.9627C53.4201 38.9627 54.3045 38.0783 54.3045 36.9874C54.3045 35.8965 53.4201 35.0122 52.3292 35.0122C51.2383 35.0122 50.354 35.8965 50.354 36.9874C50.354 38.0783 51.2383 38.9627 52.3292 38.9627Z" fill="#111827"/>
<path d="M60 38.9627C61.0909 38.9627 61.9752 38.0783 61.9752 36.9874C61.9752 35.8965 61.0909 35.0122 60 35.0122C58.9091 35.0122 58.0248 35.8965 58.0248 36.9874C58.0248 38.0783 58.9091 38.9627 60 38.9627Z" fill="#111827"/>
<path d="M67.6708 38.9627C68.7617 38.9627 69.646 38.0783 69.646 36.9874C69.646 35.8965 68.7617 35.0122 67.6708 35.0122C66.5799 35.0122 65.6956 35.8965 65.6956 36.9874C65.6956 38.0783 66.5799 38.9627 67.6708 38.9627Z" fill="#111827"/>
<path d="M75.3416 38.9627C76.4325 38.9627 77.3168 38.0783 77.3168 36.9874C77.3168 35.8965 76.4325 35.0122 75.3416 35.0122C74.2507 35.0122 73.3663 35.8965 73.3663 36.9874C73.3663 38.0783 74.2507 38.9627 75.3416 38.9627Z" fill="#111827"/>
<path d="M56.1646 42.7981C57.2555 42.7981 58.1399 41.9138 58.1399 40.8229C58.1399 39.732 57.2555 38.8477 56.1646 38.8477C55.0737 38.8477 54.1894 39.732 54.1894 40.8229C54.1894 41.9138 55.0737 42.7981 56.1646 42.7981Z" fill="#111827"/>
<path d="M67.6708 42.7981C68.7617 42.7981 69.646 41.9138 69.646 40.8229C69.646 39.732 68.7617 38.8477 67.6708 38.8477C66.5799 38.8477 65.6956 39.732 65.6956 40.8229C65.6956 41.9138 66.5799 42.7981 67.6708 42.7981Z" fill="#111827"/>
<path d="M71.5062 42.7981C72.5971 42.7981 73.4815 41.9138 73.4815 40.8229C73.4815 39.732 72.5971 38.8477 71.5062 38.8477C70.4153 38.8477 69.531 39.732 69.531 40.8229C69.531 41.9138 70.4153 42.7981 71.5062 42.7981Z" fill="#111827"/>
<path d="M75.3416 42.7981C76.4325 42.7981 77.3168 41.9138 77.3168 40.8229C77.3168 39.732 76.4325 38.8477 75.3416 38.8477C74.2507 38.8477 73.3663 39.732 73.3663 40.8229C73.3663 41.9138 74.2507 42.7981 75.3416 42.7981Z" fill="#111827"/>
<path d="M17.8106 46.6336C18.9015 46.6336 19.7858 45.7492 19.7858 44.6583C19.7858 43.5674 18.9015 42.6831 17.8106 42.6831C16.7197 42.6831 15.8354 43.5674 15.8354 44.6583C15.8354 45.7492 16.7197 46.6336 17.8106 46.6336Z" fill="#111827"/>
<path d="M21.646 46.6336C22.7369 46.6336 23.6212 45.7492 23.6212 44.6583C23.6212 43.5674 22.7369 42.6831 21.646 42.6831C20.5551 42.6831 19.6708 43.5674 19.6708 44.6583C19.6708 45.7492 20.5551 46.6336 21.646 46.6336Z" fill="#111827"/>
<path d="M25.4814 46.6336C26.5723 46.6336 27.4566 45.7492 27.4566 44.6583C27.4566 43.5674 26.5723 42.6831 25.4814 42.6831C24.3905 42.6831 23.5062 43.5674 23.5062 44.6583C23.5062 45.7492 24.3905 46.6336 25.4814 46.6336Z" fill="#111827"/>
<path d="M29.3168 46.6336C30.4077 46.6336 31.2921 45.7492 31.2921 44.6583C31.2921 43.5674 30.4077 42.6831 29.3168 42.6831C28.226 42.6831 27.3416 43.5674 27.3416 44.6583C27.3416 45.7492 28.226 46.6336 29.3168 46.6336Z" fill="#111827"/>
<path d="M33.1522 46.6336C34.2431 46.6336 35.1275 45.7492 35.1275 44.6583C35.1275 43.5674 34.2431 42.6831 33.1522 42.6831C32.0613 42.6831 31.177 43.5674 31.177 44.6583C31.177 45.7492 32.0613 46.6336 33.1522 46.6336Z" fill="#111827"/>
<path d="M36.9876 46.6336C38.0785 46.6336 38.9628 45.7492 38.9628 44.6583C38.9628 43.5674 38.0785 42.6831 36.9876 42.6831C35.8967 42.6831 35.0124 43.5674 35.0124 44.6583C35.0124 45.7492 35.8967 46.6336 36.9876 46.6336Z" fill="#111827"/>
<path d="M40.823 46.6336C41.9139 46.6336 42.7982 45.7492 42.7982 44.6583C42.7982 43.5674 41.9139 42.6831 40.823 42.6831C39.7321 42.6831 38.8478 43.5674 38.8478 44.6583C38.8478 45.7492 39.7321 46.6336 40.823 46.6336Z" fill="#111827"/>
<path d="M48.4938 46.6336C49.5847 46.6336 50.469 45.7492 50.469 44.6583C50.469 43.5674 49.5847 42.6831 48.4938 42.6831C47.4029 42.6831 46.5186 43.5674 46.5186 44.6583C46.5186 45.7492 47.4029 46.6336 48.4938 46.6336Z" fill="#111827"/>
<path d="M52.3292 46.6336C53.4201 46.6336 54.3045 45.7492 54.3045 44.6583C54.3045 43.5674 53.4201 42.6831 52.3292 42.6831C51.2383 42.6831 50.354 43.5674 50.354 44.6583C50.354 45.7492 51.2383 46.6336 52.3292 46.6336Z" fill="#111827"/>
<path d="M56.1646 46.6336C57.2555 46.6336 58.1399 45.7492 58.1399 44.6583C58.1399 43.5674 57.2555 42.6831 56.1646 42.6831C55.0737 42.6831 54.1894 43.5674 54.1894 44.6583C54.1894 45.7492 55.0737 46.6336 56.1646 46.6336Z" fill="#111827"/>
<path d="M71.5062 46.6336C72.5971 46.6336 73.4815 45.7492 73.4815 44.6583C73.4815 43.5674 72.5971 42.6831 71.5062 42.6831C70.4153 42.6831 69.531 43.5674 69.531 44.6583C69.531 45.7492 70.4153 46.6336 71.5062 46.6336Z" fill="#111827"/>
<path d="M75.3416 46.6336C76.4325 46.6336 77.3168 45.7492 77.3168 44.6583C77.3168 43.5674 76.4325 42.6831 75.3416 42.6831C74.2507 42.6831 73.3663 43.5674 73.3663 44.6583C73.3663 45.7492 74.2507 46.6336 75.3416 46.6336Z" fill="#111827"/>
<path d="M86.8478 46.6336C87.9387 46.6336 88.823 45.7492 88.823 44.6583C88.823 43.5674 87.9387 42.6831 86.8478 42.6831C85.7569 42.6831 84.8726 43.5674 84.8726 44.6583C84.8726 45.7492 85.7569 46.6336 86.8478 46.6336Z" fill="#111827"/>
<path d="M90.6832 46.6336C91.7741 46.6336 92.6584 45.7492 92.6584 44.6583C92.6584 43.5674 91.7741 42.6831 90.6832 42.6831C89.5923 42.6831 88.7079 43.5674 88.7079 44.6583C88.7079 45.7492 89.5923 46.6336 90.6832 46.6336Z" fill="#111827"/>
<path d="M106.025 46.6336C107.116 46.6336 108 45.7492 108 44.6583C108 43.5674 107.116 42.6831 106.025 42.6831C104.934 42.6831 104.05 43.5674 104.05 44.6583C104.05 45.7492 104.934 46.6336 106.025 46.6336Z" fill="#111827"/>
<path d="M13.9752 50.469C15.0661 50.469 15.9505 49.5847 15.9505 48.4938C15.9505 47.4029 15.0661 46.5186 13.9752 46.5186C12.8843 46.5186 12 47.4029 12 48.4938C12 49.5847 12.8843 50.469 13.9752 50.469Z" fill="#111827"/>
<path d="M21.646 50.469C22.7369 50.469 23.6212 49.5847 23.6212 48.4938C23.6212 47.4029 22.7369 46.5186 21.646 46.5186C20.5551 46.5186 19.6708 47.4029 19.6708 48.4938C19.6708 49.5847 20.5551 50.469 21.646 50.469Z" fill="#111827"/>
<path d="M25.4814 50.469C26.5723 50.469 27.4566 49.5847 27.4566 48.4938C27.4566 47.4029 26.5723 46.5186 25.4814 46.5186C24.3905 46.5186 23.5062 47.4029 23.5062 48.4938C23.5062 49.5847 24.3905 50.469 25.4814 50.469Z" fill="#111827"/>
<path d="M29.3168 50.469C30.4077 50.469 31.2921 49.5847 31.2921 48.4938C31.2921 47.4029 30.4077 46.5186 29.3168 46.5186C28.226 46.5186 27.3416 47.4029 27.3416 48.4938C27.3416 49.5847 28.226 50.469 29.3168 50.469Z" fill="#111827"/>
<path d="M33.1522 50.469C34.2431 50.469 35.1275 49.5847 35.1275 48.4938C35.1275 47.4029 34.2431 46.5186 33.1522 46.5186C32.0613 46.5186 31.177 47.4029 31.177 48.4938C31.177 49.5847 32.0613 50.469 33.1522 50.469Z" fill="#111827"/>
<path d="M40.823 50.469C41.9139 50.469 42.7982 49.5847 42.7982 48.4938C42.7982 47.4029 41.9139 46.5186 40.823 46.5186C39.7321 46.5186 38.8478 47.4029 38.8478 48.4938C38.8478 49.5847 39.7321 50.469 40.823 50.469Z" fill="#111827"/>
<path d="M52.3292 50.469C53.4201 50.469 54.3045 49.5847 54.3045 48.4938C54.3045 47.4029 53.4201 46.5186 52.3292 46.5186C51.2383 46.5186 50.354 47.4029 50.354 48.4938C50.354 49.5847 51.2383 50.469 52.3292 50.469Z" fill="#111827"/>
<path d="M56.1646 50.469C57.2555 50.469 58.1399 49.5847 58.1399 48.4938C58.1399 47.4029 57.2555 46.5186 56.1646 46.5186C55.0737 46.5186 54.1894 47.4029 54.1894 48.4938C54.1894 49.5847 55.0737 50.469 56.1646 50.469Z" fill="#111827"/>
<path d="M60 50.469C61.0909 50.469 61.9752 49.5847 61.9752 48.4938C61.9752 47.4029 61.0909 46.5186 60 46.5186C58.9091 46.5186 58.0248 47.4029 58.0248 48.4938C58.0248 49.5847 58.9091 50.469 60 50.469Z" fill="#111827"/>
<path d="M63.8354 50.469C64.9263 50.469 65.8106 49.5847 65.8106 48.4938C65.8106 47.4029 64.9263 46.5186 63.8354 46.5186C62.7445 46.5186 61.8602 47.4029 61.8602 48.4938C61.8602 49.5847 62.7445 50.469 63.8354 50.469Z" fill="#111827"/>
<path d="M67.6708 50.469C68.7617 50.469 69.646 49.5847 69.646 48.4938C69.646 47.4029 68.7617 46.5186 67.6708 46.5186C66.5799 46.5186 65.6956 47.4029 65.6956 48.4938C65.6956 49.5847 66.5799 50.469 67.6708 50.469Z" fill="#111827"/>
<path d="M75.3416 50.469C76.4325 50.469 77.3168 49.5847 77.3168 48.4938C77.3168 47.4029 76.4325 46.5186 75.3416 46.5186C74.2507 46.5186 73.3663 47.4029 73.3663 48.4938C73.3663 49.5847 74.2507 50.469 75.3416 50.469Z" fill="#111827"/>
<path d="M86.8478 50.469C87.9387 50.469 88.823 49.5847 88.823 48.4938C88.823 47.4029 87.9387 46.5186 86.8478 46.5186C85.7569 46.5186 84.8726 47.4029 84.8726 48.4938C84.8726 49.5847 85.7569 50.469 86.8478 50.469Z" fill="#111827"/>
<path d="M102.189 50.469C103.28 50.469 104.165 49.5847 104.165 48.4938C104.165 47.4029 103.28 46.5186 102.189 46.5186C101.099 46.5186 100.214 47.4029 100.214 48.4938C100.214 49.5847 101.099 50.469 102.189 50.469Z" fill="#111827"/>
<path d="M21.646 54.3045C22.7369 54.3045 23.6212 53.4201 23.6212 52.3292C23.6212 51.2383 22.7369 50.354 21.646 50.354C20.5551 50.354 19.6708 51.2383 19.6708 52.3292C19.6708 53.4201 20.5551 54.3045 21.646 54.3045Z" fill="#111827"/>
<path d="M36.9876 54.3045C38.0785 54.3045 38.9628 53.4201 38.9628 52.3292C38.9628 51.2383 38.0785 50.354 36.9876 50.354C35.8967 50.354 35.0124 51.2383 35.0124 52.3292C35.0124 53.4201 35.8967 54.3045 36.9876 54.3045Z" fill="#111827"/>
<path d="M52.3292 54.3045C53.4201 54.3045 54.3045 53.4201 54.3045 52.3292C54.3045 51.2383 53.4201 50.354 52.3292 50.354C51.2383 50.354 50.354 51.2383 50.354 52.3292C50.354 53.4201 51.2383 54.3045 52.3292 54.3045Z" fill="#111827"/>
<path d="M60 54.3045C61.0909 54.3045 61.9752 53.4201 61.9752 52.3292C61.9752 51.2383 61.0909 50.354 60 50.354C58.9091 50.354 58.0248 51.2383 58.0248 52.3292C58.0248 53.4201 58.9091 54.3045 60 54.3045Z" fill="#111827"/>
<path d="M63.8354 54.3045C64.9263 54.3045 65.8106 53.4201 65.8106 52.3292C65.8106 51.2383 64.9263 50.354 63.8354 50.354C62.7445 50.354 61.8602 51.2383 61.8602 52.3292C61.8602 53.4201 62.7445 54.3045 63.8354 54.3045Z" fill="#111827"/>
<path d="M67.6708 54.3045C68.7617 54.3045 69.646 53.4201 69.646 52.3292C69.646 51.2383 68.7617 50.354 67.6708 50.354C66.5799 50.354 65.6956 51.2383 65.6956 52.3292C65.6956 53.4201 66.5799 54.3045 67.6708 54.3045Z" fill="#111827"/>
<path d="M71.5062 54.3045C72.5971 54.3045 73.4815 53.4201 73.4815 52.3292C73.4815 51.2383 72.5971 50.354 71.5062 50.354C70.4153 50.354 69.531 51.2383 69.531 52.3292C69.531 53.4201 70.4153 54.3045 71.5062 54.3045Z" fill="#111827"/>
<path d="M90.6832 54.3045C91.7741 54.3045 92.6584 53.4201 92.6584 52.3292C92.6584 51.2383 91.7741 50.354 90.6832 50.354C89.5923 50.354 88.7079 51.2383 88.7079 52.3292C88.7079 53.4201 89.5923 54.3045 90.6832 54.3045Z" fill="#111827"/>
<path d="M94.5186 54.3045C95.6095 54.3045 96.4938 53.4201 96.4938 52.3292C96.4938 51.2383 95.6095 50.354 94.5186 50.354C93.4277 50.354 92.5433 51.2383 92.5433 52.3292C92.5433 53.4201 93.4277 54.3045 94.5186 54.3045Z" fill="#111827"/>
<path d="M102.189 54.3045C103.28 54.3045 104.165 53.4201 104.165 52.3292C104.165 51.2383 103.28 50.354 102.189 50.354C101.099 50.354 100.214 51.2383 100.214 52.3292C100.214 53.4201 101.099 54.3045 102.189 54.3045Z" fill="#111827"/>
<path d="M106.025 54.3045C107.116 54.3045 108 53.4201 108 52.3292C108 51.2383 107.116 50.354 106.025 50.354C104.934 50.354 104.05 51.2383 104.05 52.3292C104.05 53.4201 104.934 54.3045 106.025 54.3045Z" fill="#111827"/>
<path d="M25.4814 58.1399C26.5723 58.1399 27.4566 57.2556 27.4566 56.1647C27.4566 55.0738 26.5723 54.1895 25.4814 54.1895C24.3905 54.1895 23.5062 55.0738 23.5062 56.1647C23.5062 57.2556 24.3905 58.1399 25.4814 58.1399Z" fill="#111827"/>
<path d="M33.1522 58.1399C34.2431 58.1399 35.1275 57.2556 35.1275 56.1647C35.1275 55.0738 34.2431 54.1895 33.1522 54.1895C32.0613 54.1895 31.177 55.0738 31.177 56.1647C31.177 57.2556 32.0613 58.1399 33.1522 58.1399Z" fill="#111827"/>
<path d="M44.6584 58.1399C45.7493 58.1399 46.6336 57.2556 46.6336 56.1647C46.6336 55.0738 45.7493 54.1895 44.6584 54.1895C43.5675 54.1895 42.6832 55.0738 42.6832 56.1647C42.6832 57.2556 43.5675 58.1399 44.6584 58.1399Z" fill="#111827"/>
<path d="M48.4938 58.1399C49.5847 58.1399 50.469 57.2556 50.469 56.1647C50.469 55.0738 49.5847 54.1895 48.4938 54.1895C47.4029 54.1895 46.5186 55.0738 46.5186 56.1647C46.5186 57.2556 47.4029 58.1399 48.4938 58.1399Z" fill="#111827"/>
<path d="M60 58.1399C61.0909 58.1399 61.9752 57.2556 61.9752 56.1647C61.9752 55.0738 61.0909 54.1895 60 54.1895C58.9091 54.1895 58.0248 55.0738 58.0248 56.1647C58.0248 57.2556 58.9091 58.1399 60 58.1399Z" fill="#111827"/>
<path d="M63.8354 58.1399C64.9263 58.1399 65.8106 57.2556 65.8106 56.1647C65.8106 55.0738 64.9263 54.1895 63.8354 54.1895C62.7445 54.1895 61.8602 55.0738 61.8602 56.1647C61.8602 57.2556 62.7445 58.1399 63.8354 58.1399Z" fill="#111827"/>
<path d="M79.177 58.1399C80.2679 58.1399 81.1522 57.2556 81.1522 56.1647C81.1522 55.0738 80.2679 54.1895 79.177 54.1895C78.0861 54.1895 77.2018 55.0738 77.2018 56.1647C77.2018 57.2556 78.0861 58.1399 79.177 58.1399Z" fill="#111827"/>
<path d="M83.0124 58.1399C84.1033 58.1399 84.9876 57.2556 84.9876 56.1647C84.9876 55.0738 84.1033 54.1895 83.0124 54.1895C81.9215 54.1895 81.0372 55.0738 81.0372 56.1647C81.0372 57.2556 81.9215 58.1399 83.0124 58.1399Z" fill="#111827"/>
<path d="M86.8478 58.1399C87.9387 58.1399 88.823 57.2556 88.823 56.1647C88.823 55.0738 87.9387 54.1895 86.8478 54.1895C85.7569 54.1895 84.8726 55.0738 84.8726 56.1647C84.8726 57.2556 85.7569 58.1399 86.8478 58.1399Z" fill="#111827"/>
<path d="M106.025 58.1399C107.116 58.1399 108 57.2556 108 56.1647C108 55.0738 107.116 54.1895 106.025 54.1895C104.934 54.1895 104.05 55.0738 104.05 56.1647C104.05 57.2556 104.934 58.1399 106.025 58.1399Z" fill="#111827"/>
<path d="M36.9876 61.9749C38.0785 61.9749 38.9628 61.0905 38.9628 59.9996C38.9628 58.9088 38.0785 58.0244 36.9876 58.0244C35.8967 58.0244 35.0124 58.9088 35.0124 59.9996C35.0124 61.0905 35.8967 61.9749 36.9876 61.9749Z" fill="#111827"/>
<path d="M56.1646 61.9749C57.2555 61.9749 58.1399 61.0905 58.1399 59.9996C58.1399 58.9088 57.2555 58.0244 56.1646 58.0244C55.0737 58.0244 54.1894 58.9088 54.1894 59.9996C54.1894 61.0905 55.0737 61.9749 56.1646 61.9749Z" fill="#111827"/>
<path d="M60 61.9749C61.0909 61.9749 61.9752 61.0905 61.9752 59.9996C61.9752 58.9088 61.0909 58.0244 60 58.0244C58.9091 58.0244 58.0248 58.9088 58.0248 59.9996C58.0248 61.0905 58.9091 61.9749 60 61.9749Z" fill="#111827"/>
<path d="M67.6708 61.9749C68.7617 61.9749 69.646 61.0905 69.646 59.9996C69.646 58.9088 68.7617 58.0244 67.6708 58.0244C66.5799 58.0244 65.6956 58.9088 65.6956 59.9996C65.6956 61.0905 66.5799 61.9749 67.6708 61.9749Z" fill="#111827"/>
<path d="M71.5062 61.9749C72.5971 61.9749 73.4815 61.0905 73.4815 59.9996C73.4815 58.9088 72.5971 58.0244 71.5062 58.0244C70.4153 58.0244 69.531 58.9088 69.531 59.9996C69.531 61.0905 70.4153 61.9749 71.5062 61.9749Z" fill="#111827"/>
<path d="M75.3416 61.9749C76.4325 61.9749 77.3168 61.0905 77.3168 59.9996C77.3168 58.9088 76.4325 58.0244 75.3416 58.0244C74.2507 58.0244 73.3663 58.9088 73.3663 59.9996C73.3663 61.0905 74.2507 61.9749 75.3416 61.9749Z" fill="#111827"/>
<path d="M79.177 61.9749C80.2679 61.9749 81.1522 61.0905 81.1522 59.9996C81.1522 58.9088 80.2679 58.0244 79.177 58.0244C78.0861 58.0244 77.2018 58.9088 77.2018 59.9996C77.2018 61.0905 78.0861 61.9749 79.177 61.9749Z" fill="#111827"/>
<path d="M83.0124 61.9749C84.1033 61.9749 84.9876 61.0905 84.9876 59.9996C84.9876 58.9088 84.1033 58.0244 83.0124 58.0244C81.9215 58.0244 81.0372 58.9088 81.0372 59.9996C81.0372 61.0905 81.9215 61.9749 83.0124 61.9749Z" fill="#111827"/>
<path d="M90.6832 61.9749C91.7741 61.9749 92.6584 61.0905 92.6584 59.9996C92.6584 58.9088 91.7741 58.0244 90.6832 58.0244C89.5923 58.0244 88.7079 58.9088 88.7079 59.9996C88.7079 61.0905 89.5923 61.9749 90.6832 61.9749Z" fill="#111827"/>
<path d="M98.354 61.9749C99.4448 61.9749 100.329 61.0905 100.329 59.9996C100.329 58.9088 99.4448 58.0244 98.354 58.0244C97.2631 58.0244 96.3787 58.9088 96.3787 59.9996C96.3787 61.0905 97.2631 61.9749 98.354 61.9749Z" fill="#111827"/>
<path d="M102.189 61.9749C103.28 61.9749 104.165 61.0905 104.165 59.9996C104.165 58.9088 103.28 58.0244 102.189 58.0244C101.099 58.0244 100.214 58.9088 100.214 59.9996C100.214 61.0905 101.099 61.9749 102.189 61.9749Z" fill="#111827"/>
<path d="M106.025 61.9749C107.116 61.9749 108 61.0905 108 59.9996C108 58.9088 107.116 58.0244 106.025 58.0244C104.934 58.0244 104.05 58.9088 104.05 59.9996C104.05 61.0905 104.934 61.9749 106.025 61.9749Z" fill="#111827"/>
<path d="M13.9752 65.8103C15.0661 65.8103 15.9505 64.926 15.9505 63.8351C15.9505 62.7442 15.0661 61.8599 13.9752 61.8599C12.8843 61.8599 12 62.7442 12 63.8351C12 64.926 12.8843 65.8103 13.9752 65.8103Z" fill="#111827"/>
<path d="M17.8106 65.8103C18.9015 65.8103 19.7858 64.926 19.7858 63.8351C19.7858 62.7442 18.9015 61.8599 17.8106 61.8599C16.7197 61.8599 15.8354 62.7442 15.8354 63.8351C15.8354 64.926 16.7197 65.8103 17.8106 65.8103Z" fill="#111827"/>
<path d="M21.646 65.8103C22.7369 65.8103 23.6212 64.926 23.6212 63.8351C23.6212 62.7442 22.7369 61.8599 21.646 61.8599C20.5551 61.8599 19.6708 62.7442 19.6708 63.8351C19.6708 64.926 20.5551 65.8103 21.646 65.8103Z" fill="#111827"/>
<path d="M25.4814 65.8103C26.5723 65.8103 27.4566 64.926 27.4566 63.8351C27.4566 62.7442 26.5723 61.8599 25.4814 61.8599C24.3905 61.8599 23.5062 62.7442 23.5062 63.8351C23.5062 64.926 24.3905 65.8103 25.4814 65.8103Z" fill="#111827"/>
<path d="M33.1522 65.8103C34.2431 65.8103 35.1275 64.926 35.1275 63.8351C35.1275 62.7442 34.2431 61.8599 33.1522 61.8599C32.0613 61.8599 31.177 62.7442 31.177 63.8351C31.177 64.926 32.0613 65.8103 33.1522 65.8103Z" fill="#111827"/>
<path d="M40.823 65.8103C41.9139 65.8103 42.7982 64.926 42.7982 63.8351C42.7982 62.7442 41.9139 61.8599 40.823 61.8599C39.7321 61.8599 38.8478 62.7442 38.8478 63.8351C38.8478 64.926 39.7321 65.8103 40.823 65.8103Z" fill="#111827"/>
<path d="M48.4938 65.8103C49.5847 65.8103 50.469 64.926 50.469 63.8351C50.469 62.7442 49.5847 61.8599 48.4938 61.8599C47.4029 61.8599 46.5186 62.7442 46.5186 63.8351C46.5186 64.926 47.4029 65.8103 48.4938 65.8103Z" fill="#111827"/>
<path d="M52.3292 65.8103C53.4201 65.8103 54.3045 64.926 54.3045 63.8351C54.3045 62.7442 53.4201 61.8599 52.3292 61.8599C51.2383 61.8599 50.354 62.7442 50.354 63.8351C50.354 64.926 51.2383 65.8103 52.3292 65.8103Z" fill="#111827"/>
<path d="M60 65.8103C61.0909 65.8103 61.9752 64.926 61.9752 63.8351C61.9752 62.7442 61.0909 61.8599 60 61.8599C58.9091 61.8599 58.0248 62.7442 58.0248 63.8351C58.0248 64.926 58.9091 65.8103 60 65.8103Z" fill="#111827"/>
<path d="M75.3416 65.8103C76.4325 65.8103 77.3168 64.926 77.3168 63.8351C77.3168 62.7442 76.4325 61.8599 75.3416 61.8599C74.2507 61.8599 73.3663 62.7442 73.3663 63.8351C73.3663 64.926 74.2507 65.8103 75.3416 65.8103Z" fill="#111827"/>
<path d="M86.8478 65.8103C87.9387 65.8103 88.823 64.926 88.823 63.8351C88.823 62.7442 87.9387 61.8599 86.8478 61.8599C85.7569 61.8599 84.8726 62.7442 84.8726 63.8351C84.8726 64.926 85.7569 65.8103 86.8478 65.8103Z" fill="#111827"/>
<path d="M94.5186 65.8103C95.6095 65.8103 96.4938 64.926 96.4938 63.8351C96.4938 62.7442 95.6095 61.8599 94.5186 61.8599C93.4277 61.8599 92.5433 62.7442 92.5433 63.8351C92.5433 64.926 93.4277 65.8103 94.5186 65.8103Z" fill="#111827"/>
<path d="M102.189 65.8103C103.28 65.8103 104.165 64.926 104.165 63.8351C104.165 62.7442 103.28 61.8599 102.189 61.8599C101.099 61.8599 100.214 62.7442 100.214 63.8351C100.214 64.926 101.099 65.8103 102.189 65.8103Z" fill="#111827"/>
<path d="M13.9752 69.6458C15.0661 69.6458 15.9505 68.7614 15.9505 67.6705C15.9505 66.5797 15.0661 65.6953 13.9752 65.6953C12.8843 65.6953 12 66.5797 12 67.6705C12 68.7614 12.8843 69.6458 13.9752 69.6458Z" fill="#111827"/>
<path d="M29.3168 69.6458C30.4077 69.6458 31.2921 68.7614 31.2921 67.6705C31.2921 66.5797 30.4077 65.6953 29.3168 65.6953C28.226 65.6953 27.3416 66.5797 27.3416 67.6705C27.3416 68.7614 28.226 69.6458 29.3168 69.6458Z" fill="#111827"/>
<path d="M33.1522 69.6458C34.2431 69.6458 35.1275 68.7614 35.1275 67.6705C35.1275 66.5797 34.2431 65.6953 33.1522 65.6953C32.0613 65.6953 31.177 66.5797 31.177 67.6705C31.177 68.7614 32.0613 69.6458 33.1522 69.6458Z" fill="#111827"/>
<path d="M36.9876 69.6458C38.0785 69.6458 38.9628 68.7614 38.9628 67.6705C38.9628 66.5797 38.0785 65.6953 36.9876 65.6953C35.8967 65.6953 35.0124 66.5797 35.0124 67.6705C35.0124 68.7614 35.8967 69.6458 36.9876 69.6458Z" fill="#111827"/>
<path d="M52.3292 69.6458C53.4201 69.6458 54.3045 68.7614 54.3045 67.6705C54.3045 66.5797 53.4201 65.6953 52.3292 65.6953C51.2383 65.6953 50.354 66.5797 50.354 67.6705C50.354 68.7614 51.2383 69.6458 52.3292 69.6458Z" fill="#111827"/>
<path d="M60 69.6458C61.0909 69.6458 61.9752 68.7614 61.9752 67.6705C61.9752 66.5797 61.0909 65.6953 60 65.6953C58.9091 65.6953 58.0248 66.5797 58.0248 67.6705C58.0248 68.7614 58.9091 69.6458 60 69.6458Z" fill="#111827"/>
<path d="M63.8354 69.6458C64.9263 69.6458 65.8106 68.7614 65.8106 67.6705C65.8106 66.5797 64.9263 65.6953 63.8354 65.6953C62.7445 65.6953 61.8602 66.5797 61.8602 67.6705C61.8602 68.7614 62.7445 69.6458 63.8354 69.6458Z" fill="#111827"/>
<path d="M67.6708 69.6458C68.7617 69.6458 69.646 68.7614 69.646 67.6705C69.646 66.5797 68.7617 65.6953 67.6708 65.6953C66.5799 65.6953 65.6956 66.5797 65.6956 67.6705C65.6956 68.7614 66.5799 69.6458 67.6708 69.6458Z" fill="#111827"/>
<path d="M71.5062 69.6458C72.5971 69.6458 73.4815 68.7614 73.4815 67.6705C73.4815 66.5797 72.5971 65.6953 71.5062 65.6953C70.4153 65.6953 69.531 66.5797 69.531 67.6705C69.531 68.7614 70.4153 69.6458 71.5062 69.6458Z" fill="#111827"/>
<path d="M83.0124 69.6458C84.1033 69.6458 84.9876 68.7614 84.9876 67.6705C84.9876 66.5797 84.1033 65.6953 83.0124 65.6953C81.9215 65.6953 81.0372 66.5797 81.0372 67.6705C81.0372 68.7614 81.9215 69.6458 83.0124 69.6458Z" fill="#111827"/>
<path d="M86.8478 69.6458C87.9387 69.6458 88.823 68.7614 88.823 67.6705C88.823 66.5797 87.9387 65.6953 86.8478 65.6953C85.7569 65.6953 84.8726 66.5797 84.8726 67.6705C84.8726 68.7614 85.7569 69.6458 86.8478 69.6458Z" fill="#111827"/>
<path d="M90.6832 69.6458C91.7741 69.6458 92.6584 68.7614 92.6584 67.6705C92.6584 66.5797 91.7741 65.6953 90.6832 65.6953C89.5923 65.6953 88.7079 66.5797 88.7079 67.6705C88.7079 68.7614 89.5923 69.6458 90.6832 69.6458Z" fill="#111827"/>
<path d="M94.5186 69.6458C95.6095 69.6458 96.4938 68.7614 96.4938 67.6705C96.4938 66.5797 95.6095 65.6953 94.5186 65.6953C93.4277 65.6953 92.5433 66.5797 92.5433 67.6705C92.5433 68.7614 93.4277 69.6458 94.5186 69.6458Z" fill="#111827"/>
<path d="M102.189 69.6458C103.28 69.6458 104.165 68.7614 104.165 67.6705C104.165 66.5797 103.28 65.6953 102.189 65.6953C101.099 65.6953 100.214 66.5797 100.214 67.6705C100.214 68.7614 101.099 69.6458 102.189 69.6458Z" fill="#111827"/>
<path d="M106.025 69.6458C107.116 69.6458 108 68.7614 108 67.6705C108 66.5797 107.116 65.6953 106.025 65.6953C104.934 65.6953 104.05 66.5797 104.05 67.6705C104.05 68.7614 104.934 69.6458 106.025 69.6458Z" fill="#111827"/>
<path d="M13.9752 73.4812C15.0661 73.4812 15.9505 72.5969 15.9505 71.506C15.9505 70.4151 15.0661 69.5308 13.9752 69.5308C12.8843 69.5308 12 70.4151 12 71.506C12 72.5969 12.8843 73.4812 13.9752 73.4812Z" fill="#111827"/>
<path d="M33.1522 73.4812C34.2431 73.4812 35.1275 72.5969 35.1275 71.506C35.1275 70.4151 34.2431 69.5308 33.1522 69.5308C32.0613 69.5308 31.177 70.4151 31.177 71.506C31.177 72.5969 32.0613 73.4812 33.1522 73.4812Z" fill="#111827"/>
<path d="M44.6584 73.4812C45.7493 73.4812 46.6336 72.5969 46.6336 71.506C46.6336 70.4151 45.7493 69.5308 44.6584 69.5308C43.5675 69.5308 42.6832 70.4151 42.6832 71.506C42.6832 72.5969 43.5675 73.4812 44.6584 73.4812Z" fill="#111827"/>
<path d="M67.6708 73.4812C68.7617 73.4812 69.646 72.5969 69.646 71.506C69.646 70.4151 68.7617 69.5308 67.6708 69.5308C66.5799 69.5308 65.6956 70.4151 65.6956 71.506C65.6956 72.5969 66.5799 73.4812 67.6708 73.4812Z" fill="#111827"/>
<path d="M75.3416 73.4812C76.4325 73.4812 77.3168 72.5969 77.3168 71.506C77.3168 70.4151 76.4325 69.5308 75.3416 69.5308C74.2507 69.5308 73.3663 70.4151 73.3663 71.506C73.3663 72.5969 74.2507 73.4812 75.3416 73.4812Z" fill="#111827"/>
<path d="M79.177 73.4812C80.2679 73.4812 81.1522 72.5969 81.1522 71.506C81.1522 70.4151 80.2679 69.5308 79.177 69.5308C78.0861 69.5308 77.2018 70.4151 77.2018 71.506C77.2018 72.5969 78.0861 73.4812 79.177 73.4812Z" fill="#111827"/>
<path d="M86.8478 73.4812C87.9387 73.4812 88.823 72.5969 88.823 71.506C88.823 70.4151 87.9387 69.5308 86.8478 69.5308C85.7569 69.5308 84.8726 70.4151 84.8726 71.506C84.8726 72.5969 85.7569 73.4812 86.8478 73.4812Z" fill="#111827"/>
<path d="M90.6832 73.4812C91.7741 73.4812 92.6584 72.5969 92.6584 71.506C92.6584 70.4151 91.7741 69.5308 90.6832 69.5308C89.5923 69.5308 88.7079 70.4151 88.7079 71.506C88.7079 72.5969 89.5923 73.4812 90.6832 73.4812Z" fill="#111827"/>
<path d="M106.025 73.4812C107.116 73.4812 108 72.5969 108 71.506C108 70.4151 107.116 69.5308 106.025 69.5308C104.934 69.5308 104.05 70.4151 104.05 71.506C104.05 72.5969 104.934 73.4812 106.025 73.4812Z" fill="#111827"/>
<path d="M13.9752 77.3167C15.0661 77.3167 15.9505 76.4323 15.9505 75.3414C15.9505 74.2506 15.0661 73.3662 13.9752 73.3662C12.8843 73.3662 12 74.2506 12 75.3414C12 76.4323 12.8843 77.3167 13.9752 77.3167Z" fill="#111827"/>
<path d="M29.3168 77.3167C30.4077 77.3167 31.2921 76.4323 31.2921 75.3414C31.2921 74.2506 30.4077 73.3662 29.3168 73.3662C28.226 73.3662 27.3416 74.2506 27.3416 75.3414C27.3416 76.4323 28.226 77.3167 29.3168 77.3167Z" fill="#111827"/>
<path d="M36.9876 77.3167C38.0785 77.3167 38.9628 76.4323 38.9628 75.3414C38.9628 74.2506 38.0785 73.3662 36.9876 73.3662C35.8967 73.3662 35.0124 74.2506 35.0124 75.3414C35.0124 76.4323 35.8967 77.3167 36.9876 77.3167Z" fill="#111827"/>
<path d="M40.823 77.3167C41.9139 77.3167 42.7982 76.4323 42.7982 75.3414C42.7982 74.2506 41.9139 73.3662 40.823 73.3662C39.7321 73.3662 38.8478 74.2506 38.8478 75.3414C38.8478 76.4323 39.7321 77.3167 40.823 77.3167Z" fill="#111827"/>
<path d="M44.6584 77.3167C45.7493 77.3167 46.6336 76.4323 46.6336 75.3414C46.6336 74.2506 45.7493 73.3662 44.6584 73.3662C43.5675 73.3662 42.6832 74.2506 42.6832 75.3414C42.6832 76.4323 43.5675 77.3167 44.6584 77.3167Z" fill="#111827"/>
<path d="M56.1646 77.3167C57.2555 77.3167 58.1399 76.4323 58.1399 75.3414C58.1399 74.2506 57.2555 73.3662 56.1646 73.3662C55.0737 73.3662 54.1894 74.2506 54.1894 75.3414C54.1894 76.4323 55.0737 77.3167 56.1646 77.3167Z" fill="#111827"/>
<path d="M63.8354 77.3167C64.9263 77.3167 65.8106 76.4323 65.8106 75.3414C65.8106 74.2506 64.9263 73.3662 63.8354 73.3662C62.7445 73.3662 61.8602 74.2506 61.8602 75.3414C61.8602 76.4323 62.7445 77.3167 63.8354 77.3167Z" fill="#111827"/>
<path d="M67.6708 77.3167C68.7617 77.3167 69.646 76.4323 69.646 75.3414C69.646 74.2506 68.7617 73.3662 67.6708 73.3662C66.5799 73.3662 65.6956 74.2506 65.6956 75.3414C65.6956 76.4323 66.5799 77.3167 67.6708 77.3167Z" fill="#111827"/>
<path d="M75.3416 77.3167C76.4325 77.3167 77.3168 76.4323 77.3168 75.3414C77.3168 74.2506 76.4325 73.3662 75.3416 73.3662C74.2507 73.3662 73.3663 74.2506 73.3663 75.3414C73.3663 76.4323 74.2507 77.3167 75.3416 77.3167Z" fill="#111827"/>
<path d="M79.177 77.3167C80.2679 77.3167 81.1522 76.4323 81.1522 75.3414C81.1522 74.2506 80.2679 73.3662 79.177 73.3662C78.0861 73.3662 77.2018 74.2506 77.2018 75.3414C77.2018 76.4323 78.0861 77.3167 79.177 77.3167Z" fill="#111827"/>
<path d="M83.0124 77.3167C84.1033 77.3167 84.9876 76.4323 84.9876 75.3414C84.9876 74.2506 84.1033 73.3662 83.0124 73.3662C81.9215 73.3662 81.0372 74.2506 81.0372 75.3414C81.0372 76.4323 81.9215 77.3167 83.0124 77.3167Z" fill="#111827"/>
<path d="M86.8478 77.3167C87.9387 77.3167 88.823 76.4323 88.823 75.3414C88.823 74.2506 87.9387 73.3662 86.8478 73.3662C85.7569 73.3662 84.8726 74.2506 84.8726 75.3414C84.8726 76.4323 85.7569 77.3167 86.8478 77.3167Z" fill="#111827"/>
<path d="M90.6832 77.3167C91.7741 77.3167 92.6584 76.4323 92.6584 75.3414C92.6584 74.2506 91.7741 73.3662 90.6832 73.3662C89.5923 73.3662 88.7079 74.2506 88.7079 75.3414C88.7079 76.4323 89.5923 77.3167 90.6832 77.3167Z" fill="#111827"/>
<path d="M98.354 77.3167C99.4448 77.3167 100.329 76.4323 100.329 75.3414C100.329 74.2506 99.4448 73.3662 98.354 73.3662C97.2631 73.3662 96.3787 74.2506 96.3787 75.3414C96.3787 76.4323 97.2631 77.3167 98.354 77.3167Z" fill="#111827"/>
<path d="M44.6584 81.1521C45.7493 81.1521 46.6336 80.2678 46.6336 79.1769C46.6336 78.086 45.7493 77.2017 44.6584 77.2017C43.5675 77.2017 42.6832 78.086 42.6832 79.1769C42.6832 80.2678 43.5675 81.1521 44.6584 81.1521Z" fill="#111827"/>
<path d="M48.4938 81.1521C49.5847 81.1521 50.469 80.2678 50.469 79.1769C50.469 78.086 49.5847 77.2017 48.4938 77.2017C47.4029 77.2017 46.5186 78.086 46.5186 79.1769C46.5186 80.2678 47.4029 81.1521 48.4938 81.1521Z" fill="#111827"/>
<path d="M52.3292 81.1521C53.4201 81.1521 54.3045 80.2678 54.3045 79.1769C54.3045 78.086 53.4201 77.2017 52.3292 77.2017C51.2383 77.2017 50.354 78.086 50.354 79.1769C50.354 80.2678 51.2383 81.1521 52.3292 81.1521Z" fill="#111827"/>
<path d="M71.5062 81.1521C72.5971 81.1521 73.4815 80.2678 73.4815 79.1769C73.4815 78.086 72.5971 77.2017 71.5062 77.2017C70.4153 77.2017 69.531 78.086 69.531 79.1769C69.531 80.2678 70.4153 81.1521 71.5062 81.1521Z" fill="#111827"/>
<path d="M75.3416 81.1521C76.4325 81.1521 77.3168 80.2678 77.3168 79.1769C77.3168 78.086 76.4325 77.2017 75.3416 77.2017C74.2507 77.2017 73.3663 78.086 73.3663 79.1769C73.3663 80.2678 74.2507 81.1521 75.3416 81.1521Z" fill="#111827"/>
<path d="M90.6832 81.1521C91.7741 81.1521 92.6584 80.2678 92.6584 79.1769C92.6584 78.086 91.7741 77.2017 90.6832 77.2017C89.5923 77.2017 88.7079 78.086 88.7079 79.1769C88.7079 80.2678 89.5923 81.1521 90.6832 81.1521Z" fill="#111827"/>
<path d="M94.5186 81.1521C95.6095 81.1521 96.4938 80.2678 96.4938 79.1769C96.4938 78.086 95.6095 77.2017 94.5186 77.2017C93.4277 77.2017 92.5433 78.086 92.5433 79.1769C92.5433 80.2678 93.4277 81.1521 94.5186 81.1521Z" fill="#111827"/>
<path d="M44.6584 84.9876C45.7493 84.9876 46.6336 84.1032 46.6336 83.0123C46.6336 81.9215 45.7493 81.0371 44.6584 81.0371C43.5675 81.0371 42.6832 81.9215 42.6832 83.0123C42.6832 84.1032 43.5675 84.9876 44.6584 84.9876Z" fill="#111827"/>
<path d="M48.4938 84.9876C49.5847 84.9876 50.469 84.1032 50.469 83.0123C50.469 81.9215 49.5847 81.0371 48.4938 81.0371C47.4029 81.0371 46.5186 81.9215 46.5186 83.0123C46.5186 84.1032 47.4029 84.9876 48.4938 84.9876Z" fill="#111827"/>
<path d="M52.3292 84.9876C53.4201 84.9876 54.3045 84.1032 54.3045 83.0123C54.3045 81.9215 53.4201 81.0371 52.3292 81.0371C51.2383 81.0371 50.354 81.9215 50.354 83.0123C50.354 84.1032 51.2383 84.9876 52.3292 84.9876Z" fill="#111827"/>
<path d="M56.1646 84.9876C57.2555 84.9876 58.1399 84.1032 58.1399 83.0123C58.1399 81.9215 57.2555 81.0371 56.1646 81.0371C55.0737 81.0371 54.1894 81.9215 54.1894 83.0123C54.1894 84.1032 55.0737 84.9876 56.1646 84.9876Z" fill="#111827"/>
<path d="M60 84.9876C61.0909 84.9876 61.9752 84.1032 61.9752 83.0123C61.9752 81.9215 61.0909 81.0371 60 81.0371C58.9091 81.0371 58.0248 81.9215 58.0248 83.0123C58.0248 84.1032 58.9091 84.9876 60 84.9876Z" fill="#111827"/>
<path d="M63.8354 84.9876C64.9263 84.9876 65.8106 84.1032 65.8106 83.0123C65.8106 81.9215 64.9263 81.0371 63.8354 81.0371C62.7445 81.0371 61.8602 81.9215 61.8602 83.0123C61.8602 84.1032 62.7445 84.9876 63.8354 84.9876Z" fill="#111827"/>
<path d="M75.3416 84.9876C76.4325 84.9876 77.3168 84.1032 77.3168 83.0123C77.3168 81.9215 76.4325 81.0371 75.3416 81.0371C74.2507 81.0371 73.3663 81.9215 73.3663 83.0123C73.3663 84.1032 74.2507 84.9876 75.3416 84.9876Z" fill="#111827"/>
<path d="M83.0124 84.9876C84.1033 84.9876 84.9876 84.1032 84.9876 83.0123C84.9876 81.9215 84.1033 81.0371 83.0124 81.0371C81.9215 81.0371 81.0372 81.9215 81.0372 83.0123C81.0372 84.1032 81.9215 84.9876 83.0124 84.9876Z" fill="#111827"/>
<path d="M90.6832 84.9876C91.7741 84.9876 92.6584 84.1032 92.6584 83.0123C92.6584 81.9215 91.7741 81.0371 90.6832 81.0371C89.5923 81.0371 88.7079 81.9215 88.7079 83.0123C88.7079 84.1032 89.5923 84.9876 90.6832 84.9876Z" fill="#111827"/>
<path d="M98.354 84.9876C99.4448 84.9876 100.329 84.1032 100.329 83.0123C100.329 81.9215 99.4448 81.0371 98.354 81.0371C97.2631 81.0371 96.3787 81.9215 96.3787 83.0123C96.3787 84.1032 97.2631 84.9876 98.354 84.9876Z" fill="#111827"/>
<path d="M102.189 84.9876C103.28 84.9876 104.165 84.1032 104.165 83.0123C104.165 81.9215 103.28 81.0371 102.189 81.0371C101.099 81.0371 100.214 81.9215 100.214 83.0123C100.214 84.1032 101.099 84.9876 102.189 84.9876Z" fill="#111827"/>
<path d="M106.025 84.9876C107.116 84.9876 108 84.1032 108 83.0123C108 81.9215 107.116 81.0371 106.025 81.0371C104.934 81.0371 104.05 81.9215 104.05 83.0123C104.05 84.1032 104.934 84.9876 106.025 84.9876Z" fill="#111827"/>
<path d="M44.6584 88.823C45.7493 88.823 46.6336 87.9387 46.6336 86.8478C46.6336 85.7569 45.7493 84.8726 44.6584 84.8726C43.5675 84.8726 42.6832 85.7569 42.6832 86.8478C42.6832 87.9387 43.5675 88.823 44.6584 88.823Z" fill="#111827"/>
<path d="M60 88.823C61.0909 88.823 61.9752 87.9387 61.9752 86.8478C61.9752 85.7569 61.0909 84.8726 60 84.8726C58.9091 84.8726 58.0248 85.7569 58.0248 86.8478C58.0248 87.9387 58.9091 88.823 60 88.823Z" fill="#111827"/>
<path d="M67.6708 88.823C68.7617 88.823 69.646 87.9387 69.646 86.8478C69.646 85.7569 68.7617 84.8726 67.6708 84.8726C66.5799 84.8726 65.6956 85.7569 65.6956 86.8478C65.6956 87.9387 66.5799 88.823 67.6708 88.823Z" fill="#111827"/>
<path d="M71.5062 88.823C72.5971 88.823 73.4815 87.9387 73.4815 86.8478C73.4815 85.7569 72.5971 84.8726 71.5062 84.8726C70.4153 84.8726 69.531 85.7569 69.531 86.8478C69.531 87.9387 70.4153 88.823 71.5062 88.823Z" fill="#111827"/>
<path d="M75.3416 88.823C76.4325 88.823 77.3168 87.9387 77.3168 86.8478C77.3168 85.7569 76.4325 84.8726 75.3416 84.8726C74.2507 84.8726 73.3663 85.7569 73.3663 86.8478C73.3663 87.9387 74.2507 88.823 75.3416 88.823Z" fill="#111827"/>
<path d="M90.6832 88.823C91.7741 88.823 92.6584 87.9387 92.6584 86.8478C92.6584 85.7569 91.7741 84.8726 90.6832 84.8726C89.5923 84.8726 88.7079 85.7569 88.7079 86.8478C88.7079 87.9387 89.5923 88.823 90.6832 88.823Z" fill="#111827"/>
<path d="M94.5186 88.823C95.6095 88.823 96.4938 87.9387 96.4938 86.8478C96.4938 85.7569 95.6095 84.8726 94.5186 84.8726C93.4277 84.8726 92.5433 85.7569 92.5433 86.8478C92.5433 87.9387 93.4277 88.823 94.5186 88.823Z" fill="#111827"/>
<path d="M102.189 88.823C103.28 88.823 104.165 87.9387 104.165 86.8478C104.165 85.7569 103.28 84.8726 102.189 84.8726C101.099 84.8726 100.214 85.7569 100.214 86.8478C100.214 87.9387 101.099 88.823 102.189 88.823Z" fill="#111827"/>
<path d="M106.025 88.823C107.116 88.823 108 87.9387 108 86.8478C108 85.7569 107.116 84.8726 106.025 84.8726C104.934 84.8726 104.05 85.7569 104.05 86.8478C104.05 87.9387 104.934 88.823 106.025 88.823Z" fill="#111827"/>
<path d="M44.6584 92.6585C45.7493 92.6585 46.6336 91.7741 46.6336 90.6832C46.6336 89.5923 45.7493 88.708 44.6584 88.708C43.5675 88.708 42.6832 89.5923 42.6832 90.6832C42.6832 91.7741 43.5675 92.6585 44.6584 92.6585Z" fill="#111827"/>
<path d="M52.3292 92.6585C53.4201 92.6585 54.3045 91.7741 54.3045 90.6832C54.3045 89.5923 53.4201 88.708 52.3292 88.708C51.2383 88.708 50.354 89.5923 50.354 90.6832C50.354 91.7741 51.2383 92.6585 52.3292 92.6585Z" fill="#111827"/>
<path d="M56.1646 92.6585C57.2555 92.6585 58.1399 91.7741 58.1399 90.6832C58.1399 89.5923 57.2555 88.708 56.1646 88.708C55.0737 88.708 54.1894 89.5923 54.1894 90.6832C54.1894 91.7741 55.0737 92.6585 56.1646 92.6585Z" fill="#111827"/>
<path d="M60 92.6585C61.0909 92.6585 61.9752 91.7741 61.9752 90.6832C61.9752 89.5923 61.0909 88.708 60 88.708C58.9091 88.708 58.0248 89.5923 58.0248 90.6832C58.0248 91.7741 58.9091 92.6585 60 92.6585Z" fill="#111827"/>
<path d="M63.8354 92.6585C64.9263 92.6585 65.8106 91.7741 65.8106 90.6832C65.8106 89.5923 64.9263 88.708 63.8354 88.708C62.7445 88.708 61.8602 89.5923 61.8602 90.6832C61.8602 91.7741 62.7445 92.6585 63.8354 92.6585Z" fill="#111827"/>
<path d="M71.5062 92.6585C72.5971 92.6585 73.4815 91.7741 73.4815 90.6832C73.4815 89.5923 72.5971 88.708 71.5062 88.708C70.4153 88.708 69.531 89.5923 69.531 90.6832C69.531 91.7741 70.4153 92.6585 71.5062 92.6585Z" fill="#111827"/>
<path d="M75.3416 92.6585C76.4325 92.6585 77.3168 91.7741 77.3168 90.6832C77.3168 89.5923 76.4325 88.708 75.3416 88.708C74.2507 88.708 73.3663 89.5923 73.3663 90.6832C73.3663 91.7741 74.2507 92.6585 75.3416 92.6585Z" fill="#111827"/>
<path d="M79.177 92.6585C80.2679 92.6585 81.1522 91.7741 81.1522 90.6832C81.1522 89.5923 80.2679 88.708 79.177 88.708C78.0861 88.708 77.2018 89.5923 77.2018 90.6832C77.2018 91.7741 78.0861 92.6585 79.177 92.6585Z" fill="#111827"/>
<path d="M83.0124 92.6585C84.1033 92.6585 84.9876 91.7741 84.9876 90.6832C84.9876 89.5923 84.1033 88.708 83.0124 88.708C81.9215 88.708 81.0372 89.5923 81.0372 90.6832C81.0372 91.7741 81.9215 92.6585 83.0124 92.6585Z" fill="#111827"/>
<path d="M86.8478 92.6585C87.9387 92.6585 88.823 91.7741 88.823 90.6832C88.823 89.5923 87.9387 88.708 86.8478 88.708C85.7569 88.708 84.8726 89.5923 84.8726 90.6832C84.8726 91.7741 85.7569 92.6585 86.8478 92.6585Z" fill="#111827"/>
<path d="M90.6832 92.6585C91.7741 92.6585 92.6584 91.7741 92.6584 90.6832C92.6584 89.5923 91.7741 88.708 90.6832 88.708C89.5923 88.708 88.7079 89.5923 88.7079 90.6832C88.7079 91.7741 89.5923 92.6585 90.6832 92.6585Z" fill="#111827"/>
<path d="M98.354 92.6585C99.4448 92.6585 100.329 91.7741 100.329 90.6832C100.329 89.5923 99.4448 88.708 98.354 88.708C97.2631 88.708 96.3787 89.5923 96.3787 90.6832C96.3787 91.7741 97.2631 92.6585 98.354 92.6585Z" fill="#111827"/>
<path d="M106.025 92.6585C107.116 92.6585 108 91.7741 108 90.6832C108 89.5923 107.116 88.708 106.025 88.708C104.934 88.708 104.05 89.5923 104.05 90.6832C104.05 91.7741 104.934 92.6585 106.025 92.6585Z" fill="#111827"/>
<path d="M44.6584 96.4939C45.7493 96.4939 46.6336 95.6096 46.6336 94.5187C46.6336 93.4278 45.7493 92.5435 44.6584 92.5435C43.5675 92.5435 42.6832 93.4278 42.6832 94.5187C42.6832 95.6096 43.5675 96.4939 44.6584 96.4939Z" fill="#111827"/>
<path d="M48.4938 96.4939C49.5847 96.4939 50.469 95.6096 50.469 94.5187C50.469 93.4278 49.5847 92.5435 48.4938 92.5435C47.4029 92.5435 46.5186 93.4278 46.5186 94.5187C46.5186 95.6096 47.4029 96.4939 48.4938 96.4939Z" fill="#111827"/>
<path d="M52.3292 96.4939C53.4201 96.4939 54.3045 95.6096 54.3045 94.5187C54.3045 93.4278 53.4201 92.5435 52.3292 92.5435C51.2383 92.5435 50.354 93.4278 50.354 94.5187C50.354 95.6096 51.2383 96.4939 52.3292 96.4939Z" fill="#111827"/>
<path d="M56.1646 96.4939C57.2555 96.4939 58.1399 95.6096 58.1399 94.5187C58.1399 93.4278 57.2555 92.5435 56.1646 92.5435C55.0737 92.5435 54.1894 93.4278 54.1894 94.5187C54.1894 95.6096 55.0737 96.4939 56.1646 96.4939Z" fill="#111827"/>
<path d="M75.3416 96.4939C76.4325 96.4939 77.3168 95.6096 77.3168 94.5187C77.3168 93.4278 76.4325 92.5435 75.3416 92.5435C74.2507 92.5435 73.3663 93.4278 73.3663 94.5187C73.3663 95.6096 74.2507 96.4939 75.3416 96.4939Z" fill="#111827"/>
<path d="M79.177 96.4939C80.2679 96.4939 81.1522 95.6096 81.1522 94.5187C81.1522 93.4278 80.2679 92.5435 79.177 92.5435C78.0861 92.5435 77.2018 93.4278 77.2018 94.5187C77.2018 95.6096 78.0861 96.4939 79.177 96.4939Z" fill="#111827"/>
<path d="M83.0124 96.4939C84.1033 96.4939 84.9876 95.6096 84.9876 94.5187C84.9876 93.4278 84.1033 92.5435 83.0124 92.5435C81.9215 92.5435 81.0372 93.4278 81.0372 94.5187C81.0372 95.6096 81.9215 96.4939 83.0124 96.4939Z" fill="#111827"/>
<path d="M90.6832 96.4939C91.7741 96.4939 92.6584 95.6096 92.6584 94.5187C92.6584 93.4278 91.7741 92.5435 90.6832 92.5435C89.5923 92.5435 88.7079 93.4278 88.7079 94.5187C88.7079 95.6096 89.5923 96.4939 90.6832 96.4939Z" fill="#111827"/>
<path d="M94.5186 96.4939C95.6095 96.4939 96.4938 95.6096 96.4938 94.5187C96.4938 93.4278 95.6095 92.5435 94.5186 92.5435C93.4277 92.5435 92.5433 93.4278 92.5433 94.5187C92.5433 95.6096 93.4277 96.4939 94.5186 96.4939Z" fill="#111827"/>
<path d="M98.354 96.4939C99.4448 96.4939 100.329 95.6096 100.329 94.5187C100.329 93.4278 99.4448 92.5435 98.354 92.5435C97.2631 92.5435 96.3787 93.4278 96.3787 94.5187C96.3787 95.6096 97.2631 96.4939 98.354 96.4939Z" fill="#111827"/>
<path d="M102.189 96.4939C103.28 96.4939 104.165 95.6096 104.165 94.5187C104.165 93.4278 103.28 92.5435 102.189 92.5435C101.099 92.5435 100.214 93.4278 100.214 94.5187C100.214 95.6096 101.099 96.4939 102.189 96.4939Z" fill="#111827"/>
<path d="M106.025 96.4939C107.116 96.4939 108 95.6096 108 94.5187C108 93.4278 107.116 92.5435 106.025 92.5435C104.934 92.5435 104.05 93.4278 104.05 94.5187C104.05 95.6096 104.934 96.4939 106.025 96.4939Z" fill="#111827"/>
<path d="M44.6584 100.329C45.7493 100.329 46.6336 99.445 46.6336 98.3541C46.6336 97.2632 45.7493 96.3789 44.6584 96.3789C43.5675 96.3789 42.6832 97.2632 42.6832 98.3541C42.6832 99.445 43.5675 100.329 44.6584 100.329Z" fill="#111827"/>
<path d="M52.3292 100.329C53.4201 100.329 54.3045 99.445 54.3045 98.3541C54.3045 97.2632 53.4201 96.3789 52.3292 96.3789C51.2383 96.3789 50.354 97.2632 50.354 98.3541C50.354 99.445 51.2383 100.329 52.3292 100.329Z" fill="#111827"/>
<path d="M56.1646 100.329C57.2555 100.329 58.1399 99.445 58.1399 98.3541C58.1399 97.2632 57.2555 96.3789 56.1646 96.3789C55.0737 96.3789 54.1894 97.2632 54.1894 98.3541C54.1894 99.445 55.0737 100.329 56.1646 100.329Z" fill="#111827"/>
<path d="M63.8354 100.329C64.9263 100.329 65.8106 99.445 65.8106 98.3541C65.8106 97.2632 64.9263 96.3789 63.8354 96.3789C62.7445 96.3789 61.8602 97.2632 61.8602 98.3541C61.8602 99.445 62.7445 100.329 63.8354 100.329Z" fill="#111827"/>
<path d="M75.3416 100.329C76.4325 100.329 77.3168 99.445 77.3168 98.3541C77.3168 97.2632 76.4325 96.3789 75.3416 96.3789C74.2507 96.3789 73.3663 97.2632 73.3663 98.3541C73.3663 99.445 74.2507 100.329 75.3416 100.329Z" fill="#111827"/>
<path d="M79.177 100.329C80.2679 100.329 81.1522 99.445 81.1522 98.3541C81.1522 97.2632 80.2679 96.3789 79.177 96.3789C78.0861 96.3789 77.2018 97.2632 77.2018 98.3541C77.2018 99.445 78.0861 100.329 79.177 100.329Z" fill="#111827"/>
<path d="M94.5186 100.329C95.6095 100.329 96.4938 99.445 96.4938 98.3541C96.4938 97.2632 95.6095 96.3789 94.5186 96.3789C93.4277 96.3789 92.5433 97.2632 92.5433 98.3541C92.5433 99.445 93.4277 100.329 94.5186 100.329Z" fill="#111827"/>
<path d="M98.354 100.329C99.4448 100.329 100.329 99.445 100.329 98.3541C100.329 97.2632 99.4448 96.3789 98.354 96.3789C97.2631 96.3789 96.3787 97.2632 96.3787 98.3541C96.3787 99.445 97.2631 100.329 98.354 100.329Z" fill="#111827"/>
<path d="M106.025 100.329C107.116 100.329 108 99.445 108 98.3541C108 97.2632 107.116 96.3789 106.025 96.3789C104.934 96.3789 104.05 97.2632 104.05 98.3541C104.05 99.445 104.934 100.329 106.025 100.329Z" fill="#111827"/>
<path d="M44.6584 104.164C45.7493 104.164 46.6336 103.28 46.6336 102.189C46.6336 101.098 45.7493 100.214 44.6584 100.214C43.5675 100.214 42.6832 101.098 42.6832 102.189C42.6832 103.28 43.5675 104.164 44.6584 104.164Z" fill="#111827"/>
<path d="M48.4938 104.164C49.5847 104.164 50.469 103.28 50.469 102.189C50.469 101.098 49.5847 100.214 48.4938 100.214C47.4029 100.214 46.5186 101.098 46.5186 102.189C46.5186 103.28 47.4029 104.164 48.4938 104.164Z" fill="#111827"/>
<path d="M56.1646 104.164C57.2555 104.164 58.1399 103.28 58.1399 102.189C58.1399 101.098 57.2555 100.214 56.1646 100.214C55.0737 100.214 54.1894 101.098 54.1894 102.189C54.1894 103.28 55.0737 104.164 56.1646 104.164Z" fill="#111827"/>
<path d="M67.6708 104.164C68.7617 104.164 69.646 103.28 69.646 102.189C69.646 101.098 68.7617 100.214 67.6708 100.214C66.5799 100.214 65.6956 101.098 65.6956 102.189C65.6956 103.28 66.5799 104.164 67.6708 104.164Z" fill="#111827"/>
<path d="M71.5062 104.164C72.5971 104.164 73.4815 103.28 73.4815 102.189C73.4815 101.098 72.5971 100.214 71.5062 100.214C70.4153 100.214 69.531 101.098 69.531 102.189C69.531 103.28 70.4153 104.164 71.5062 104.164Z" fill="#111827"/>
<path d="M75.3416 104.164C76.4325 104.164 77.3168 103.28 77.3168 102.189C77.3168 101.098 76.4325 100.214 75.3416 100.214C74.2507 100.214 73.3663 101.098 73.3663 102.189C73.3663 103.28 74.2507 104.164 75.3416 104.164Z" fill="#111827"/>
<path d="M79.177 104.164C80.2679 104.164 81.1522 103.28 81.1522 102.189C81.1522 101.098 80.2679 100.214 79.177 100.214C78.0861 100.214 77.2018 101.098 77.2018 102.189C77.2018 103.28 78.0861 104.164 79.177 104.164Z" fill="#111827"/>
<path d="M83.0124 104.164C84.1033 104.164 84.9876 103.28 84.9876 102.189C84.9876 101.098 84.1033 100.214 83.0124 100.214C81.9215 100.214 81.0372 101.098 81.0372 102.189C81.0372 103.28 81.9215 104.164 83.0124 104.164Z" fill="#111827"/>
<path d="M86.8478 104.164C87.9387 104.164 88.823 103.28 88.823 102.189C88.823 101.098 87.9387 100.214 86.8478 100.214C85.7569 100.214 84.8726 101.098 84.8726 102.189C84.8726 103.28 85.7569 104.164 86.8478 104.164Z" fill="#111827"/>
<path d="M90.6832 104.164C91.7741 104.164 92.6584 103.28 92.6584 102.189C92.6584 101.098 91.7741 100.214 90.6832 100.214C89.5923 100.214 88.7079 101.098 88.7079 102.189C88.7079 103.28 89.5923 104.164 90.6832 104.164Z" fill="#111827"/>
<path d="M94.5186 104.164C95.6095 104.164 96.4938 103.28 96.4938 102.189C96.4938 101.098 95.6095 100.214 94.5186 100.214C93.4277 100.214 92.5433 101.098 92.5433 102.189C92.5433 103.28 93.4277 104.164 94.5186 104.164Z" fill="#111827"/>
<path d="M106.025 104.164C107.116 104.164 108 103.28 108 102.189C108 101.098 107.116 100.214 106.025 100.214C104.934 100.214 104.05 101.098 104.05 102.189C104.05 103.28 104.934 104.164 106.025 104.164Z" fill="#111827"/>
<path d="M48.4938 108C49.5847 108 50.469 107.115 50.469 106.025C50.469 104.934 49.5847 104.049 48.4938 104.049C47.4029 104.049 46.5186 104.934 46.5186 106.025C46.5186 107.115 47.4029 108 48.4938 108Z" fill="#111827"/>
<path d="M56.1646 108C57.2555 108 58.1399 107.115 58.1399 106.025C58.1399 104.934 57.2555 104.049 56.1646 104.049C55.0737 104.049 54.1894 104.934 54.1894 106.025C54.1894 107.115 55.0737 108 56.1646 108Z" fill="#111827"/>
<path d="M63.8354 108C64.9263 108 65.8106 107.115 65.8106 106.025C65.8106 104.934 64.9263 104.049 63.8354 104.049C62.7445 104.049 61.8602 104.934 61.8602 106.025C61.8602 107.115 62.7445 108 63.8354 108Z" fill="#111827"/>
<path d="M67.6708 108C68.7617 108 69.646 107.115 69.646 106.025C69.646 104.934 68.7617 104.049 67.6708 104.049C66.5799 104.049 65.6956 104.934 65.6956 106.025C65.6956 107.115 66.5799 108 67.6708 108Z" fill="#111827"/>
<path d="M83.0124 108C84.1033 108 84.9876 107.115 84.9876 106.025C84.9876 104.934 84.1033 104.049 83.0124 104.049C81.9215 104.049 81.0372 104.934 81.0372 106.025C81.0372 107.115 81.9215 108 83.0124 108Z" fill="#111827"/>
<path d="M86.8478 108C87.9387 108 88.823 107.115 88.823 106.025C88.823 104.934 87.9387 104.049 86.8478 104.049C85.7569 104.049 84.8726 104.934 84.8726 106.025C84.8726 107.115 85.7569 108 86.8478 108Z" fill="#111827"/>
<path d="M90.6832 108C91.7741 108 92.6584 107.115 92.6584 106.025C92.6584 104.934 91.7741 104.049 90.6832 104.049C89.5923 104.049 88.7079 104.934 88.7079 106.025C88.7079 107.115 89.5923 108 90.6832 108Z" fill="#111827"/>
<path d="M94.5186 108C95.6095 108 96.4938 107.115 96.4938 106.025C96.4938 104.934 95.6095 104.049 94.5186 104.049C93.4277 104.049 92.5433 104.934 92.5433 106.025C92.5433 107.115 93.4277 108 94.5186 108Z" fill="#111827"/>
<path d="M98.354 108C99.4448 108 100.329 107.115 100.329 106.025C100.329 104.934 99.4448 104.049 98.354 104.049C97.2631 104.049 96.3787 104.934 96.3787 106.025C96.3787 107.115 97.2631 108 98.354 108Z" fill="#111827"/>
<path d="M102.189 108C103.28 108 104.165 107.115 104.165 106.025C104.165 104.934 103.28 104.049 102.189 104.049C101.099 104.049 100.214 104.934 100.214 106.025C100.214 107.115 101.099 108 102.189 108Z" fill="#111827"/>
<path d="M106.025 108C107.116 108 108 107.115 108 106.025C108 104.934 107.116 104.049 106.025 104.049C104.934 104.049 104.05 104.934 104.05 106.025C104.05 107.115 104.934 108 106.025 108Z" fill="#111827"/>
<path d="M38.8478 38.8478V20.4379C38.8478 15.8354 35.0124 12 30.4099 12H20.4379C15.8354 12 12 15.8354 12 20.4379V30.2181C12 35.0124 15.8354 38.8478 20.4379 38.8478H38.8478ZM21.205 15.8354H29.6428C32.5194 15.8354 35.0124 18.3284 35.0124 21.205V35.0124H21.205C18.3284 35.0124 15.8354 32.5194 15.8354 29.6428V21.205C15.8354 18.3284 18.3284 15.8354 21.205 15.8354Z" fill="#111827"/>
<path d="M81.0372 38.8478H99.4471C104.05 38.8478 107.885 35.0124 107.885 30.4099V20.4379C107.885 15.8354 104.05 12 99.4471 12L89.6668 12C84.8726 12 81.0372 15.8354 81.0372 20.4379V38.8478ZM104.05 21.205V29.6428C104.05 32.5194 101.557 35.0124 98.68 35.0124H84.8726V21.205C84.8726 18.3284 87.3656 15.8354 90.2421 15.8354H98.68C101.557 15.8354 104.05 18.3284 104.05 21.205Z" fill="#111827"/>
<path d="M38.8478 81.037H20.4379C15.8354 81.037 12 84.8724 12 89.4748L12 99.4469C12 104.049 15.8354 107.885 20.4379 107.885H30.2181C35.0124 107.885 38.8478 104.049 38.8478 99.4469V81.037ZM15.8354 98.6798V90.2419C15.8354 87.3654 18.3284 84.8724 21.205 84.8724H35.0124V98.6798C35.0124 101.556 32.5194 104.049 29.6428 104.049H21.205C18.3284 104.049 15.8354 101.556 15.8354 98.6798Z" fill="#111827"/>
<path d="M25.4239 31.1771C28.6012 31.1771 31.177 28.6013 31.177 25.424C31.177 22.2466 28.6012 19.6709 25.4239 19.6709C22.2465 19.6709 19.6708 22.2466 19.6708 25.424C19.6708 28.6013 22.2465 31.1771 25.4239 31.1771Z" fill="#111827"/>
<path d="M94.461 31.1771C97.6384 31.1771 100.214 28.6013 100.214 25.424C100.214 22.2466 97.6384 19.6709 94.461 19.6709C91.2837 19.6709 88.7079 22.2466 88.7079 25.424C88.7079 28.6013 91.2837 31.1771 94.461 31.1771Z" fill="#111827"/>
<path d="M25.4239 100.214C28.6012 100.214 31.177 97.6385 31.177 94.4611C31.177 91.2838 28.6012 88.708 25.4239 88.708C22.2465 88.708 19.6708 91.2838 19.6708 94.4611C19.6708 97.6385 22.2465 100.214 25.4239 100.214Z" fill="#111827"/>
</g>
<defs>
<clipPath id="clip0_135_129">
<rect width="96" height="96" fill="white" transform="translate(12 12)"/>
</clipPath>
</defs>
</svg>
